<svg xmlns="http://www.w3.org/2000/svg" viewBox="0.4 38.2 97.2 15.4"><g fill="#4E4E4F"><path d="M6.8 38.6h.4l6.4 14.8h-.5l-2.3-5.3H3.2L.9 53.4H.4l6.4-14.8zm3.9 9.1L7 39.2l-3.7 8.5h7.4zM20.5 53.7c-.4 0-.9-.1-1.3-.2s-.8-.3-1.2-.5-.7-.5-1-.8c-.3-.3-.6-.6-.8-1v2.3h-.4V38.2h.4v6.9c.6-.8 1.2-1.4 1.9-1.9s1.6-.8 2.5-.8c.8 0 1.5.2 2.1.5.6.3 1.2.8 1.6 1.3.4.5.8 1.1 1 1.8s.3 1.3.3 2-.1 1.4-.4 2.1-.6 1.3-1.1 1.8c-.5.5-1 .9-1.7 1.2-.5.4-1.2.6-1.9.6zm0-.5c.7 0 1.3-.1 1.9-.4.6-.3 1.1-.7 1.5-1.2s.8-1 1-1.7c.2-.6.4-1.2.4-1.9s-.1-1.3-.3-1.9c-.2-.6-.5-1.2-1-1.7-.4-.5-.9-.9-1.5-1.2-.6-.3-1.2-.4-1.9-.4-.5 0-1 .1-1.5.3s-.9.4-1.2.7c-.4.3-.7.6-1 1-.3.4-.5.8-.8 1.2v4c0 .4.2.9.5 1.3s.6.7 1.1 1c.4.3.9.5 1.4.7.5.1 1 .2 1.4.2zM32.8 53.7c-.7 0-1.4-.2-2-.4-.6-.3-1.2-.7-1.6-1.2-.5-.5-.8-1.1-1.1-1.8s-.4-1.4-.4-2.1c0-.8.1-1.5.4-2.2.3-.7.6-1.3 1.1-1.8.5-.5 1-.9 1.6-1.2.6-.3 1.3-.4 2-.4s1.4.1 2 .4c.6.3 1.2.7 1.6 1.2.5.5.8 1.1 1.1 1.8.3.7.4 1.4.4 2.2 0 .8-.1 1.5-.4 2.1s-.6 1.3-1.1 1.8c-.5.5-1 .9-1.6 1.2-.7.2-1.3.4-2 .4zM28 48.1c0 .7.1 1.4.4 2s.6 1.2 1 1.6c.4.5.9.8 1.5 1.1.6.3 1.2.4 1.8.4.6 0 1.2-.1 1.8-.4.6-.3 1.1-.7 1.5-1.1.4-.5.8-1 1-1.6s.4-1.3.4-2-.1-1.4-.4-2c-.3-.6-.6-1.2-1-1.6-.4-.5-.9-.8-1.5-1.1-.6-.3-1.2-.4-1.8-.4s-1.2.1-1.8.4c-.6.3-1.1.7-1.5 1.1-.4.5-.8 1-1 1.7s-.4 1.2-.4 1.9zM44 53.7c-2.3 0-3.5-1.7-3.5-5v-6.1h.4v6.1c0 3 1 4.5 3.1 4.5.5 0 1-.1 1.5-.3.5-.2 1-.4 1.4-.8s.8-.7 1.1-1.2c.3-.5.6-1 .7-1.5v-6.9h.4v10c0 .3.1.4.3.4v.4h-.3c-.1-.1-.3-.2-.3-.3-.1-.1-.1-.3-.1-.5v-1.9c-.5.9-1.1 1.6-2 2.2-.8.6-1.7.9-2.7.9zM56.9 52.9l-.6.3c-.2.1-.4.1-.6.2-.2.1-.5.1-.8.1-.5 0-.9-.2-1.3-.5s-.6-.7-.6-1.2V43h-1.6v-.4H53v-3.8h.4v3.8H56v.4h-2.6v8.9c0 .4.2.7.5.9s.6.3 1 .3c.2 0 .5 0 .7-.1.2 0 .4-.1.6-.2.2-.1.3-.1.4-.2.1-.1.1-.1.2-.1l.1.4zM83.9 53.4V39.5l-6.6 11H77l-6.6-11v13.9H70V38.6h.3L77.2 50 84 38.6h.3v14.8h-.4zM92.4 53.7c-.7 0-1.4-.2-2-.4s-1.2-.7-1.7-1.2-.8-1.1-1.1-1.8c-.3-.7-.4-1.4-.4-2.2 0-.8.1-1.5.4-2.2s.6-1.3 1.1-1.8c.5-.5 1-.9 1.6-1.2.6-.3 1.3-.4 2-.4s1.4.1 2 .4c.6.3 1.2.7 1.6 1.2s.8 1.1 1.1 1.8.4 1.4.4 2.2v.2h-9.9c.1.7.2 1.3.5 2s.6 1.1 1.1 1.6c.4.4.9.8 1.5 1.1.6.3 1.2.4 1.8.4.4 0 .8-.1 1.2-.2s.8-.3 1.1-.5c.3-.2.7-.4.9-.7s.5-.6.6-.9l.4.1c-.2.4-.4.7-.7 1-.3.3-.6.6-1 .8s-.8.4-1.3.5c-.2.1-.7.2-1.2.2zm4.7-5.9c0-.7-.2-1.4-.5-2s-.6-1.1-1-1.6-.9-.8-1.5-1c-.6-.2-1.2-.4-1.8-.4s-1.2.1-1.8.4c-.6.3-1 .6-1.5 1s-.8 1-1 1.6c-.3.6-.4 1.3-.4 2h9.5z"/></g></svg>