<svg xmlns="http://www.w3.org/2000/svg" viewBox="1.5 76.4 97.9 12.3"><g fill="#999"><path d="M6.9 85.7H1.4v-1.6-2.6-1.9-2.5h5.3v.9H2.5v2.8h4.3v.9H2.5V84.8h4.4v.9zM14.1 85.3l-.8.6-.6-.9c-.4-.5-.9-1.2-1.5-2-.6.7-1.1 1.3-1.5 1.9-.4.6-.6.9-.7.9l-.7-.6c.1-.1.3-.4.8-.9s1-1.2 1.6-1.9c-.4-.5-.7-.9-1.1-1.4-.3-.4-.7-.9-1.1-1.4l.8-.6c.3.4.6.8 1 1.3.3.5.7.9 1.1 1.4.3-.4.6-.8 1-1.3.3-.4.7-.9 1.1-1.4l.7.5c-.4.5-.8 1-1.1 1.4-.3.4-.7.8-1.1 1.3.6.8 1.2 1.5 1.6 2 .2.8.5 1.1.5 1.1zM20.1 82.1v3.7h-2c-.3 0-.7 0-1.1-.1-.4-.1-.7-.2-.9-.3-.3-.2-.6-.4-.8-.6-.2-.3-.3-.6-.3-1s.1-.8.4-1.1c.2-.3.6-.5 1-.7.3-.1.6-.2 1.1-.3s1-.2 1.6-.2c0-.3-.1-.6-.2-.8-.1-.2-.3-.4-.6-.5-.2-.1-.4-.1-.6-.2s-.5 0-.8 0h-1l.1-.9H17.2c.5 0 1 .1 1.3.2s.7.3 1 .5c.2.2.4.5.6.8v1.5zm-1 1.5V83v-.8c-.2 0-.5 0-1 .1s-.9.2-1.2.3c-.2.1-.5.2-.6.4-.2.2-.3.4-.3.7 0 .3.1.5.2.7.2.2.4.3.6.4.2.1.4.1.7.2s.5 0 .8 0h.7v-.4c.1-.2.1-.5.1-1zM31.6 85.7h-1v-.9-1.6-.9-1c0-.5-.1-.9-.3-1.1s-.5-.2-.9-.2c-.2 0-.5.1-.8.2s-.7.3-1.1.5v5h-1v-.8-1.7-1-1c0-.2 0-.4-.1-.5 0-.2-.1-.3-.2-.4l-.3-.3h-.6c-.2 0-.5.1-.8.2-.3.1-.7.3-1.1.6v4.9h-1V85v-2.3-1.4-2h1v.7c.3-.2.6-.4 1.1-.6s.8-.3 1.1-.3c.4 0 .8.1 1 .3.3.2.5.4.6.7.5-.3.9-.5 1.4-.7.4-.2.8-.2 1.1-.2.6 0 1 .2 1.4.5.3.3.5.8.5 1.4V85.7zM39.4 82.3c0 .7-.1 1.2-.4 1.7-.3.5-.7.8-1.2 1.1-.4.2-.9.4-1.4.5-.5.1-1 .1-1.5.1v2.9h-1v-1.8-3.3-1.9-2.4h.7c.9 0 1.6 0 2.1.1s.9.3 1.4.5c.4.3.8.6 1 1s.3 1 .3 1.5zm-1 0c0-.4-.1-.8-.3-1.1s-.5-.6-.8-.7c-.3-.2-.6-.3-1-.4-.3 0-.7-.1-1.1-.1h-.1-.1v4.9c.4 0 .8 0 1.2-.1.4-.1.7-.2 1-.3.4-.2.8-.5 1-.8.1-.4.2-.8.2-1.4zM42.2 85.7h-1v-1.9-3-1.9-2.6h1v9.4zM49.6 82.3H45c0 .5.1.9.3 1.2.2.4.5.7.9.9.2.2.5.3.8.4.3.1.7.1 1.1.1h1.1l-.1.9h-1c-.7 0-1.3-.1-1.8-.3-.5-.2-.9-.4-1.2-.7-.3-.3-.5-.6-.7-1-.2-.4-.3-.9-.3-1.4 0-.5.1-.9.2-1.3s.4-.8.7-1.1c.3-.3.6-.5.9-.7.4-.2.8-.2 1.2-.2.4 0 .7.1 1.1.2.3.1.6.3.8.5.3.3.4.6.6 1v1.5zm-1-.7c-.1-.5-.2-.9-.5-1.2-.3-.3-.7-.5-1.2-.5s-.9.2-1.2.5c-.3.3-.5.7-.7 1.2h3.6zM60.3 80.1c0 .6-.2 1.2-.6 1.7-.4.5-.9.8-1.6 1-.3.1-.6.1-.9.2s-.8 0-1.2 0v2.7h-1.1v-1.4-3.2-1.7-2.2h.9c.7 0 1.4 0 1.9.1s1 .3 1.3.5c.4.2.7.6.9 1 .3.3.4.8.4 1.3zm-1.1 0c0-.4-.1-.8-.3-1.1-.2-.3-.5-.6-.9-.7-.3-.1-.5-.2-.8-.2h-.9-.1L56 78v4.2h.2c.3 0 .6 0 .9-.1.3 0 .6-.1.8-.2.4-.2.7-.4.9-.7.3-.3.4-.6.4-1.1zM65.8 80c-.2.1-.6.2-1.1.4-.5.2-1 .4-1.7.7v4.7h-1v-.7V83v-1.7-2h1v1c.5-.3 1-.5 1.4-.7.5-.2.8-.3 1.1-.4l.3.8zM72.7 82.5c0 .5-.1 1-.3 1.4s-.4.8-.8 1.2c-.3.3-.6.5-.9.6-.3.1-.7.2-1.2.2-.4 0-.8-.1-1.2-.2s-.7-.3-1-.6c-.3-.3-.6-.7-.8-1.2-.2-.5-.3-.9-.3-1.4 0-.5.1-.9.2-1.4.2-.4.4-.8.7-1.1.3-.3.6-.5 1-.7s.8-.2 1.2-.2c.4 0 .8.1 1.2.2.4.1.7.4 1 .7.3.3.6.7.7 1.1.5.4.5.9.5 1.4zm-1 0c0-.4-.1-.8-.2-1.2-.1-.4-.3-.7-.6-1-.2-.2-.4-.3-.6-.4-.2-.1-.5-.1-.7-.1-.3 0-.6 0-.8.1-.2.1-.4.2-.6.4-.2.2-.4.5-.5.9s-.2.7-.2 1.1c0 .4.1.8.2 1.2.1.4.3.7.6.9.2.1.4.3.6.3.2.1.4.1.7.1.3 0 .5 0 .8-.1.2-.1.4-.2.6-.4.2-.2.4-.5.6-.9s.1-.5.1-.9zM75.7 85.7c0 .4-.1.8-.2 1.1s-.3.7-.6.9c-.2.2-.5.4-.9.6-.4.2-.8.3-1.4.3l-.2-.8c.4 0 .8-.1 1.1-.2s.6-.2.7-.4c.2-.2.3-.4.4-.7.1-.3.1-.6.1-1.1v-3.9-2.3h1v6.5zm.1-7.7h-1.1v-1.1h1.1V78zM83 82.3h-4.6c0 .5.1.9.3 1.2s.5.7.9.9c.2.2.5.3.8.4.3.1.7.1 1.1.1h1.1l-.1.9h-1c-.7 0-1.3-.1-1.8-.3-.5-.2-.9-.4-1.2-.7-.3-.3-.5-.6-.7-1-.2-.4-.3-.9-.3-1.4 0-.5.1-.9.2-1.3s.4-.8.7-1.1c.3-.3.6-.5.9-.7.4-.2.8-.2 1.2-.2.4 0 .7.1 1.1.2.3.1.6.3.8.5.3.3.4.6.6 1v1.5zm-.9-.7c-.1-.5-.2-.9-.5-1.2-.3-.3-.7-.5-1.2-.5s-.9.2-1.2.5c-.3.3-.5.7-.7 1.2h3.6zM89 84.9l-.1.9h-.4c-.6 0-1.1-.1-1.5-.2-.5-.1-.9-.3-1.3-.5-.5-.3-.9-.7-1.2-1.1-.3-.5-.4-1-.4-1.6 0-.5.1-1 .4-1.4s.6-.8 1-1.1c.4-.2.8-.4 1.4-.6.5-.1 1.1-.2 1.7-.2h.2l.1.9h-.1-.1c-.5 0-.9 0-1.2.1s-.7.2-1 .3c-.4.2-.8.4-1 .8-.2.4-.4.8-.4 1.2 0 .5.1.9.3 1.3.2.3.5.6.9.8.3.1.6.2 1 .3.4.1.8.1 1.2.1h.5zM94.2 84.9l-.1.8h-.5c-.9 0-1.5-.2-2-.5s-.7-.9-.7-1.7V82v-2h-1.1v-.7H91v-1.5h.9v1.5h2.3v.7h-2.3v3.4c0 .6.1 1 .4 1.2s.8.4 1.4.4h.3c.1 0 .2-.1.2-.1zM99.4 83.9c0 .3-.1.6-.2.8l-.6.6c-.3.2-.6.3-.9.4-.4.1-.8.1-1.2.1h-1.1V85H97.2c.2 0 .4-.1.6-.1.2-.1.4-.2.5-.3.1-.1.2-.3.2-.5s0-.3-.1-.4c-.1-.1-.2-.2-.4-.3-.2-.1-.4-.2-.7-.4-.3-.1-.5-.3-.7-.4-.3-.2-.5-.4-.7-.6-.2-.2-.2-.5-.2-.8 0-.3.1-.6.3-.9.2-.3.4-.5.7-.6.3-.1.5-.2.8-.3s.6-.1.9-.1H99.3l.1.9H98.2c-.2 0-.4 0-.6.1-.2 0-.3.1-.5.1-.2.1-.3.2-.4.3s-.1.3-.1.4c0 .2.1.3.2.4.1.1.2.2.4.3.2.1.4.2.7.4s.5.3.7.3c.3.2.5.4.7.6s.1.5.1.8z"/></g></svg>