<?xml version="1.0" encoding="utf-8"?>
<!-- Generator: Adobe Illustrator 18.1.1, SVG Export Plug-In . SVG Version: 6.00 Build 0)  -->
<svg version="1.1" id="Layer_1" xmlns="http://www.w3.org/2000/svg" xmlns:xlink="http://www.w3.org/1999/xlink" x="0px" y="0px"
	 viewBox="0 74.9 134 21.4" enable-background="new 0 74.9 134 21.4" xml:space="preserve">
<g enable-background="new    ">
	<path fill="#999999" d="M9.3,89.4c-0.1,0-0.4,0-1.1,0c-0.7,0-1.6,0-2.6,0c-0.7,0-1.4,0-2,0s-1.1,0-1.5,0c0-0.3,0-1,0-2.2
		c0-1.1,0-2.2,0-3.4c0-0.6,0-1.5,0-2.6c0-1.1,0-2.2,0-3.3c0.4,0,0.9,0,1.5,0c0.6,0,1.2,0,1.9,0c1.1,0,2,0,2.7,0s1.1,0,1.1,0v1.2
		c-0.1,0-0.4,0-1.1,0c-0.7,0-1.5,0-2.5,0c-0.4,0-0.8,0-1.3,0s-0.7,0-1,0c0,0.6,0,1.3,0,1.9c0,0.6,0,1.3,0,1.8c0.3,0,0.6,0,0.9,0
		s0.7,0,0.9,0c1,0,1.9,0,2.7,0c0.8,0,1.2,0,1.3,0v1.2c0,0-0.5,0-1.4,0c-0.9,0-1.7,0-2.5,0c-0.3,0-0.6,0-1,0c-0.4,0-0.7,0-1,0
		c0,1.1,0,1.9,0,2.6c0,0.6,0,1.2,0,1.6c0.3,0,0.7,0,1.2,0c0.5,0,1,0,1.6,0c0.9,0,1.6,0,2.1,0c0.6,0,0.9,0,1,0V89.4z"/>
	<path fill="#999999" d="M18.9,88.8l-1.1,0.8c0,0-0.3-0.4-0.8-1.2c-0.5-0.7-1.2-1.6-2-2.6h0c-0.8,1-1.4,1.8-2,2.6
		c-0.6,0.8-0.9,1.2-0.9,1.2l-1-0.8c0.1-0.1,0.4-0.5,1-1.2s1.3-1.6,2.1-2.6v0c-0.5-0.6-1-1.3-1.4-1.9c-0.5-0.6-1-1.2-1.5-1.9l1-0.8
		c0.4,0.5,0.8,1.1,1.3,1.7c0.5,0.6,0.9,1.2,1.4,1.9h0c0.4-0.5,0.8-1.1,1.3-1.7s0.9-1.2,1.4-1.9l1,0.7c-0.6,0.7-1.1,1.3-1.5,1.8
		c-0.4,0.5-0.9,1.1-1.5,1.8v0c0.8,1.1,1.6,2,2.2,2.7S18.8,88.8,18.9,88.8z"/>
	<path fill="#999999" d="M27,84.5c0,1.4,0,2.6,0,3.5c0,0.9,0,1.4,0,1.4c-0.1,0-0.3,0-0.8,0.1c-0.5,0-1.1,0.1-1.8,0.1
		c-0.5,0-0.9,0-1.4-0.1s-0.9-0.2-1.2-0.4c-0.5-0.2-0.8-0.5-1.1-0.9c-0.3-0.4-0.4-0.8-0.4-1.3c0-0.5,0.2-1,0.5-1.4s0.8-0.7,1.4-1
		c0.4-0.2,0.9-0.3,1.5-0.4c0.6-0.1,1.3-0.2,2.1-0.3c0-0.4-0.1-0.8-0.3-1.1c-0.2-0.3-0.5-0.5-0.8-0.7c-0.3-0.1-0.5-0.2-0.8-0.2
		s-0.7-0.1-1.1-0.1c-0.3,0-0.5,0-0.7,0c-0.2,0-0.4,0-0.7,0l0.1-1.1c0.1,0,0.3,0,0.5,0c0.3,0,0.6,0,1,0c0.7,0,1.3,0.1,1.8,0.2
		c0.5,0.1,1,0.4,1.3,0.7c0.3,0.3,0.6,0.7,0.7,1.1C26.9,83.1,27,83.7,27,84.5z M25.6,86.6c0-0.2,0-0.4,0-0.7c0-0.3,0-0.6,0-1
		c-0.3,0-0.7,0.1-1.3,0.2s-1.2,0.2-1.6,0.4c-0.3,0.1-0.6,0.3-0.9,0.5c-0.2,0.2-0.4,0.5-0.4,0.9c0,0.4,0.1,0.7,0.3,0.9
		c0.2,0.2,0.5,0.4,0.9,0.5c0.3,0.1,0.6,0.2,0.9,0.2c0.3,0,0.7,0.1,1.1,0.1c0.1,0,0.3,0,0.4,0c0.2,0,0.3,0,0.5,0c0,0,0-0.2,0-0.6
		S25.6,87.2,25.6,86.6z"/>
	<path fill="#999999" d="M42.3,89.4H41c0-0.1,0-0.5,0-1.2c0-0.7,0-1.4,0-2.1c0-0.3,0-0.7,0-1.3s0-1,0-1.3c0-0.7-0.2-1.2-0.4-1.4
		c-0.3-0.3-0.6-0.4-1.2-0.4c-0.3,0-0.7,0.1-1.1,0.2c-0.4,0.2-0.9,0.4-1.5,0.7c0,0,0,0.1,0,0.2s0,0.2,0,0.3c0,0.5,0,0.9,0,1.4
		s0,0.9,0,1.4c0,0.9,0,1.7,0,2.4c0,0.6,0,1,0,1.1h-1.4c0-0.1,0-0.4,0-1c0-0.6,0-1.4,0-2.2c0-0.3,0-0.7,0-1.3c0-0.6,0-1,0-1.3
		c0-0.3,0-0.5-0.1-0.7c0-0.2-0.1-0.4-0.2-0.6c-0.1-0.2-0.3-0.3-0.5-0.4c-0.2-0.1-0.5-0.1-0.8-0.1c-0.3,0-0.7,0.1-1.1,0.3
		c-0.4,0.2-0.9,0.5-1.5,0.8c0,0.1,0,0.5,0,1.1c0,0.6,0,1.1,0,1.5c0,0.7,0,1.5,0,2.4c0,1,0,1.5,0,1.5H30c0,0,0-0.4,0-1
		c0-0.6,0-1.6,0-3.1c0-0.5,0-1.1,0-1.9c0-0.8,0-1.7,0-2.7h1.3l0,1l0,0c0.4-0.3,0.9-0.5,1.4-0.8c0.6-0.3,1.1-0.4,1.5-0.4
		c0.6,0,1,0.1,1.4,0.4s0.6,0.5,0.8,0.9h0c0.7-0.4,1.3-0.7,1.8-0.9c0.6-0.2,1-0.3,1.4-0.3c0.8,0,1.4,0.2,1.8,0.7
		c0.4,0.5,0.7,1.1,0.7,1.9c0,0.6,0,1.1,0,1.5c0,0.4,0,0.9,0,1.3c0,1,0,1.8,0,2.4S42.3,89.4,42.3,89.4z"/>
	<path fill="#999999" d="M52.8,84.8c0,0.9-0.2,1.6-0.6,2.3s-0.9,1.1-1.6,1.5c-0.6,0.3-1.2,0.5-1.9,0.7s-1.4,0.2-2,0.2l0,3.9h-1.4
		c0-0.1,0-0.9,0-2.4c0-1.5,0-3,0-4.5c0-0.7,0-1.6,0-2.6s0-2.1,0-3.2c0.2,0,0.4,0,0.5,0s0.3,0,0.4,0c1.2,0,2.1,0.1,2.8,0.2
		c0.7,0.1,1.3,0.3,1.8,0.7c0.6,0.3,1,0.8,1.4,1.4C52.7,83.4,52.8,84.1,52.8,84.8z M51.5,84.9c0-0.6-0.1-1.1-0.4-1.5
		c-0.3-0.4-0.6-0.8-1-1c-0.4-0.2-0.8-0.4-1.3-0.5c-0.5-0.1-1-0.2-1.6-0.2c-0.1,0-0.1,0-0.2,0s-0.1,0-0.2,0c0,0.1,0,0.4,0,1
		c0,0.6,0,1.6,0,3c0,0.3,0,0.7,0,1.2c0,0.5,0,1,0,1.3c0.5,0,1.1,0,1.6-0.1c0.5-0.1,1-0.2,1.3-0.4c0.6-0.3,1-0.7,1.3-1.1
		C51.3,86.2,51.5,85.6,51.5,84.9z"/>
	<path fill="#999999" d="M56.6,89.4h-1.4c0-0.1,0-0.9,0-2.5s0-2.9,0-4c0-0.7,0-1.5,0-2.6c0-1,0-2.2,0-3.5h1.4c0,0.9,0,1.9,0,3.1
		c0,1.2,0,2.1,0,2.9c0,1.7,0,3.2,0,4.5S56.6,89.4,56.6,89.4z"/>
	<path fill="#999999" d="M66.5,84.8h-6.2c0,0.6,0.1,1.2,0.4,1.7s0.6,0.9,1.2,1.3c0.3,0.2,0.7,0.4,1.1,0.5c0.4,0.1,0.9,0.2,1.5,0.2
		c0.3,0,0.6,0,0.9,0c0.3,0,0.4,0,0.5,0l-0.2,1.1c0,0-0.2,0-0.5,0c-0.3,0-0.6,0-0.9,0c-0.9,0-1.7-0.1-2.4-0.4c-0.7-0.2-1.2-0.6-1.7-1
		c-0.4-0.3-0.7-0.8-0.9-1.3C59.1,86.2,59,85.6,59,85c0-0.7,0.1-1.2,0.3-1.8c0.2-0.5,0.5-1,0.9-1.5c0.3-0.4,0.8-0.7,1.3-0.9
		c0.5-0.2,1-0.3,1.6-0.3c0.5,0,1,0.1,1.4,0.2c0.4,0.2,0.8,0.4,1.1,0.7c0.3,0.4,0.6,0.8,0.8,1.4C66.4,83.4,66.5,84,66.5,84.8z
		 M65.2,83.8c-0.1-0.7-0.3-1.3-0.7-1.7s-0.9-0.6-1.5-0.6s-1.2,0.2-1.6,0.6c-0.4,0.4-0.7,1-0.9,1.7H65.2z"/>
	<path fill="#999999" d="M80.8,81.9c0,0.8-0.3,1.6-0.8,2.3c-0.5,0.7-1.3,1.1-2.2,1.4c-0.4,0.1-0.8,0.2-1.3,0.2s-1,0.1-1.5,0.1l0,3.6
		h-1.4c0-0.3,0-1,0-1.9c0-0.9,0-2.4,0-4.3c0-0.6,0-1.4,0-2.3c0-0.9,0-1.9,0-3c0.2,0,0.5,0,0.7,0c0.2,0,0.4,0,0.6,0
		c1,0,1.8,0.1,2.5,0.2c0.7,0.1,1.3,0.3,1.8,0.6c0.5,0.3,0.9,0.8,1.2,1.3C80.6,80.6,80.8,81.2,80.8,81.9z M79.3,81.9
		c0-0.6-0.1-1.1-0.4-1.5c-0.3-0.4-0.7-0.7-1.2-1c-0.3-0.1-0.7-0.2-1.1-0.3s-0.8-0.1-1.2-0.1c-0.1,0-0.1,0-0.2,0c-0.1,0-0.1,0-0.2,0
		c0,0.1,0,0.5,0,1.3c0,0.8,0,1.4,0,1.9c0,0.4,0,0.9,0,1.5c0,0.6,0,0.9,0,1c0.1,0,0.1,0,0.2,0c0.1,0,0.1,0,0.2,0c0.4,0,0.8,0,1.2-0.1
		c0.4-0.1,0.8-0.1,1.1-0.3c0.5-0.2,0.9-0.5,1.2-1C79.2,83,79.3,82.5,79.3,81.9z"/>
	<path fill="#999999" d="M88.1,81.8c-0.3,0.1-0.8,0.2-1.4,0.5c-0.6,0.2-1.4,0.6-2.2,1c0,0.1,0,0.4,0,0.9s0,1,0,1.4
		c0,0.7,0,1.5,0,2.4c0,0.9,0,1.4,0,1.5h-1.4c0-0.1,0-0.4,0-1c0-0.5,0-1.5,0-2.8c0-0.5,0-1.3,0-2.2c0-1,0-1.9,0-2.7h1.3v1.3l0,0
		c0.6-0.4,1.3-0.7,1.9-1s1.1-0.5,1.5-0.5L88.1,81.8z"/>
	<path fill="#999999" d="M97.5,85.1c0,0.7-0.1,1.3-0.4,1.9c-0.2,0.6-0.6,1.1-1,1.6c-0.4,0.4-0.8,0.6-1.3,0.8c-0.5,0.2-1,0.3-1.6,0.3
		c-0.5,0-1.1-0.1-1.5-0.3c-0.5-0.2-0.9-0.5-1.3-0.8c-0.4-0.4-0.8-0.9-1-1.5c-0.2-0.6-0.4-1.3-0.4-1.9c0-0.7,0.1-1.3,0.3-1.8
		c0.2-0.6,0.5-1,0.9-1.5c0.4-0.4,0.8-0.7,1.3-0.9s1-0.3,1.6-0.3c0.6,0,1.1,0.1,1.6,0.3s0.9,0.5,1.3,0.9c0.4,0.5,0.8,1,1,1.5
		C97.4,83.8,97.5,84.4,97.5,85.1z M96.1,85.1c0-0.5-0.1-1.1-0.3-1.6c-0.2-0.5-0.4-0.9-0.8-1.3c-0.2-0.2-0.5-0.4-0.8-0.5
		c-0.3-0.1-0.6-0.2-1-0.2c-0.4,0-0.7,0.1-1,0.2c-0.3,0.1-0.6,0.3-0.8,0.6c-0.3,0.3-0.5,0.7-0.7,1.2c-0.2,0.5-0.3,1-0.3,1.5
		c0,0.6,0.1,1.1,0.3,1.6c0.2,0.5,0.5,0.9,0.9,1.3c0.2,0.2,0.5,0.4,0.8,0.5c0.3,0.1,0.6,0.2,0.9,0.2c0.4,0,0.7-0.1,1-0.2
		c0.3-0.1,0.6-0.3,0.8-0.5c0.3-0.3,0.6-0.7,0.7-1.2C96,86.2,96.1,85.7,96.1,85.1z"/>
	<path fill="#999999" d="M101.5,89.4c0,0.5-0.1,1.1-0.2,1.5c-0.2,0.5-0.4,0.9-0.8,1.2c-0.3,0.3-0.7,0.5-1.2,0.8
		c-0.5,0.2-1.1,0.3-1.9,0.4l-0.3-1c0.5-0.1,1-0.2,1.4-0.3c0.4-0.1,0.7-0.3,1-0.5c0.3-0.2,0.4-0.5,0.6-0.9c0.1-0.4,0.2-0.9,0.2-1.5
		c0-1.4,0-3.2,0-5.2c0-2,0-3.1,0-3.1h1.4c0,0.1,0,0.5,0,1.3s0,1.8,0,2.9c0,0.7,0,1.5,0,2.3C101.5,88,101.5,88.7,101.5,89.4z
		 M101.6,79.1H100v-1.5h1.5V79.1z"/>
	<path fill="#999999" d="M111.3,84.8h-6.2c0,0.6,0.1,1.2,0.4,1.7s0.6,0.9,1.2,1.3c0.3,0.2,0.7,0.4,1.1,0.5c0.4,0.1,0.9,0.2,1.5,0.2
		c0.3,0,0.6,0,0.9,0c0.3,0,0.4,0,0.5,0l-0.2,1.1c0,0-0.2,0-0.5,0c-0.3,0-0.6,0-0.9,0c-0.9,0-1.7-0.1-2.4-0.4c-0.7-0.2-1.2-0.6-1.7-1
		c-0.4-0.3-0.7-0.8-0.9-1.3c-0.3-0.5-0.4-1.1-0.4-1.8c0-0.7,0.1-1.2,0.3-1.8c0.2-0.5,0.5-1,0.9-1.5c0.3-0.4,0.8-0.7,1.3-0.9
		c0.5-0.2,1-0.3,1.6-0.3c0.5,0,1,0.1,1.4,0.2c0.4,0.2,0.8,0.4,1.1,0.7c0.3,0.4,0.6,0.8,0.8,1.4C111.2,83.4,111.3,84,111.3,84.8z
		 M110,83.8c-0.1-0.7-0.3-1.3-0.7-1.7s-0.9-0.6-1.5-0.6s-1.2,0.2-1.6,0.6c-0.4,0.4-0.7,1-0.9,1.7H110z"/>
	<path fill="#999999" d="M119.3,88.3l-0.1,1.1c0,0-0.1,0-0.2,0c-0.1,0-0.2,0-0.3,0c-0.7,0-1.4-0.1-2.1-0.2s-1.2-0.3-1.7-0.6
		c-0.7-0.4-1.2-0.9-1.6-1.5c-0.4-0.6-0.6-1.3-0.6-2.1c0-0.7,0.2-1.3,0.5-1.9c0.4-0.6,0.8-1,1.4-1.4c0.5-0.3,1.1-0.6,1.8-0.8
		c0.7-0.2,1.5-0.3,2.2-0.3c0.1,0,0.1,0,0.2,0c0.1,0,0.1,0,0.2,0l0.1,1.1c0,0-0.1,0-0.1,0s-0.1,0-0.1,0c-0.6,0-1.2,0-1.6,0.1
		c-0.4,0.1-0.9,0.2-1.3,0.4c-0.6,0.2-1,0.6-1.3,1.1c-0.3,0.5-0.5,1-0.5,1.6c0,0.7,0.2,1.2,0.5,1.7c0.3,0.5,0.7,0.8,1.2,1.1
		c0.4,0.2,0.9,0.3,1.4,0.4c0.5,0.1,1,0.1,1.6,0.1c0.1,0,0.2,0,0.3,0S119.2,88.3,119.3,88.3z"/>
	<path fill="#999999" d="M126.2,88.4l-0.2,1.1c0,0-0.1,0-0.3,0c-0.2,0-0.3,0-0.4,0c-1.2,0-2.1-0.2-2.7-0.7c-0.6-0.5-0.9-1.2-0.9-2.3
		c0-0.6,0-1.3,0-2c0-0.7,0-1.6,0-2.7h-1.4v-1h1.5v-2h1.2v2h3.1v1h-3.1c0,0.1,0,0.5,0,1.1c0,0.6,0,1,0,1.3c0,0.2,0,0.5,0,0.9
		c0,0.3,0,0.8,0,1.2c0,0.7,0.2,1.3,0.6,1.6c0.4,0.3,1,0.5,1.9,0.5c0.1,0,0.2,0,0.4,0C126.1,88.4,126.2,88.4,126.2,88.4z"/>
	<path fill="#999999" d="M133.1,86.9c0,0.4-0.1,0.8-0.3,1.1s-0.5,0.6-0.8,0.8c-0.3,0.2-0.8,0.4-1.2,0.5c-0.5,0.1-1,0.2-1.6,0.2
		c-0.3,0-0.6,0-0.9,0c-0.3,0-0.5,0-0.5,0l-0.1-1.1c0.1,0,0.2,0,0.6,0c0.3,0,0.7,0,1,0c0.2,0,0.5,0,0.8-0.1c0.3,0,0.6-0.1,0.8-0.2
		c0.3-0.1,0.5-0.3,0.6-0.5c0.1-0.2,0.2-0.4,0.2-0.7c0-0.2-0.1-0.4-0.2-0.6s-0.3-0.3-0.5-0.4c-0.2-0.2-0.5-0.3-0.9-0.5
		c-0.4-0.2-0.7-0.3-1-0.5c-0.4-0.2-0.7-0.5-0.9-0.8c-0.2-0.3-0.3-0.7-0.3-1.1c0-0.4,0.1-0.8,0.3-1.1c0.2-0.3,0.5-0.6,0.9-0.8
		c0.3-0.2,0.7-0.3,1.1-0.4c0.4-0.1,0.8-0.1,1.2-0.1c0.3,0,0.6,0,0.9,0c0.2,0,0.4,0,0.4,0l0.1,1.1c0,0-0.2,0-0.5,0c-0.3,0-0.7,0-1,0
		c-0.3,0-0.5,0-0.8,0.1c-0.2,0-0.4,0.1-0.6,0.2c-0.2,0.1-0.4,0.3-0.5,0.5c-0.1,0.2-0.2,0.3-0.2,0.5c0,0.2,0.1,0.4,0.2,0.6
		c0.1,0.2,0.3,0.3,0.5,0.4c0.2,0.1,0.6,0.3,1,0.5c0.4,0.2,0.7,0.3,0.9,0.5c0.4,0.3,0.7,0.5,0.9,0.8C133,86.1,133.1,86.5,133.1,86.9z
		"/>
</g>
</svg>
