<?xml version="1.0" encoding="utf-8"?>
<!-- Generator: Adobe Illustrator 18.1.1, SVG Export Plug-In . SVG Version: 6.00 Build 0)  -->
<svg version="1.1" id="Layer_1" xmlns="http://www.w3.org/2000/svg" xmlns:xlink="http://www.w3.org/1999/xlink" x="0px" y="0px"
	 viewBox="1.5 76.4 97.9 12.3" enable-background="new 1.5 76.4 97.9 12.3" xml:space="preserve">
<g enable-background="new    ">
	<path fill="#999999" d="M6.9,85.7c0,0-0.3,0-0.9,0c-0.5,0-1.2,0-2,0c-0.5,0-1,0-1.5,0c-0.5,0-0.8,0-1.1,0c0-0.2,0-0.8,0-1.6
		s0-1.7,0-2.6c0-0.5,0-1.1,0-1.9c0-0.8,0-1.6,0-2.5c0.3,0,0.7,0,1.1,0c0.5,0,0.9,0,1.4,0c0.8,0,1.5,0,2,0c0.5,0,0.8,0,0.8,0v0.9
		c0,0-0.3,0-0.8,0c-0.5,0-1.1,0-1.8,0c-0.3,0-0.6,0-0.9,0c-0.3,0-0.6,0-0.7,0c0,0.5,0,1,0,1.4c0,0.5,0,0.9,0,1.4c0.2,0,0.4,0,0.7,0
		c0.3,0,0.5,0,0.7,0c0.8,0,1.4,0,2,0c0.6,0,0.9,0,0.9,0v0.9c0,0-0.4,0-1.1,0c-0.7,0-1.3,0-1.8,0c-0.2,0-0.4,0-0.7,0
		c-0.3,0-0.5,0-0.7,0c0,0.8,0,1.4,0,1.9c0,0.5,0,0.9,0,1.2c0.3,0,0.6,0,0.9,0s0.7,0,1.2,0c0.6,0,1.2,0,1.6,0c0.4,0,0.7,0,0.7,0V85.7
		z"/>
	<path fill="#999999" d="M14.1,85.3l-0.8,0.6c0,0-0.2-0.3-0.6-0.9c-0.4-0.5-0.9-1.2-1.5-2h0c-0.6,0.7-1.1,1.3-1.5,1.9
		c-0.4,0.6-0.6,0.9-0.7,0.9l-0.7-0.6c0.1-0.1,0.3-0.4,0.8-0.9c0.5-0.5,1-1.2,1.6-1.9v0c-0.4-0.5-0.7-0.9-1.1-1.4
		c-0.3-0.4-0.7-0.9-1.1-1.4l0.8-0.6c0.3,0.4,0.6,0.8,1,1.3c0.3,0.5,0.7,0.9,1.1,1.4h0c0.3-0.4,0.6-0.8,1-1.3
		c0.3-0.4,0.7-0.9,1.1-1.4l0.7,0.5c-0.4,0.5-0.8,1-1.1,1.4c-0.3,0.4-0.7,0.8-1.1,1.3v0c0.6,0.8,1.2,1.5,1.6,2
		C13.8,85,14.1,85.3,14.1,85.3z"/>
	<path fill="#999999" d="M20.1,82.1c0,1.1,0,1.9,0,2.6c0,0.7,0,1,0,1.1c0,0-0.2,0-0.6,0c-0.4,0-0.8,0-1.4,0c-0.3,0-0.7,0-1.1-0.1
		c-0.4-0.1-0.7-0.2-0.9-0.3c-0.3-0.2-0.6-0.4-0.8-0.6c-0.2-0.3-0.3-0.6-0.3-1c0-0.4,0.1-0.8,0.4-1.1c0.2-0.3,0.6-0.5,1-0.7
		c0.3-0.1,0.6-0.2,1.1-0.3s1-0.2,1.6-0.2c0-0.3-0.1-0.6-0.2-0.8c-0.1-0.2-0.3-0.4-0.6-0.5c-0.2-0.1-0.4-0.1-0.6-0.2s-0.5,0-0.8,0
		c-0.2,0-0.4,0-0.5,0c-0.1,0-0.3,0-0.5,0l0.1-0.9c0.1,0,0.2,0,0.4,0c0.2,0,0.4,0,0.8,0c0.5,0,1,0.1,1.3,0.2s0.7,0.3,1,0.5
		c0.2,0.2,0.4,0.5,0.6,0.8C20.1,81,20.1,81.5,20.1,82.1z M19.1,83.6c0-0.1,0-0.3,0-0.6s0-0.5,0-0.8c-0.2,0-0.5,0-1,0.1
		c-0.5,0.1-0.9,0.2-1.2,0.3c-0.2,0.1-0.5,0.2-0.6,0.4c-0.2,0.2-0.3,0.4-0.3,0.7c0,0.3,0.1,0.5,0.2,0.7c0.2,0.2,0.4,0.3,0.6,0.4
		c0.2,0.1,0.4,0.1,0.7,0.2s0.5,0,0.8,0c0.1,0,0.2,0,0.3,0c0.1,0,0.3,0,0.4,0c0,0,0-0.2,0-0.4C19.1,84.4,19.1,84.1,19.1,83.6z"/>
	<path fill="#999999" d="M31.6,85.7h-1c0,0,0-0.3,0-0.9c0-0.5,0-1.1,0-1.6c0-0.2,0-0.5,0-0.9c0-0.4,0-0.8,0-1c0-0.5-0.1-0.9-0.3-1.1
		S29.8,80,29.4,80c-0.2,0-0.5,0.1-0.8,0.2s-0.7,0.3-1.1,0.5c0,0,0,0.1,0,0.1c0,0.1,0,0.1,0,0.2c0,0.3,0,0.7,0,1.1c0,0.4,0,0.7,0,1
		c0,0.7,0,1.3,0,1.8s0,0.7,0,0.8h-1c0,0,0-0.3,0-0.8c0-0.5,0-1,0-1.7c0-0.2,0-0.5,0-1c0-0.4,0-0.8,0-1c0-0.2,0-0.4-0.1-0.5
		c0-0.2-0.1-0.3-0.2-0.4c-0.1-0.1-0.2-0.2-0.3-0.3C25.8,80,25.6,80,25.3,80c-0.2,0-0.5,0.1-0.8,0.2c-0.3,0.1-0.7,0.3-1.1,0.6
		c0,0.1,0,0.3,0,0.8c0,0.5,0,0.9,0,1.2c0,0.5,0,1.1,0,1.8c0,0.7,0,1.1,0,1.1h-1c0,0,0-0.3,0-0.7c0-0.5,0-1.2,0-2.3
		c0-0.3,0-0.8,0-1.4c0-0.6,0-1.3,0-2h1l0,0.7l0,0c0.3-0.2,0.6-0.4,1.1-0.6s0.8-0.3,1.1-0.3c0.4,0,0.8,0.1,1,0.3
		c0.3,0.2,0.5,0.4,0.6,0.7h0c0.5-0.3,0.9-0.5,1.4-0.7c0.4-0.2,0.8-0.2,1.1-0.2c0.6,0,1,0.2,1.4,0.5c0.3,0.3,0.5,0.8,0.5,1.4
		c0,0.5,0,0.8,0,1.1s0,0.6,0,1c0,0.7,0,1.3,0,1.8S31.6,85.7,31.6,85.7z"/>
	<path fill="#999999" d="M39.4,82.3c0,0.7-0.1,1.2-0.4,1.7c-0.3,0.5-0.7,0.8-1.2,1.1c-0.4,0.2-0.9,0.4-1.4,0.5
		c-0.5,0.1-1,0.1-1.5,0.1l0,2.9h-1c0-0.1,0-0.7,0-1.8c0-1.1,0-2.2,0-3.3c0-0.6,0-1.2,0-1.9s0-1.5,0-2.4c0.1,0,0.3,0,0.4,0
		s0.2,0,0.3,0c0.9,0,1.6,0,2.1,0.1s0.9,0.3,1.4,0.5c0.4,0.3,0.8,0.6,1,1S39.4,81.8,39.4,82.3z M38.4,82.3c0-0.4-0.1-0.8-0.3-1.1
		s-0.5-0.6-0.8-0.7c-0.3-0.2-0.6-0.3-1-0.4C36,80.1,35.6,80,35.2,80c0,0-0.1,0-0.1,0s-0.1,0-0.1,0c0,0.1,0,0.3,0,0.8s0,1.2,0,2.2
		c0,0.2,0,0.5,0,0.9c0,0.4,0,0.7,0,1c0.4,0,0.8,0,1.2-0.1c0.4-0.1,0.7-0.2,1-0.3c0.4-0.2,0.8-0.5,1-0.8
		C38.3,83.3,38.4,82.9,38.4,82.3z"/>
	<path fill="#999999" d="M42.2,85.7h-1c0-0.1,0-0.7,0-1.9s0-2.2,0-3c0-0.5,0-1.1,0-1.9c0-0.8,0-1.6,0-2.6h1c0,0.7,0,1.4,0,2.3
		c0,0.9,0,1.6,0,2.2c0,1.3,0,2.4,0,3.4C42.2,85.2,42.2,85.7,42.2,85.7z"/>
	<path fill="#999999" d="M49.6,82.3H45c0,0.5,0.1,0.9,0.3,1.2c0.2,0.4,0.5,0.7,0.9,0.9c0.2,0.2,0.5,0.3,0.8,0.4
		c0.3,0.1,0.7,0.1,1.1,0.1c0.2,0,0.5,0,0.7,0c0.2,0,0.3,0,0.4,0l-0.1,0.9c0,0-0.1,0-0.3,0s-0.4,0-0.7,0c-0.7,0-1.3-0.1-1.8-0.3
		c-0.5-0.2-0.9-0.4-1.2-0.7c-0.3-0.3-0.5-0.6-0.7-1c-0.2-0.4-0.3-0.9-0.3-1.4c0-0.5,0.1-0.9,0.2-1.3s0.4-0.8,0.7-1.1
		c0.3-0.3,0.6-0.5,0.9-0.7c0.4-0.2,0.8-0.2,1.2-0.2c0.4,0,0.7,0.1,1.1,0.2c0.3,0.1,0.6,0.3,0.8,0.5c0.3,0.3,0.4,0.6,0.6,1
		C49.6,81.2,49.6,81.7,49.6,82.3z M48.6,81.6c-0.1-0.5-0.2-0.9-0.5-1.2c-0.3-0.3-0.7-0.5-1.2-0.5c-0.5,0-0.9,0.2-1.2,0.5
		c-0.3,0.3-0.5,0.7-0.7,1.2H48.6z"/>
	<path fill="#999999" d="M60.3,80.1c0,0.6-0.2,1.2-0.6,1.7c-0.4,0.5-0.9,0.8-1.6,1c-0.3,0.1-0.6,0.1-0.9,0.2S56.4,83,56,83l0,2.7
		h-1.1c0-0.3,0-0.7,0-1.4c0-0.7,0-1.8,0-3.2c0-0.5,0-1,0-1.7c0-0.7,0-1.4,0-2.2c0.2,0,0.4,0,0.5,0s0.3,0,0.4,0c0.7,0,1.4,0,1.9,0.1
		s1,0.3,1.3,0.5c0.4,0.2,0.7,0.6,0.9,1C60.2,79.1,60.3,79.6,60.3,80.1z M59.2,80.1c0-0.4-0.1-0.8-0.3-1.1c-0.2-0.3-0.5-0.6-0.9-0.7
		c-0.3-0.1-0.5-0.2-0.8-0.2c-0.3,0-0.6,0-0.9,0c0,0-0.1,0-0.1,0S56,78,56,78c0,0,0,0.4,0,1c0,0.6,0,1.1,0,1.4c0,0.3,0,0.7,0,1.1
		c0,0.4,0,0.7,0,0.7c0,0,0.1,0,0.1,0c0.1,0,0.1,0,0.1,0c0.3,0,0.6,0,0.9-0.1c0.3,0,0.6-0.1,0.8-0.2c0.4-0.2,0.7-0.4,0.9-0.7
		C59.1,80.9,59.2,80.6,59.2,80.1z"/>
	<path fill="#999999" d="M65.8,80c-0.2,0.1-0.6,0.2-1.1,0.4c-0.5,0.2-1,0.4-1.7,0.7c0,0,0,0.3,0,0.6c0,0.4,0,0.7,0,1.1
		c0,0.5,0,1.1,0,1.8c0,0.7,0,1.1,0,1.2h-1c0-0.1,0-0.3,0-0.7c0-0.4,0-1.1,0-2.1c0-0.4,0-1,0-1.7s0-1.4,0-2h1v1l0,0
		c0.5-0.3,1-0.5,1.4-0.7c0.5-0.2,0.8-0.3,1.1-0.4L65.8,80z"/>
	<path fill="#999999" d="M72.7,82.5c0,0.5-0.1,1-0.3,1.4s-0.4,0.8-0.8,1.2c-0.3,0.3-0.6,0.5-0.9,0.6c-0.3,0.1-0.7,0.2-1.2,0.2
		c-0.4,0-0.8-0.1-1.2-0.2s-0.7-0.3-1-0.6c-0.3-0.3-0.6-0.7-0.8-1.2c-0.2-0.5-0.3-0.9-0.3-1.4c0-0.5,0.1-0.9,0.2-1.4
		c0.2-0.4,0.4-0.8,0.7-1.1c0.3-0.3,0.6-0.5,1-0.7s0.8-0.2,1.2-0.2c0.4,0,0.8,0.1,1.2,0.2c0.4,0.1,0.7,0.4,1,0.7
		c0.3,0.3,0.6,0.7,0.7,1.1C72.7,81.5,72.7,82,72.7,82.5z M71.7,82.5c0-0.4-0.1-0.8-0.2-1.2c-0.1-0.4-0.3-0.7-0.6-1
		c-0.2-0.2-0.4-0.3-0.6-0.4c-0.2-0.1-0.5-0.1-0.7-0.1c-0.3,0-0.6,0-0.8,0.1c-0.2,0.1-0.4,0.2-0.6,0.4c-0.2,0.2-0.4,0.5-0.5,0.9
		s-0.2,0.7-0.2,1.1c0,0.4,0.1,0.8,0.2,1.2c0.1,0.4,0.3,0.7,0.6,0.9c0.2,0.1,0.4,0.3,0.6,0.3c0.2,0.1,0.4,0.1,0.7,0.1
		c0.3,0,0.5,0,0.8-0.1c0.2-0.1,0.4-0.2,0.6-0.4c0.2-0.2,0.4-0.5,0.6-0.9S71.7,82.9,71.7,82.5z"/>
	<path fill="#999999" d="M75.7,85.7c0,0.4-0.1,0.8-0.2,1.1s-0.3,0.7-0.6,0.9c-0.2,0.2-0.5,0.4-0.9,0.6c-0.4,0.2-0.8,0.3-1.4,0.3
		l-0.2-0.8c0.4,0,0.8-0.1,1.1-0.2s0.6-0.2,0.7-0.4c0.2-0.2,0.3-0.4,0.4-0.7c0.1-0.3,0.1-0.6,0.1-1.1c0-1.1,0-2.4,0-3.9
		c0-1.5,0-2.3,0-2.3h1c0,0.1,0,0.4,0,1c0,0.6,0,1.3,0,2.2c0,0.5,0,1.1,0,1.7C75.7,84.7,75.7,85.2,75.7,85.7z M75.8,78h-1.1v-1.1h1.1
		V78z"/>
	<path fill="#999999" d="M83,82.3h-4.6c0,0.5,0.1,0.9,0.3,1.2s0.5,0.7,0.9,0.9c0.2,0.2,0.5,0.3,0.8,0.4c0.3,0.1,0.7,0.1,1.1,0.1
		c0.2,0,0.5,0,0.7,0c0.2,0,0.3,0,0.4,0l-0.1,0.9c0,0-0.1,0-0.3,0c-0.2,0-0.4,0-0.7,0c-0.7,0-1.3-0.1-1.8-0.3
		c-0.5-0.2-0.9-0.4-1.2-0.7c-0.3-0.3-0.5-0.6-0.7-1c-0.2-0.4-0.3-0.9-0.3-1.4c0-0.5,0.1-0.9,0.2-1.3s0.4-0.8,0.7-1.1
		c0.3-0.3,0.6-0.5,0.9-0.7c0.4-0.2,0.8-0.2,1.2-0.2c0.4,0,0.7,0.1,1.1,0.2c0.3,0.1,0.6,0.3,0.8,0.5c0.3,0.3,0.4,0.6,0.6,1
		C83,81.2,83,81.7,83,82.3z M82.1,81.6c-0.1-0.5-0.2-0.9-0.5-1.2c-0.3-0.3-0.7-0.5-1.2-0.5c-0.5,0-0.9,0.2-1.2,0.5
		c-0.3,0.3-0.5,0.7-0.7,1.2H82.1z"/>
	<path fill="#999999" d="M89,84.9l-0.1,0.9c0,0-0.1,0-0.2,0c-0.1,0-0.1,0-0.2,0c-0.6,0-1.1-0.1-1.5-0.2c-0.5-0.1-0.9-0.3-1.3-0.5
		c-0.5-0.3-0.9-0.7-1.2-1.1c-0.3-0.5-0.4-1-0.4-1.6c0-0.5,0.1-1,0.4-1.4s0.6-0.8,1-1.1c0.4-0.2,0.8-0.4,1.4-0.6
		c0.5-0.1,1.1-0.2,1.7-0.2c0,0,0.1,0,0.1,0s0.1,0,0.1,0l0.1,0.9c0,0-0.1,0-0.1,0s-0.1,0-0.1,0c-0.5,0-0.9,0-1.2,0.1s-0.7,0.2-1,0.3
		c-0.4,0.2-0.8,0.4-1,0.8c-0.2,0.4-0.4,0.8-0.4,1.2c0,0.5,0.1,0.9,0.3,1.3c0.2,0.3,0.5,0.6,0.9,0.8c0.3,0.1,0.6,0.2,1,0.3
		c0.4,0.1,0.8,0.1,1.2,0.1c0.1,0,0.1,0,0.2,0C88.9,84.9,89,84.9,89,84.9z"/>
	<path fill="#999999" d="M94.2,84.9l-0.1,0.8c0,0-0.1,0-0.2,0c-0.1,0-0.2,0-0.3,0c-0.9,0-1.5-0.2-2-0.5s-0.7-0.9-0.7-1.7
		c0-0.5,0-1,0-1.5c0-0.5,0-1.2,0-2h-1.1v-0.7H91v-1.5h0.9v1.5h2.3V80h-2.3c0,0.1,0,0.4,0,0.8c0,0.4,0,0.8,0,1c0,0.2,0,0.4,0,0.7
		c0,0.3,0,0.6,0,0.9c0,0.6,0.1,1,0.4,1.2s0.8,0.4,1.4,0.4c0.1,0,0.2,0,0.3,0C94.1,85,94.2,84.9,94.2,84.9z"/>
	<path fill="#999999" d="M99.4,83.9c0,0.3-0.1,0.6-0.2,0.8c-0.2,0.2-0.4,0.4-0.6,0.6c-0.3,0.2-0.6,0.3-0.9,0.4
		c-0.4,0.1-0.8,0.1-1.2,0.1c-0.2,0-0.4,0-0.7,0s-0.4,0-0.4,0l0-0.8c0,0,0.2,0,0.4,0c0.3,0,0.5,0,0.8,0c0.1,0,0.3,0,0.6,0
		c0.2,0,0.4-0.1,0.6-0.1c0.2-0.1,0.4-0.2,0.5-0.3c0.1-0.1,0.2-0.3,0.2-0.5c0-0.2,0-0.3-0.1-0.4c-0.1-0.1-0.2-0.2-0.4-0.3
		c-0.2-0.1-0.4-0.2-0.7-0.4c-0.3-0.1-0.5-0.3-0.7-0.4c-0.3-0.2-0.5-0.4-0.7-0.6c-0.2-0.2-0.2-0.5-0.2-0.8c0-0.3,0.1-0.6,0.3-0.9
		c0.2-0.3,0.4-0.5,0.7-0.6c0.3-0.1,0.5-0.2,0.8-0.3s0.6-0.1,0.9-0.1c0.3,0,0.5,0,0.6,0c0.2,0,0.3,0,0.3,0l0.1,0.9c0,0-0.2,0-0.4,0
		c-0.2,0-0.5,0-0.8,0c-0.2,0-0.4,0-0.6,0.1c-0.2,0-0.3,0.1-0.5,0.1c-0.2,0.1-0.3,0.2-0.4,0.3s-0.1,0.3-0.1,0.4
		c0,0.2,0.1,0.3,0.2,0.4c0.1,0.1,0.2,0.2,0.4,0.3c0.2,0.1,0.4,0.2,0.7,0.4s0.5,0.3,0.7,0.3c0.3,0.2,0.5,0.4,0.7,0.6
		S99.4,83.6,99.4,83.9z"/>
</g>
</svg>
