<?xml version="1.0" encoding="utf-8"?>
<!-- Generator: Adobe Illustrator 18.1.1, SVG Export Plug-In . SVG Version: 6.00 Build 0)  -->
<svg version="1.1" id="Layer_1" xmlns="http://www.w3.org/2000/svg" xmlns:xlink="http://www.w3.org/1999/xlink" x="0px" y="0px"
	 viewBox="0 158.9 100 16" enable-background="new 0 158.9 100 16" xml:space="preserve">
<g enable-background="new    ">
	<path fill="#999999" d="M6.9,169.7c0,0-0.3,0-0.9,0c-0.5,0-1.2,0-2,0c-0.5,0-1,0-1.5,0c-0.5,0-0.8,0-1.1,0c0-0.2,0-0.8,0-1.6
		s0-1.7,0-2.6c0-0.5,0-1.1,0-1.9c0-0.8,0-1.6,0-2.5c0.3,0,0.7,0,1.1,0c0.5,0,0.9,0,1.4,0c0.8,0,1.5,0,2,0c0.5,0,0.8,0,0.8,0v0.9
		c0,0-0.3,0-0.8,0c-0.5,0-1.1,0-1.8,0c-0.3,0-0.6,0-0.9,0c-0.3,0-0.6,0-0.7,0c0,0.5,0,1,0,1.4c0,0.5,0,0.9,0,1.4c0.2,0,0.4,0,0.7,0
		c0.3,0,0.5,0,0.7,0c0.8,0,1.4,0,2,0c0.6,0,0.9,0,0.9,0v0.9c0,0-0.4,0-1.1,0c-0.7,0-1.3,0-1.8,0c-0.2,0-0.4,0-0.7,0
		c-0.3,0-0.5,0-0.7,0c0,0.8,0,1.4,0,1.9c0,0.5,0,0.9,0,1.2c0.3,0,0.6,0,0.9,0s0.7,0,1.2,0c0.6,0,1.2,0,1.6,0c0.4,0,0.7,0,0.7,0
		V169.7z"/>
	<path fill="#999999" d="M14.1,169.3l-0.8,0.6c0,0-0.2-0.3-0.6-0.9c-0.4-0.5-0.9-1.2-1.5-2h0c-0.6,0.7-1.1,1.3-1.5,1.9
		c-0.4,0.6-0.6,0.9-0.7,0.9l-0.7-0.6c0.1-0.1,0.3-0.4,0.8-0.9c0.5-0.5,1-1.2,1.6-1.9v0c-0.4-0.5-0.7-0.9-1.1-1.4
		c-0.3-0.4-0.7-0.9-1.1-1.4l0.8-0.6c0.3,0.4,0.6,0.8,1,1.3c0.3,0.5,0.7,0.9,1.1,1.4h0c0.3-0.4,0.6-0.8,1-1.3
		c0.3-0.4,0.7-0.9,1.1-1.4l0.7,0.5c-0.4,0.5-0.8,1-1.1,1.4c-0.3,0.4-0.7,0.8-1.1,1.3v0c0.6,0.8,1.2,1.5,1.6,2
		C13.8,169,14.1,169.3,14.1,169.3z"/>
	<path fill="#999999" d="M20.1,166.1c0,1.1,0,1.9,0,2.6c0,0.7,0,1,0,1.1c0,0-0.2,0-0.6,0c-0.4,0-0.8,0-1.4,0c-0.3,0-0.7,0-1.1-0.1
		c-0.4-0.1-0.7-0.2-0.9-0.3c-0.3-0.2-0.6-0.4-0.8-0.6c-0.2-0.3-0.3-0.6-0.3-1c0-0.4,0.1-0.8,0.4-1.1c0.2-0.3,0.6-0.5,1-0.7
		c0.3-0.1,0.6-0.2,1.1-0.3s1-0.2,1.6-0.2c0-0.3-0.1-0.6-0.2-0.8c-0.1-0.2-0.3-0.4-0.6-0.5c-0.2-0.1-0.4-0.1-0.6-0.2s-0.5,0-0.8,0
		c-0.2,0-0.4,0-0.5,0c-0.1,0-0.3,0-0.5,0l0.1-0.9c0.1,0,0.2,0,0.4,0c0.2,0,0.4,0,0.8,0c0.5,0,1,0.1,1.3,0.2c0.4,0.1,0.7,0.3,1,0.5
		c0.2,0.2,0.4,0.5,0.6,0.8C20.1,165,20.1,165.5,20.1,166.1z M19.1,167.6c0-0.1,0-0.3,0-0.6s0-0.5,0-0.8c-0.2,0-0.5,0-1,0.1
		c-0.5,0.1-0.9,0.2-1.2,0.3c-0.2,0.1-0.5,0.2-0.6,0.4c-0.2,0.2-0.3,0.4-0.3,0.7c0,0.3,0.1,0.5,0.2,0.7c0.2,0.2,0.4,0.3,0.6,0.4
		c0.2,0.1,0.4,0.1,0.7,0.2s0.5,0,0.8,0c0.1,0,0.2,0,0.3,0c0.1,0,0.3,0,0.4,0c0,0,0-0.2,0-0.4C19.1,168.4,19.1,168.1,19.1,167.6z"/>
	<path fill="#999999" d="M31.6,169.7h-1c0,0,0-0.3,0-0.9c0-0.5,0-1.1,0-1.6c0-0.2,0-0.5,0-0.9c0-0.4,0-0.8,0-1
		c0-0.5-0.1-0.9-0.3-1.1s-0.5-0.3-0.9-0.3c-0.2,0-0.5,0.1-0.8,0.2s-0.7,0.3-1.1,0.5c0,0,0,0.1,0,0.1c0,0.1,0,0.1,0,0.2
		c0,0.3,0,0.7,0,1.1c0,0.4,0,0.7,0,1c0,0.7,0,1.3,0,1.8s0,0.7,0,0.8h-1c0,0,0-0.3,0-0.8c0-0.5,0-1,0-1.7c0-0.2,0-0.5,0-1
		c0-0.4,0-0.8,0-1c0-0.2,0-0.4-0.1-0.5c0-0.2-0.1-0.3-0.2-0.4c-0.1-0.1-0.2-0.2-0.3-0.3c-0.1-0.1-0.3-0.1-0.6-0.1
		c-0.2,0-0.5,0.1-0.8,0.2c-0.3,0.1-0.7,0.3-1.1,0.6c0,0.1,0,0.3,0,0.8c0,0.5,0,0.9,0,1.2c0,0.5,0,1.1,0,1.8c0,0.7,0,1.1,0,1.1h-1
		c0,0,0-0.3,0-0.7c0-0.5,0-1.2,0-2.3c0-0.3,0-0.8,0-1.4c0-0.6,0-1.3,0-2h1l0,0.7l0,0c0.3-0.2,0.6-0.4,1.1-0.6s0.8-0.3,1.1-0.3
		c0.4,0,0.8,0.1,1,0.3c0.3,0.2,0.5,0.4,0.6,0.7h0c0.5-0.3,0.9-0.5,1.4-0.7c0.4-0.2,0.8-0.2,1.1-0.2c0.6,0,1,0.2,1.4,0.5
		c0.3,0.3,0.5,0.8,0.5,1.4c0,0.5,0,0.8,0,1.1s0,0.6,0,1c0,0.7,0,1.3,0,1.8S31.6,169.7,31.6,169.7z"/>
	<path fill="#999999" d="M39.4,166.3c0,0.7-0.1,1.2-0.4,1.7c-0.3,0.5-0.7,0.8-1.2,1.1c-0.4,0.2-0.9,0.4-1.4,0.5
		c-0.5,0.1-1,0.1-1.5,0.1l0,2.9h-1c0-0.1,0-0.7,0-1.8c0-1.1,0-2.2,0-3.3c0-0.6,0-1.2,0-1.9s0-1.5,0-2.4c0.1,0,0.3,0,0.4,0
		s0.2,0,0.3,0c0.9,0,1.6,0,2.1,0.1c0.5,0.1,0.9,0.3,1.4,0.5c0.4,0.3,0.8,0.6,1,1S39.4,165.8,39.4,166.3z M38.4,166.3
		c0-0.4-0.1-0.8-0.3-1.1s-0.5-0.6-0.8-0.7c-0.3-0.2-0.6-0.3-1-0.4c-0.4-0.1-0.8-0.1-1.2-0.1c0,0-0.1,0-0.1,0s-0.1,0-0.1,0
		c0,0.1,0,0.3,0,0.8s0,1.2,0,2.2c0,0.2,0,0.5,0,0.9c0,0.4,0,0.7,0,1c0.4,0,0.8,0,1.2-0.1c0.4-0.1,0.7-0.2,1-0.3
		c0.4-0.2,0.8-0.5,1-0.8C38.3,167.3,38.4,166.9,38.4,166.3z"/>
	<path fill="#999999" d="M42.2,169.7h-1c0-0.1,0-0.7,0-1.9s0-2.2,0-3c0-0.5,0-1.1,0-1.9c0-0.8,0-1.6,0-2.6h1c0,0.7,0,1.4,0,2.3
		c0,0.9,0,1.6,0,2.2c0,1.3,0,2.4,0,3.4C42.2,169.2,42.2,169.7,42.2,169.7z"/>
	<path fill="#999999" d="M49.6,166.3H45c0,0.5,0.1,0.9,0.3,1.2c0.2,0.4,0.5,0.7,0.9,0.9c0.2,0.2,0.5,0.3,0.8,0.4
		c0.3,0.1,0.7,0.1,1.1,0.1c0.2,0,0.5,0,0.7,0c0.2,0,0.3,0,0.4,0l-0.1,0.9c0,0-0.1,0-0.3,0s-0.4,0-0.7,0c-0.7,0-1.3-0.1-1.8-0.3
		c-0.5-0.2-0.9-0.4-1.2-0.7c-0.3-0.3-0.5-0.6-0.7-1c-0.2-0.4-0.3-0.9-0.3-1.4c0-0.5,0.1-0.9,0.2-1.3s0.4-0.8,0.7-1.1
		c0.3-0.3,0.6-0.5,0.9-0.7c0.4-0.2,0.8-0.2,1.2-0.2c0.4,0,0.7,0.1,1.1,0.2c0.3,0.1,0.6,0.3,0.8,0.5c0.3,0.3,0.4,0.6,0.6,1
		C49.6,165.2,49.6,165.7,49.6,166.3z M48.6,165.6c-0.1-0.5-0.2-0.9-0.5-1.2c-0.3-0.3-0.7-0.5-1.2-0.5c-0.5,0-0.9,0.2-1.2,0.5
		c-0.3,0.3-0.5,0.7-0.7,1.2H48.6z"/>
	<path fill="#999999" d="M60.3,164.1c0,0.6-0.2,1.2-0.6,1.7c-0.4,0.5-0.9,0.8-1.6,1c-0.3,0.1-0.6,0.1-0.9,0.2S56.4,167,56,167l0,2.7
		h-1.1c0-0.3,0-0.7,0-1.4c0-0.7,0-1.8,0-3.2c0-0.5,0-1,0-1.7c0-0.7,0-1.4,0-2.2c0.2,0,0.4,0,0.5,0s0.3,0,0.4,0c0.7,0,1.4,0,1.9,0.1
		s1,0.3,1.3,0.5c0.4,0.2,0.7,0.6,0.9,1C60.2,163.1,60.3,163.6,60.3,164.1z M59.2,164.1c0-0.4-0.1-0.8-0.3-1.1
		c-0.2-0.3-0.5-0.6-0.9-0.7c-0.3-0.1-0.5-0.2-0.8-0.2c-0.3,0-0.6,0-0.9,0c0,0-0.1,0-0.1,0s-0.1,0-0.1,0c0,0,0,0.4,0,1
		c0,0.6,0,1.1,0,1.4c0,0.3,0,0.7,0,1.1c0,0.4,0,0.7,0,0.7c0,0,0.1,0,0.1,0c0.1,0,0.1,0,0.1,0c0.3,0,0.6,0,0.9-0.1
		c0.3,0,0.6-0.1,0.8-0.2c0.4-0.2,0.7-0.4,0.9-0.7C59.1,164.9,59.2,164.6,59.2,164.1z"/>
	<path fill="#999999" d="M65.8,164c-0.2,0.1-0.6,0.2-1.1,0.4c-0.5,0.2-1,0.4-1.7,0.7c0,0,0,0.3,0,0.6c0,0.4,0,0.7,0,1.1
		c0,0.5,0,1.1,0,1.8c0,0.7,0,1.1,0,1.2h-1c0-0.1,0-0.3,0-0.7c0-0.4,0-1.1,0-2.1c0-0.4,0-1,0-1.7s0-1.4,0-2h1v1l0,0
		c0.5-0.3,1-0.5,1.4-0.7c0.5-0.2,0.8-0.3,1.1-0.4L65.8,164z"/>
	<path fill="#999999" d="M72.7,166.5c0,0.5-0.1,1-0.3,1.4s-0.4,0.8-0.8,1.2c-0.3,0.3-0.6,0.5-0.9,0.6c-0.3,0.1-0.7,0.2-1.2,0.2
		c-0.4,0-0.8-0.1-1.2-0.2s-0.7-0.3-1-0.6c-0.3-0.3-0.6-0.7-0.8-1.2c-0.2-0.5-0.3-0.9-0.3-1.4c0-0.5,0.1-0.9,0.2-1.4
		c0.2-0.4,0.4-0.8,0.7-1.1c0.3-0.3,0.6-0.5,1-0.7s0.8-0.2,1.2-0.2c0.4,0,0.8,0.1,1.2,0.2c0.4,0.1,0.7,0.4,1,0.7
		c0.3,0.3,0.6,0.7,0.7,1.1C72.7,165.5,72.7,166,72.7,166.5z M71.7,166.5c0-0.4-0.1-0.8-0.2-1.2c-0.1-0.4-0.3-0.7-0.6-1
		c-0.2-0.2-0.4-0.3-0.6-0.4c-0.2-0.1-0.5-0.1-0.7-0.1c-0.3,0-0.6,0-0.8,0.1c-0.2,0.1-0.4,0.2-0.6,0.4c-0.2,0.2-0.4,0.5-0.5,0.9
		s-0.2,0.7-0.2,1.1c0,0.4,0.1,0.8,0.2,1.2c0.1,0.4,0.3,0.7,0.6,0.9c0.2,0.1,0.4,0.3,0.6,0.3c0.2,0.1,0.4,0.1,0.7,0.1
		c0.3,0,0.5,0,0.8-0.1c0.2-0.1,0.4-0.2,0.6-0.4c0.2-0.2,0.4-0.5,0.6-0.9S71.7,166.9,71.7,166.5z"/>
	<path fill="#999999" d="M75.7,169.7c0,0.4-0.1,0.8-0.2,1.1s-0.3,0.7-0.6,0.9c-0.2,0.2-0.5,0.4-0.9,0.6c-0.4,0.2-0.8,0.3-1.4,0.3
		l-0.2-0.8c0.4,0,0.8-0.1,1.1-0.2s0.6-0.2,0.7-0.4c0.2-0.2,0.3-0.4,0.4-0.7c0.1-0.3,0.1-0.6,0.1-1.1c0-1.1,0-2.4,0-3.9
		c0-1.5,0-2.3,0-2.3h1c0,0.1,0,0.4,0,1c0,0.6,0,1.3,0,2.2c0,0.5,0,1.1,0,1.7C75.7,168.7,75.7,169.2,75.7,169.7z M75.8,162h-1.1v-1.1
		h1.1V162z"/>
	<path fill="#999999" d="M83,166.3h-4.6c0,0.5,0.1,0.9,0.3,1.2s0.5,0.7,0.9,0.9c0.2,0.2,0.5,0.3,0.8,0.4c0.3,0.1,0.7,0.1,1.1,0.1
		c0.2,0,0.5,0,0.7,0c0.2,0,0.3,0,0.4,0l-0.1,0.9c0,0-0.1,0-0.3,0c-0.2,0-0.4,0-0.7,0c-0.7,0-1.3-0.1-1.8-0.3
		c-0.5-0.2-0.9-0.4-1.2-0.7c-0.3-0.3-0.5-0.6-0.7-1c-0.2-0.4-0.3-0.9-0.3-1.4c0-0.5,0.1-0.9,0.2-1.3s0.4-0.8,0.7-1.1
		c0.3-0.3,0.6-0.5,0.9-0.7c0.4-0.2,0.8-0.2,1.2-0.2c0.4,0,0.7,0.1,1.1,0.2c0.3,0.1,0.6,0.3,0.8,0.5c0.3,0.3,0.4,0.6,0.6,1
		C83,165.2,83,165.7,83,166.3z M82.1,165.6c-0.1-0.5-0.2-0.9-0.5-1.2c-0.3-0.3-0.7-0.5-1.2-0.5c-0.5,0-0.9,0.2-1.2,0.5
		c-0.3,0.3-0.5,0.7-0.7,1.2H82.1z"/>
	<path fill="#999999" d="M89,168.9l-0.1,0.9c0,0-0.1,0-0.2,0c-0.1,0-0.1,0-0.2,0c-0.6,0-1.1-0.1-1.5-0.2c-0.5-0.1-0.9-0.3-1.3-0.5
		c-0.5-0.3-0.9-0.7-1.2-1.1c-0.3-0.5-0.4-1-0.4-1.6c0-0.5,0.1-1,0.4-1.4s0.6-0.8,1-1.1c0.4-0.2,0.8-0.4,1.4-0.6
		c0.5-0.1,1.1-0.2,1.7-0.2c0,0,0.1,0,0.1,0s0.1,0,0.1,0l0.1,0.9c0,0-0.1,0-0.1,0s-0.1,0-0.1,0c-0.5,0-0.9,0-1.2,0.1s-0.7,0.2-1,0.3
		c-0.4,0.2-0.8,0.4-1,0.8c-0.2,0.4-0.4,0.8-0.4,1.2c0,0.5,0.1,0.9,0.3,1.3c0.2,0.3,0.5,0.6,0.9,0.8c0.3,0.1,0.6,0.2,1,0.3
		c0.4,0.1,0.8,0.1,1.2,0.1c0.1,0,0.1,0,0.2,0C88.9,168.9,89,168.9,89,168.9z"/>
	<path fill="#999999" d="M94.2,168.9l-0.1,0.8c0,0-0.1,0-0.2,0c-0.1,0-0.2,0-0.3,0c-0.9,0-1.5-0.2-2-0.5s-0.7-0.9-0.7-1.7
		c0-0.5,0-1,0-1.5c0-0.5,0-1.2,0-2h-1.1v-0.7H91v-1.5h0.9v1.5h2.3v0.7h-2.3c0,0.1,0,0.4,0,0.8c0,0.4,0,0.8,0,1c0,0.2,0,0.4,0,0.7
		c0,0.3,0,0.6,0,0.9c0,0.6,0.1,1,0.4,1.2s0.8,0.4,1.4,0.4c0.1,0,0.2,0,0.3,0C94.1,169,94.2,168.9,94.2,168.9z"/>
	<path fill="#999999" d="M99.4,167.9c0,0.3-0.1,0.6-0.2,0.8c-0.2,0.2-0.4,0.4-0.6,0.6c-0.3,0.2-0.6,0.3-0.9,0.4
		c-0.4,0.1-0.8,0.1-1.2,0.1c-0.2,0-0.4,0-0.7,0s-0.4,0-0.4,0l0-0.8c0,0,0.2,0,0.4,0c0.3,0,0.5,0,0.8,0c0.1,0,0.3,0,0.6,0
		c0.2,0,0.4-0.1,0.6-0.1c0.2-0.1,0.4-0.2,0.5-0.3c0.1-0.1,0.2-0.3,0.2-0.5c0-0.2,0-0.3-0.1-0.4c-0.1-0.1-0.2-0.2-0.4-0.3
		c-0.2-0.1-0.4-0.2-0.7-0.4c-0.3-0.1-0.5-0.3-0.7-0.4c-0.3-0.2-0.5-0.4-0.7-0.6c-0.2-0.2-0.2-0.5-0.2-0.8c0-0.3,0.1-0.6,0.3-0.9
		c0.2-0.3,0.4-0.5,0.7-0.6c0.3-0.1,0.5-0.2,0.8-0.3s0.6-0.1,0.9-0.1c0.3,0,0.5,0,0.6,0c0.2,0,0.3,0,0.3,0l0.1,0.9c0,0-0.2,0-0.4,0
		c-0.2,0-0.5,0-0.8,0c-0.2,0-0.4,0-0.6,0.1c-0.2,0-0.3,0.1-0.5,0.1c-0.2,0.1-0.3,0.2-0.4,0.3s-0.1,0.3-0.1,0.4
		c0,0.2,0.1,0.3,0.2,0.4c0.1,0.1,0.2,0.2,0.4,0.3c0.2,0.1,0.4,0.2,0.7,0.4s0.5,0.3,0.7,0.3c0.3,0.2,0.5,0.4,0.7,0.6
		S99.4,167.6,99.4,167.9z"/>
</g>
</svg>
