<?xml version="1.0" encoding="utf-8"?>
<!-- Generator: Adobe Illustrator 18.1.1, SVG Export Plug-In . SVG Version: 6.00 Build 0)  -->
<svg version="1.1" id="Layer_1" xmlns="http://www.w3.org/2000/svg" xmlns:xlink="http://www.w3.org/1999/xlink" x="0px" y="0px"
	 viewBox="0.4 38.2 97.2 15.4" enable-background="new 0.4 38.2 97.2 15.4" xml:space="preserve">
<g enable-background="new    ">
	<path fill="#4E4E4F" d="M6.8,38.6h0.4l6.4,14.8h-0.5l-2.3-5.3H3.2l-2.3,5.3H0.4L6.8,38.6z M10.7,47.7L7,39.2l-3.7,8.5H10.7z"/>
	<path fill="#4E4E4F" d="M20.5,53.7c-0.4,0-0.9-0.1-1.3-0.2c-0.4-0.1-0.8-0.3-1.2-0.5s-0.7-0.5-1-0.8c-0.3-0.3-0.6-0.6-0.8-1v2.3
		h-0.4V38.2h0.4v6.9c0.6-0.8,1.2-1.4,1.9-1.9c0.7-0.5,1.6-0.8,2.5-0.8c0.8,0,1.5,0.2,2.1,0.5c0.6,0.3,1.2,0.8,1.6,1.3
		c0.4,0.5,0.8,1.1,1,1.8s0.3,1.3,0.3,2c0,0.7-0.1,1.4-0.4,2.1s-0.6,1.3-1.1,1.8c-0.5,0.5-1,0.9-1.7,1.2
		C21.9,53.5,21.2,53.7,20.5,53.7z M20.5,53.2c0.7,0,1.3-0.1,1.9-0.4c0.6-0.3,1.1-0.7,1.5-1.2s0.8-1,1-1.7c0.2-0.6,0.4-1.2,0.4-1.9
		c0-0.7-0.1-1.3-0.3-1.9c-0.2-0.6-0.5-1.2-1-1.7c-0.4-0.5-0.9-0.9-1.5-1.2c-0.6-0.3-1.2-0.4-1.9-0.4c-0.5,0-1,0.1-1.5,0.3
		s-0.9,0.4-1.2,0.7c-0.4,0.3-0.7,0.6-1,1c-0.3,0.4-0.5,0.8-0.8,1.2V50c0,0.4,0.2,0.9,0.5,1.3c0.3,0.4,0.6,0.7,1.1,1
		c0.4,0.3,0.9,0.5,1.4,0.7C19.6,53.1,20.1,53.2,20.5,53.2z"/>
	<path fill="#4E4E4F" d="M32.8,53.7c-0.7,0-1.4-0.2-2-0.4c-0.6-0.3-1.2-0.7-1.6-1.2c-0.5-0.5-0.8-1.1-1.1-1.8s-0.4-1.4-0.4-2.1
		c0-0.8,0.1-1.5,0.4-2.2c0.3-0.7,0.6-1.3,1.1-1.8c0.5-0.5,1-0.9,1.6-1.2c0.6-0.3,1.3-0.4,2-0.4s1.4,0.1,2,0.4
		c0.6,0.3,1.2,0.7,1.6,1.2c0.5,0.5,0.8,1.1,1.1,1.8c0.3,0.7,0.4,1.4,0.4,2.2c0,0.8-0.1,1.5-0.4,2.1s-0.6,1.3-1.1,1.8
		c-0.5,0.5-1,0.9-1.6,1.2C34.1,53.5,33.5,53.7,32.8,53.7z M28,48.1c0,0.7,0.1,1.4,0.4,2s0.6,1.2,1,1.6c0.4,0.5,0.9,0.8,1.5,1.1
		c0.6,0.3,1.2,0.4,1.8,0.4c0.6,0,1.2-0.1,1.8-0.4c0.6-0.3,1.1-0.7,1.5-1.1c0.4-0.5,0.8-1,1-1.6s0.4-1.3,0.4-2c0-0.7-0.1-1.4-0.4-2
		c-0.3-0.6-0.6-1.2-1-1.6c-0.4-0.5-0.9-0.8-1.5-1.1c-0.6-0.3-1.2-0.4-1.8-0.4s-1.2,0.1-1.8,0.4c-0.6,0.3-1.1,0.7-1.5,1.1
		c-0.4,0.5-0.8,1-1,1.7S28,47.4,28,48.1z"/>
	<path fill="#4E4E4F" d="M44,53.7c-2.3,0-3.5-1.7-3.5-5v-6.1h0.4v6.1c0,3,1,4.5,3.1,4.5c0.5,0,1-0.1,1.5-0.3c0.5-0.2,1-0.4,1.4-0.8
		s0.8-0.7,1.1-1.2c0.3-0.5,0.6-1,0.7-1.5v-6.9h0.4v10c0,0.3,0.1,0.4,0.3,0.4v0.4c-0.2,0-0.3,0-0.3,0c-0.1-0.1-0.3-0.2-0.3-0.3
		c-0.1-0.1-0.1-0.3-0.1-0.5v-1.9c-0.5,0.9-1.1,1.6-2,2.2C45.9,53.4,45,53.7,44,53.7z"/>
	<path fill="#4E4E4F" d="M56.9,52.9c-0.2,0.1-0.4,0.2-0.6,0.3s-0.4,0.1-0.6,0.2c-0.2,0.1-0.5,0.1-0.8,0.1c-0.5,0-0.9-0.2-1.3-0.5
		c-0.4-0.3-0.6-0.7-0.6-1.2V43h-1.6v-0.4H53v-3.8h0.4v3.8H56V43h-2.6v8.9c0,0.4,0.2,0.7,0.5,0.9s0.6,0.3,1,0.3c0.2,0,0.5,0,0.7-0.1
		c0.2,0,0.4-0.1,0.6-0.2c0.2-0.1,0.3-0.1,0.4-0.2c0.1-0.1,0.1-0.1,0.2-0.1L56.9,52.9z"/>
	<path fill="#4E4E4F" d="M83.9,53.4V39.5l-6.6,11H77l-6.6-11v13.9H70V38.6h0.3L77.2,50L84,38.6h0.3v14.8H83.9z"/>
	<path fill="#4E4E4F" d="M92.4,53.7c-0.7,0-1.4-0.2-2-0.4s-1.2-0.7-1.7-1.2c-0.5-0.5-0.8-1.1-1.1-1.8c-0.3-0.7-0.4-1.4-0.4-2.2
		c0-0.8,0.1-1.5,0.4-2.2s0.6-1.3,1.1-1.8c0.5-0.5,1-0.9,1.6-1.2c0.6-0.3,1.3-0.4,2-0.4c0.7,0,1.4,0.1,2,0.4c0.6,0.3,1.2,0.7,1.6,1.2
		s0.8,1.1,1.1,1.8s0.4,1.4,0.4,2.2v0.2h-9.9c0.1,0.7,0.2,1.3,0.5,2s0.6,1.1,1.1,1.6c0.4,0.4,0.9,0.8,1.5,1.1
		c0.6,0.3,1.2,0.4,1.8,0.4c0.4,0,0.8-0.1,1.2-0.2s0.8-0.3,1.1-0.5c0.3-0.2,0.7-0.4,0.9-0.7s0.5-0.6,0.6-0.9l0.4,0.1
		c-0.2,0.4-0.4,0.7-0.7,1c-0.3,0.3-0.6,0.6-1,0.8s-0.8,0.4-1.3,0.5C93.4,53.6,92.9,53.7,92.4,53.7z M97.1,47.8c0-0.7-0.2-1.4-0.5-2
		s-0.6-1.1-1-1.6s-0.9-0.8-1.5-1c-0.6-0.2-1.2-0.4-1.8-0.4s-1.2,0.1-1.8,0.4c-0.6,0.3-1,0.6-1.5,1s-0.8,1-1,1.6
		c-0.3,0.6-0.4,1.3-0.4,2H97.1z"/>
</g>
</svg>
