<?xml version="1.0" encoding="utf-8"?>
<!-- Generator: Adobe Illustrator 18.1.1, SVG Export Plug-In . SVG Version: 6.00 Build 0)  -->
<svg version="1.1" id="Layer_1" xmlns="http://www.w3.org/2000/svg" xmlns:xlink="http://www.w3.org/1999/xlink" x="0px" y="0px"
	 viewBox="0 156.6 100 22.5" enable-background="new 0 156.6 100 22.5" xml:space="preserve">
<g enable-background="new    ">
	<path fill="#4E4E4F" d="M0.5,174.4L7,159.6h0.4l6.5,14.8h-0.5l-2.3-5.3H3.3L1,174.4H0.5z M7.2,160.2l-3.7,8.5h7.4L7.2,160.2z"/>
	<path fill="#4E4E4F" d="M20.7,174.7c-1.7,0-3.4-1.1-4.2-2.5v2.3H16v-15.2h0.4v6.9c1.1-1.6,2.5-2.7,4.4-2.7c3.2,0,5,2.9,5,5.6
		C25.8,172,23.6,174.7,20.7,174.7z M20.9,163.9c-2.1,0-3.6,1.5-4.4,3.2v3.9c0,1.8,2.5,3.3,4.2,3.3c2.8,0,4.8-2.6,4.8-5.2
		C25.5,166.4,23.6,163.9,20.9,163.9z"/>
	<path fill="#4E4E4F" d="M27.4,169.1c0-3,2.3-5.6,5.2-5.6c3.1,0,5.2,2.9,5.2,5.6c0,3-2.3,5.5-5.2,5.6
		C29.5,174.6,27.4,171.9,27.4,169.1z M32.5,174.2c2.9,0,4.7-2.7,4.7-5.2c0-2.7-2.1-5.2-4.7-5.2c-2.9,0-4.7,2.7-4.7,5.2
		C27.9,171.7,29.8,174.2,32.5,174.2z"/>
	<path fill="#4E4E4F" d="M49.4,174.4c-0.5,0-0.8-0.4-0.8-0.8v-1.9c-0.9,1.8-2.8,3-4.7,3c-3,0-3.5-2.6-3.5-5v-6.1h0.4v6.1
		c0,2.4,0.5,4.6,3.1,4.6c2.2,0,4.1-1.8,4.7-3.7v-6.9H49v10c0,0.3,0.1,0.4,0.3,0.4V174.4z"/>
	<path fill="#4E4E4F" d="M56.6,173.9c0,0-0.8,0.6-2,0.6c-1,0-1.9-0.7-1.9-1.7V164h-1.6v-0.4h1.6v-3.8h0.4v3.8h2.6v0.4h-2.6v8.9
		c0.1,0.8,0.7,1.3,1.5,1.3c1,0,1.7-0.5,1.8-0.5L56.6,173.9z"/>
	<path fill="#4E4E4F" d="M85.8,174.4v-13.9l-6.6,11h-0.3l-6.6-11v13.9h-0.4v-14.8h0.3l6.8,11.4l6.8-11.4h0.3v14.8H85.8z"/>
	<path fill="#4E4E4F" d="M93.8,163.4c3.2,0,5.3,2.6,5.3,5.6v0.2h-9.9c0.2,2.6,2.2,5,4.8,5c1.6,0,3.3-0.9,3.9-2.3l0.4,0.1
		c-0.7,1.7-2.7,2.6-4.3,2.6c-3,0-5.2-2.8-5.2-5.6C88.9,166.2,90.8,163.4,93.8,163.4z M98.7,168.8c-0.2-2.8-2.1-5-4.9-5
		c-2.9,0-4.5,2.6-4.6,5H98.7z"/>
</g>
</svg>
