<svg xmlns="http://www.w3.org/2000/svg" viewBox="0 0 69.4 69.4"><path opacity=".48" fill="none" stroke="#FFF" stroke-width=".25" stroke-miterlimit="10" d="M34.6 31.2C33.6 14.5 18.9.1.1.2L34.5.1l.1 31.1z"/><path opacity=".48" fill="#999" stroke="#FFF" stroke-width=".25" stroke-miterlimit="10" d="M34.6 34.6C16.5 34.6 1.2 20.2.1.3 20.2.2 35.6 16.4 34.6 34.6z"/><path opacity=".48" fill="none" stroke="#FFF" stroke-width=".25" stroke-miterlimit="10" d="M34.6 34.6l-34.4.1L.1.3c1.1 19.9 16.4 34.3 34.5 34.3zM69.2 65.8c-1-16.7-15.7-31.1-34.5-31l34.4-.1.1 31.1z"/><path opacity=".48" fill="#999" stroke="#FFF" stroke-width=".25" stroke-miterlimit="10" d="M69.2 69.1c-18.1.1-33.5-14.4-34.5-34.3 20-.1 35.5 16.2 34.5 34.3z"/><path opacity=".48" fill="none" stroke="#FFF" stroke-width=".25" stroke-miterlimit="10" d="M69.2 69.1l-34.4.1-.1-34.4c1 19.9 16.4 34.4 34.5 34.3zM38.2 34.6c16.7-1 31.1-15.7 31-34.5l.1 34.4-31.1.1z"/><path opacity=".48" fill="#999" stroke="#FFF" stroke-width=".25" stroke-miterlimit="10" d="M34.8 34.6C34.8 16.5 49.2 1.2 69.2.1c0 20.1-16.2 35.5-34.4 34.5z"/><path opacity=".48" fill="none" stroke="#FFF" stroke-width=".25" stroke-miterlimit="10" d="M34.8 34.6L34.7.2 69.1.1C49.2 1.2 34.8 16.5 34.8 34.6zM3.6 69.2c16.7-1 31.1-15.7 31-34.5l.1 34.4-31.1.1z"/><path opacity=".48" fill="#999" stroke="#FFF" stroke-width=".25" stroke-miterlimit="10" d="M.3 69.2C.2 51.1 14.7 35.8 34.6 34.7c0 20.1-16.2 35.5-34.3 34.5z"/><path opacity=".48" fill="none" stroke="#FFF" stroke-width=".25" stroke-miterlimit="10" d="M.3 69.2L.1 34.8l34.4-.1C14.7 35.8.2 51.1.3 69.2z"/></svg>