<?xml version="1.0" encoding="utf-8"?>
<!-- Generator: Adobe Illustrator 18.1.1, SVG Export Plug-In . SVG Version: 6.00 Build 0)  -->
<svg version="1.1" id="Layer_1" xmlns="http://www.w3.org/2000/svg" xmlns:xlink="http://www.w3.org/1999/xlink" x="0px" y="0px"
	 viewBox="0 0 100 100" enable-background="new 0 0 100 100" xml:space="preserve">
<g>
	<path fill="#859398" d="M49.6,81.2c-10.1,0-20.3,0-30.4,0c-5.6,0-10.1-4.5-10.1-10.1c0-10.1,0-20.3,0-30.4c0-0.4,0-0.9,0-1.3
		c0-1.9,0.8-3.3,2.5-4.2s3.1-0.1,4.5,1c8,6.5,16.1,13,24.1,19.6c1.3,1.1,2.6,2.2,4,3.2c3.7,2.9,7.8,2.9,11.5-0.1
		c9-7.3,18-14.7,27-22.1c1.6-1.3,3.1-2.7,5.3-1.6c2.2,1.1,2.5,3.2,2.5,5.4c0,10.1,0,20.1,0,30.2c0,5.8-4.6,10.3-10.4,10.3
		C69.9,81.2,59.7,81.2,49.6,81.2z"/>
	<path fill="#859398" d="M49.8,26.5c8.9,0,17.9,0,26.8,0c1.4,0,3.3-0.5,4,1.2c0.6,1.7-1.1,2.6-2.2,3.5C70.9,37.4,63.5,43.6,56,49.7
		c-3.9,3.2-7.9,3.2-11.8,0.1C36.5,43.5,28.8,37.2,21.1,31c-0.1,0-0.1-0.1-0.2-0.1C20,30,18.6,29.3,19,27.8c0.5-1.6,2.2-1.3,3.5-1.3
		C31.6,26.5,40.7,26.5,49.8,26.5z"/>
</g>
</svg>
