<svg xmlns="http://www.w3.org/2000/svg" viewBox="0 0 100 100"><g fill="#859398"><path d="M50 1.3c-27.5 0-50 22.3-50 50 0 22.2 14.4 40.9 34.1 47.5 2.5.4 3.4-1 3.4-2.4v-9.3c-13.9 3-16.8-5.8-16.8-5.8-2.2-5.8-5.5-7.3-5.5-7.3-4.5-3.1.3-3 .3-3 5.1.3 7.6 5.1 7.6 5.1 4.5 7.6 11.7 5.4 14.5 4.2.4-3.3 1.8-5.4 3.1-6.7-11.1-1.2-22.8-5.5-22.8-24.7 0-5.4 1.9-9.9 5.1-13.5-.4-1.2-2.2-6.3.4-13.2 0 0 4.2-1.3 13.8 5.1 4-1 8.2-1.6 12.6-1.6 4.2 0 8.5.6 12.6 1.6 9.6-6.4 13.8-5.1 13.8-5.1 2.7 6.9 1 12 .4 13.2 3.1 3.4 5.1 7.9 5.1 13.5 0 19.2-11.7 23.4-22.8 24.7 1.8 1.5 3.4 4.6 3.4 9.3v13.8c0 1.3.9 2.8 3.4 2.4 19.9-6.6 34.1-25.3 34.1-47.5.2-28-22.3-50.3-49.8-50.3z"/><path d="M18.9 73c-.1.3-.4.3-.9.1-.3-.1-.6-.4-.4-.7.1-.3.4-.3.9-.1s.5.5.4.7zM21 75.2c-.3.1-.7.1-1-.3-.3-.3-.4-.7-.1-1 .3-.1.7-.1 1 .3.2.4.4.9.1 1zM22.9 78.2c-.3.1-.7 0-1-.4s-.3-1 0-1.2.7 0 1 .4c.3.5.3.9 0 1.2zM25.6 80.9c-.3.3-.9.1-1.3-.1-.4-.4-.6-1-.3-1.3.3-.3.9-.1 1.3.1.4.4.6 1 .3 1.3zM29.3 82.6c-.1.4-.7.6-1.2.4-.6-.1-.9-.6-.7-1 .1-.4.7-.6 1.2-.4s.9.5.7 1zM33.4 82.9c0 .4-.4.7-1 .7s-1-.3-1-.7c0-.4.4-.7 1-.7.5-.1 1 .2 1 .7zM37.3 82.3c0 .4-.3.7-.9.9s-1-.1-1.2-.6c0-.4.3-.9.9-.9.6-.2 1 .1 1.2.6z"/></g></svg>