<svg xmlns="http://www.w3.org/2000/svg" viewBox="0 0 100 100"><g fill="#859398"><path d="M49.6 81.2H19.2c-5.6 0-10.1-4.5-10.1-10.1V40.7v-1.3c0-1.9.8-3.3 2.5-4.2s3.1-.1 4.5 1c8 6.5 16.1 13 24.1 19.6 1.3 1.1 2.6 2.2 4 3.2 3.7 2.9 7.8 2.9 11.5-.1 9-7.3 18-14.7 27-22.1 1.6-1.3 3.1-2.7 5.3-1.6 2.2 1.1 2.5 3.2 2.5 5.4v30.2c0 5.8-4.6 10.3-10.4 10.3-10.2.1-20.4.1-30.5.1z"/><path d="M49.8 26.5h26.8c1.4 0 3.3-.5 4 1.2.6 1.7-1.1 2.6-2.2 3.5-7.5 6.2-14.9 12.4-22.4 18.5-3.9 3.2-7.9 3.2-11.8.1-7.7-6.3-15.4-12.6-23.1-18.8-.1 0-.1-.1-.2-.1-.9-.9-2.3-1.6-1.9-3.1.5-1.6 2.2-1.3 3.5-1.3h27.3z"/></g></svg>