<?xml version="1.0" encoding="utf-8"?>
<!-- Generator: Adobe Illustrator 18.1.1, SVG Export Plug-In . SVG Version: 6.00 Build 0)  -->
<svg version="1.1" id="Layer_1" xmlns="http://www.w3.org/2000/svg" xmlns:xlink="http://www.w3.org/1999/xlink" x="0px" y="0px"
	 viewBox="0 0 100 100" enable-background="new 0 0 100 100" xml:space="preserve">
<g>
	<path fill="#859398" d="M50,1.3c-27.5,0-50,22.3-50,50c0,22.2,14.4,40.9,34.1,47.5c2.5,0.4,3.4-1,3.4-2.4c0-1.2,0-5.1,0-9.3
		c-13.9,3-16.8-5.8-16.8-5.8c-2.2-5.8-5.5-7.3-5.5-7.3c-4.5-3.1,0.3-3,0.3-3c5.1,0.3,7.6,5.1,7.6,5.1c4.5,7.6,11.7,5.4,14.5,4.2
		c0.4-3.3,1.8-5.4,3.1-6.7c-11.1-1.2-22.8-5.5-22.8-24.7c0-5.4,1.9-9.9,5.1-13.5c-0.4-1.2-2.2-6.3,0.4-13.2c0,0,4.2-1.3,13.8,5.1
		c4-1,8.2-1.6,12.6-1.6c4.2,0,8.5,0.6,12.6,1.6c9.6-6.4,13.8-5.1,13.8-5.1c2.7,6.9,1,12,0.4,13.2c3.1,3.4,5.1,7.9,5.1,13.5
		c0,19.2-11.7,23.4-22.8,24.7c1.8,1.5,3.4,4.6,3.4,9.3c0,6.7,0,12.1,0,13.8c0,1.3,0.9,2.8,3.4,2.4c19.9-6.6,34.1-25.3,34.1-47.5
		C100,23.6,77.5,1.3,50,1.3z"/>
	<path fill="#859398" d="M18.9,73c-0.1,0.3-0.4,0.3-0.9,0.1c-0.3-0.1-0.6-0.4-0.4-0.7c0.1-0.3,0.4-0.3,0.9-0.1S19,72.8,18.9,73
		L18.9,73z"/>
	<path fill="#859398" d="M21,75.2c-0.3,0.1-0.7,0.1-1-0.3c-0.3-0.3-0.4-0.7-0.1-1c0.3-0.1,0.7-0.1,1,0.3
		C21.1,74.6,21.3,75.1,21,75.2L21,75.2z"/>
	<path fill="#859398" d="M22.9,78.2c-0.3,0.1-0.7,0-1-0.4s-0.3-1,0-1.2s0.7,0,1,0.4C23.2,77.5,23.2,77.9,22.9,78.2L22.9,78.2z"/>
	<path fill="#859398" d="M25.6,80.9c-0.3,0.3-0.9,0.1-1.3-0.1c-0.4-0.4-0.6-1-0.3-1.3c0.3-0.3,0.9-0.1,1.3,0.1
		C25.7,80,25.9,80.6,25.6,80.9L25.6,80.9z"/>
	<path fill="#859398" d="M29.3,82.6c-0.1,0.4-0.7,0.6-1.2,0.4c-0.6-0.1-0.9-0.6-0.7-1c0.1-0.4,0.7-0.6,1.2-0.4S29.5,82.1,29.3,82.6
		L29.3,82.6z"/>
	<path fill="#859398" d="M33.4,82.9c0,0.4-0.4,0.7-1,0.7c-0.6,0-1-0.3-1-0.7c0-0.4,0.4-0.7,1-0.7C32.9,82.1,33.4,82.4,33.4,82.9
		L33.4,82.9z"/>
	<path fill="#859398" d="M37.3,82.3c0,0.4-0.3,0.7-0.9,0.9s-1-0.1-1.2-0.6c0-0.4,0.3-0.9,0.9-0.9C36.7,81.5,37.1,81.8,37.3,82.3
		L37.3,82.3z"/>
</g>
</svg>
