<?xml version="1.0" encoding="utf-8"?>
<!-- Generator: Adobe Illustrator 18.1.1, SVG Export Plug-In . SVG Version: 6.00 Build 0)  -->
<svg version="1.1" id="Layer_1" xmlns="http://www.w3.org/2000/svg" xmlns:xlink="http://www.w3.org/1999/xlink" x="0px" y="0px"
	 viewBox="40 -0.7 17.5 100" enable-background="new 40 -0.7 17.5 100" xml:space="preserve">
<path fill="rgb(245, 245, 245)" d="M57.5-0.7c-0.2,1.5-0.5,3-0.7,4.4c-1,5.7-2,11.4-3,17.1c-1,5.7-2,11.5-3,17.2c-1,5.7-2,11.4-3,17.1
	c-1,5.7-2,11.5-3,17.2c-0.9,5.3-1.9,10.7-2.8,16c-0.6,3.6-1.2,7.2-1.9,10.8c0,0.1-0.1,0.1-0.1,0.2c0-33.3,0-66.7,0-100
	C45.8-0.7,51.7-0.7,57.5-0.7z"/>
</svg>
