<?xml version="1.0" encoding="utf-8"?>
<!-- Generator: Adobe Illustrator 18.1.1, SVG Export Plug-In . SVG Version: 6.00 Build 0)  -->
<svg version="1.1" id="Layer_1" xmlns="http://www.w3.org/2000/svg" xmlns:xlink="http://www.w3.org/1999/xlink" x="0px" y="0px"
	 viewBox="0 0 100 100" enable-background="new 0 0 100 100" xml:space="preserve">
<path fill="#222222" d="M41.4,0c11.5,0,23,0,34.6,0c0,33.3,0,66.7,0,100c-17.3,0-34.6,0-52,0c0-0.2,0-0.4,0-0.6
	c0-0.1,0.1-0.1,0.1-0.2c0.6-3.6,1.3-7.1,1.9-10.7c0.9-5.3,1.8-10.6,2.8-15.9c1-5.7,2-11.4,3-17.1c1-5.7,2-11.3,3-17
	c1-5.7,2-11.4,3-17.1c1-5.7,2-11.3,3-17C40.9,2.9,41.2,1.5,41.4,0z"/>
</svg>
