<?xml version="1.0" encoding="utf-8"?>
<!-- Generator: Adobe Illustrator 18.1.1, SVG Export Plug-In . SVG Version: 6.00 Build 0)  -->
<svg version="1.1" id="Layer_1" xmlns="http://www.w3.org/2000/svg" xmlns:xlink="http://www.w3.org/1999/xlink" x="0px" y="0px"
	 viewBox="0 0 532 1023.8" enable-background="new 0 0 532 1023.8" xml:space="preserve">
<path d="M178,0c118,0,235.9,0,354,0c0,341.2,0,682.4,0,1023.8c-177.3,0-354.6,0-532,0c0-1.8,0-3.8,0-5.8c0.3-0.6,0.8-1.1,0.9-1.7
	c6.4-36.6,12.8-73.1,19.1-109.7c9.5-54.3,18.9-108.6,28.4-162.8C58.6,685.4,68.8,627,79,568.7c10.1-58,20.3-116.1,30.4-174.1
	c10.2-58.4,20.4-116.7,30.6-175.1c10.1-58,20.3-116.1,30.4-174.1C173,30.2,175.5,15.1,178,0z"/>
</svg>
