<svg xmlns="http://www.w3.org/2000/svg" viewBox="0 41.6 100 16.9"><g fill="#FFF"><path d="M43.4 44c.2.2.5.3.8.3.4 0 .8-.1.8-.6s-.5-.5-.8-.5c-.4 0-.8-.1-.8-.6s.4-.6.8-.6.6.1.7.3h-.1c-.1-.2-.4-.3-.7-.3-.4 0-.7.1-.7.5 0 .5.4.6.8.6s.9.1.9.6-.5.6-.9.6c-.3.1-.6-.1-.8-.3zM45.5 44.4v-2.3h.1v1.5l1.6-1.5h.1l-1.1 1.1 1 1.3h-.1l-1-1.3-.6.5v.7zM47.7 44.4v-2.3h.1l-.1 2.3zM48.2 44.4V42h.1l-.1 2.4 1.5-.1v.1h-1.5zM50 44.4V42h.1l-.1 2.4 1.5-.1v.1H50zM51.8 44c.2.2.5.3.8.3.4 0 .8-.1.8-.6s-.5-.5-.8-.5c-.4 0-.8-.1-.8-.6s.4-.6.8-.6.6.1.7.3h-.1c-.1-.2-.4-.3-.7-.3-.4 0-.7.1-.7.5 0 .5.4.6.8.6s.9.1.9.6-.5.6-.9.6c-.4.1-.6-.1-.8-.3zM55.4 44.3l-1.5.1V42h1.5v.1H54v1h1.3v.1H54v1.1h1.4zM57.3 42.1h-.9v2.3h-.1v-2.3h-.9V42l1.9.1z"/></g><g fill="#FFF"><path d="M1.5 47.7v1.8-.9H.2v.9-1.8.8h1.2l.1-.8zM3.1 47.7h-.7v1.7-1.7h-.7 1.4zM4.9 49.4v-1.6l-.8 1.3-.8-1.3v1.6-1.8l.9 1.4.8-1.3-.1 1.7zM5.4 49.4v-1.8 1.8h1.2-1.2z"/></g><g fill="#FFF"><path d="M.9 50.6c.4 0 .6.2.7.4-.2-.2-.4-.3-.7-.4-.5 0-.7.5-.7.9s.3.8.8.8c.2 0 .6-.2.6-.4-.1.3-.4.4-.7.4-.5 0-.8-.5-.8-.9 0-.3.3-.8.8-.8zM1.9 52.1c.2.2.4.3.6.3.3 0 .6-.1.6-.4 0-.3-.3-.4-.6-.4s-.6-.1-.6-.5c0-.3.3-.5.6-.5s.4.1.5.2c-.1-.2-.3-.2-.5-.2-.3 0-.6.1-.6.4 0 .3.3.4.6.4s.7.1.7.5c0 .3-.4.5-.6.5-.4 0-.6-.1-.7-.3zM3.5 52.1c.2.2.4.3.6.3.3 0 .6-.1.6-.4 0-.3-.3-.4-.6-.4s-.6-.1-.6-.5c0-.3.3-.5.6-.5s.4.1.5.2c-.1-.2-.3-.2-.5-.2-.3 0-.6.1-.6.4 0 .3.3.4.6.4s.7.1.7.5c0 .3-.4.5-.6.5-.4 0-.6-.1-.7-.3zM4.9 52.4c.1.2.3.3.5.3s.5-.1.5-.4c0-.3-.2-.5-.5-.5.2 0 .5 0 .5-.3 0-.2-.2-.4-.4-.4s-.4.1-.4.3c-.1-.3.1-.4.4-.4.2 0 .5.2.5.4s-.1.3-.3.4c.2 0 .3.3.3.5 0 .3-.3.5-.5.5-.1 0-.2 0-.3-.1l-.3-.3z"/></g><g fill="#FFF"><path d="M0 55.2c.1.1.2.1.4.1.4 0 .5-.3.5-.8v-.9.9c0 .5-.1.9-.5.9-.2 0-.3-.1-.4-.2zM2.3 55.4c-.1 0-.1-.1 0 0l-.1-.2c-.1.2-.3.2-.5.2s-.4-.2-.4-.4c0-.3.3-.4.5-.4s.4 0 .4.1v-.1c0-.3-.2-.4-.4-.4-.1 0-.3.1-.4.2.1-.1.3-.2.4-.2.3 0 .5.2.5.5v.7c-.1-.1-.1-.1 0 0zm-.1-.4v-.3c-.1-.1-.3-.1-.4-.1-.2 0-.5.1-.5.3 0 .2.2.3.4.3s.4-.1.5-.2c0 .1 0 0 0 0zM3.1 55.4l-.6-1.3h.1l.5 1.3.5-1.3h.1l-.6 1.3zM4.9 55.4c-.1 0-.1-.1 0 0l-.1-.2c-.1.2-.3.2-.5.2s-.4-.2-.4-.4c0-.3.3-.4.5-.4s.4 0 .4.1v-.1c0-.3-.2-.4-.4-.4-.1 0-.3.1-.4.2.1-.1.3-.2.4-.2.3 0 .5.2.5.5v.7c0-.1 0-.1 0 0zm-.1-.4v-.3c-.1-.1-.3-.1-.4-.1-.2 0-.5.1-.5.3 0 .2.2.3.4.3s.4-.1.5-.2c0 .1 0 0 0 0zM5.2 55.1c.1.1.3.2.5.2s.4-.1.4-.3c0-.2-.3-.3-.4-.3-.2 0-.5-.1-.5-.3 0-.2.2-.3.5-.3.2 0 .3.1.4.2-.1-.1-.2-.2-.4-.2s-.4.1-.4.3c0 .2.2.3.4.3s.5.1.5.3-.3.4-.5.4-.4-.1-.5-.3zM7 54.1c.3 0 .4.1.5.3-.1-.2-.3-.3-.5-.3-.3 0-.5.4-.5.7 0 .3.3.6.6.6a.55.55 0 0 1 0 0c-.4 0-.6-.3-.6-.7-.1-.3.1-.6.5-.6zM8.4 54.1c-.3 0-.4.2-.5.4v.8V54v.3c.1-.1.3-.2.5-.2zM8.6 53.7v-.2.2zm0 1.7v-1.3 1.3zM9.6 55.4c-.2 0-.4-.1-.5-.3v.8-1.8.3c.1-.2.3-.3.5-.3.4 0 .6.3.6.7 0 .3-.3.6-.6.6zm0-1.3c-.2 0-.5.2-.5.4v.5c.1.2.3.4.5.4.3 0 .5-.3.5-.6 0-.4-.2-.7-.5-.7zM10.9 55.3s-.1.1-.2.1-.2-.1-.2-.2v-1h-.2.2v-.4.4h.3-.3v1c0 .1.1.1.2.1h.2z"/></g><g fill="#FFF"><path d="M44.3 49.4l.8-1.8.8 1.8h-.1l-.3-.6h-.9l-.3.6zm.7-1.7l-.4 1h.9l-.5-1zM47.1 49.4v-.7c0-.3 0-.5-.3-.5s-.5.2-.6.4v.8-1.3.3c.1-.2.3-.4.6-.4.4 0 .4.3.4.6v.8z"/><path d="M48.5 48.1v1.3c0 .3-.3.5-.6.5s-.5-.1-.6-.3c.1.2.3.3.5.3.3 0 .5-.2.5-.4v-.3c-.1.2-.3.3-.5.3-.4 0-.6-.3-.6-.7 0-.3.2-.7.6-.7.2 0 .4.1.5.3l.2-.3zm0 .9v-.5c-.1-.2-.3-.4-.5-.4-.3 0-.5.3-.5.6s.3.6.6.6c.2 0 .4-.1.5-.3-.1.1-.1 0-.1 0zM50 49.4c-.1 0-.1 0 0 0l-.1-.3c-.1.2-.3.4-.6.4-.4 0-.4-.3-.4-.6v-.7.7c0 .3.1.5.4.5.3 0 .5-.2.6-.4v-.8l.1 1.2c-.1-.1-.1 0 0 0zM50.4 47.6v1.6c0 .1.1.2.1.2h0c-.1 0-.2-.1-.2-.2v-1.6zM51.9 49.4s-.1 0 0 0l-.1-.2c-.1.2-.3.2-.5.2s-.4-.2-.4-.4c0-.3.3-.4.5-.4s.4 0 .4.1v-.1c0-.3-.2-.4-.4-.4-.1 0-.3.1-.4.2.1-.1.3-.2.4-.2.3 0 .5.2.5.5v.7c0-.1 0 0 0 0zm-.1-.3v-.3c-.1-.1-.3-.1-.4-.1-.2 0-.5.1-.5.3 0 .2.2.3.4.3s.4-.1.5-.2zM52.8 48.2c-.3 0-.4.2-.5.4v.8-1.3.3c.1-.2.3-.3.5-.2zM52.9 49.3c.1.1.2.1.4.1.4 0 .5-.3.5-.8v-.9.9c0 .5-.1.9-.5.9-.2-.1-.3-.1-.4-.2zM54.1 49.1c.2.2.4.3.6.3.3 0 .6-.1.6-.4 0-.3-.3-.4-.6-.4s-.6-.1-.6-.5c0-.3.3-.5.6-.5s.4.1.5.2c-.1-.2-.3-.2-.5-.2-.3 0-.6.1-.6.4 0 .3.3.4.6.4s.7.1.7.5c0 .3-.4.5-.6.5-.4 0-.6-.1-.7-.3z"/></g><g fill="#FFF"><path d="M44.1 52.7h.2c.1 0 .3-.1.3-.3V51v1.4c0 .2-.2.3-.3.3-.1.1-.1.1-.2 0zm.5-1.9v-.2.2zM44.9 51.5c0-.5.4-.9.8-.9.5 0 .8.5.8.9 0 .2-.1.5-.3.7l.2.2h-.1l-.1-.2c-.1.1-.3.2-.5.2-.4 0-.8-.4-.8-.9zm1.1.4l.2.2c.2-.2.2-.4.2-.6 0-.4-.3-.8-.8-.8s-.8.4-.8.8.3.8.8.8c.2 0 .4-.1.5-.2l-.1-.2zM48 52.4c-.1 0-.1-.1 0 0l-.1-.3c-.1.2-.3.4-.6.4-.4 0-.4-.3-.4-.6v-.7.7c0 .3.1.5.4.5.3 0 .5-.2.6-.4v-.8l.1 1.2c-.1-.1-.1-.1 0 0zM48.8 51.1c.4 0 .6.3.6.7h-1.2c0 .3.3.6.6.6a.55.55 0 0 1 0 0c-.4 0-.6-.3-.6-.7 0-.3.3-.6.6-.6zm.6.6c0-.3-.2-.6-.6-.6-.3 0-.5.3-.5.6h1.1zM50.3 51.1c-.3 0-.4.2-.5.4v.8V51v.3c.1-.1.3-.2.5-.2zM51.6 51.1l-.8 1.7s-.1.1-.2.1h.1l.2-.5-.6-1.3h.1l.6 1.2.6-1.2z"/></g><g fill="#FFF"><path d="M45.4 55.4s0-.1 0 0l-.1-.3c-.1.2-.3.3-.5.3-.4 0-.6-.3-.6-.7 0-.4.3-.7.6-.7.2 0 .4.1.5.3v-.8l.1 1.9c0-.1 0-.1 0 0zm0-.9c-.1-.2-.3-.4-.5-.4-.3 0-.5.3-.5.6s.3.6.6.6c.2 0 .5-.2.5-.4v-.4zM45.7 55.4c.1.2.3.3.5.3s.5-.1.5-.4c0-.3-.2-.5-.5-.5.2 0 .5 0 .5-.3 0-.2-.2-.4-.4-.4s-.4.1-.4.3c.1-.2.3-.3.5-.3.3 0 .5.2.5.5 0 .2-.1.3-.3.4.2 0 .3.3.3.5 0 .3-.3.5-.5.5-.1 0-.2 0-.3-.1-.2-.3-.3-.4-.4-.5zM47.1 55.4v-.2.2zM47.2 55.7h.2c.1 0 .3-.1.3-.3V54v1.4c0 .2-.2.3-.3.3-.1.1-.1.1-.2 0zm.5-2v-.2.2zM48.1 55.1c.1.1.3.2.5.2s.4-.1.4-.3c0-.2-.3-.3-.4-.3-.2 0-.5-.1-.5-.3 0-.2.2-.3.5-.3.2 0 .3.1.4.2-.1-.1-.2-.2-.4-.2s-.4.1-.4.3c0 .2.2.3.4.3s.5.1.5.3-.3.4-.5.4c-.3 0-.5-.1-.5-.3z"/></g><g fill="#FFF"><path d="M85 49v-1.8h.7c.3 0 .5.3.5.5 0 .3-.2.5-.4.5l.4.7h-.1l-.4-.7H85v.8zm.1-.8h.7c.3 0 .4-.2.4-.5 0-.2-.2-.5-.4-.5h-.7v1zM87.6 49s-.1-.1 0 0l-.1-.3c-.1.1-.3.3-.5.3-.4 0-.4-.3-.4-.6v-.7.7c0 .3.1.5.4.5.3 0 .5-.2.6-.4v-.8V49c0-.1 0-.1 0 0zM88.5 49c-.2 0-.4-.1-.5-.3v.3-1.8.8c.1-.2.3-.3.5-.3.4 0 .6.3.6.7 0 .3-.2.6-.6.6zm.1-1.3c-.2 0-.4.2-.5.4v.5c0 .2.3.4.5.4.3 0 .6-.3.6-.6-.1-.4-.3-.7-.6-.7zM90.5 47.7l-.8 1.7s-.1.1-.2.1h.1l.2-.5-.6-1.3h.1l.6 1.2.6-1.2z"/></g><g fill="#FFF"><path d="M85 51.9v-1.8h.7c.3 0 .5.3.5.5 0 .3-.2.5-.4.5l.4.7h-.1l-.4-.7H85v.8zm.1-.7h.7c.3 0 .4-.2.4-.5 0-.2-.2-.5-.4-.5h-.7v1zM87.6 51.9s-.1 0 0 0l-.1-.3c-.1.2-.3.4-.5.4-.4 0-.4-.3-.4-.6v-.7.7c0 .3.1.5.4.5.3 0 .5-.2.6-.4v-.8 1.2zM88.5 52c-.2 0-.4-.1-.5-.3v.3-1.8.8c.1-.2.3-.3.5-.3.4 0 .6.3.6.7 0 .3-.2.6-.6.6zm.1-1.3c-.2 0-.4.2-.5.4v.5c0 .2.3.4.5.4.3 0 .6-.3.6-.6-.1-.4-.3-.7-.6-.7zM90.5 50.7l-.8 1.7s-.1.1-.2.1h.1l.2-.5-.6-1.3h.1l.6 1.2.6-1.2zM91.4 51.3c0-.4.3-.7.6-.7.4 0 .6.3.6.7 0 .4-.3.7-.6.7s-.6-.4-.6-.7zm.6.6c.3 0 .6-.3.6-.6s-.2-.6-.6-.6c-.3 0-.6.3-.6.6.1.3.3.6.6.6zM93.9 51.9v-.7c0-.3 0-.5-.3-.5s-.5.2-.6.4v.8-1.3.4c.1-.2.3-.4.6-.4.4 0 .4.3.4.6v.7zM95.1 51.9v-1.8h.7c.3 0 .5.3.5.5 0 .3-.2.5-.4.5l.4.7h-.1l-.4-.7h-.7v.8zm.1-.7h.7c.3 0 .4-.2.4-.5 0-.2-.2-.5-.4-.5h-.7v1zM97.7 51.9c-.1 0-.1 0 0 0l-.1-.2c-.2.2-.4.3-.6.3-.2 0-.4-.2-.4-.4 0-.3.3-.4.5-.4s.4 0 .4.1v-.1c0-.3-.2-.4-.4-.4-.1 0-.3.1-.4.2.1-.1.3-.2.4-.2.3 0 .5.2.5.5l.1.6c-.1 0-.1 0 0 0zm-.1-.3v-.3c-.1-.1-.3-.1-.4-.1-.2 0-.5.1-.5.3 0 .2.2.3.4.3s.4-.1.5-.2c0 .1 0 0 0 0zM98 50.3v-.2.2zm0 1.6v-1.3 1.3zM98.4 50.1v1.6c0 .1.1.2.1.2h0c-.1 0-.2-.1-.2-.2v-1.6zM98.9 51.7c.1.1.3.2.5.2s.4-.1.4-.3c0-.2-.3-.3-.4-.3-.2 0-.5-.1-.5-.3 0-.2.2-.3.5-.3.2 0 .3.1.4.2-.1-.1-.2-.2-.4-.2s-.4.1-.4.3c0 .2.2.3.4.3s.5.1.5.3-.3.4-.5.4-.4-.1-.5-.3z"/></g><g fill="#FFF"><path d="M85 54.9v-1.8h.7c.3 0 .5.3.5.5 0 .3-.2.5-.5.5H85v.8zm.1-.7h.7c.3 0 .4-.2.4-.5 0-.2-.2-.5-.4-.5h-.7v1zM86.4 54.3c0-.4.3-.7.6-.7.4 0 .6.3.6.7 0 .4-.3.7-.6.7-.4-.1-.6-.4-.6-.7zm.6.6c.3 0 .6-.3.6-.6s-.2-.6-.6-.6c-.3 0-.6.3-.6.6.1.3.3.6.6.6zM87.9 54.7c.1.1.3.2.5.2s.4-.1.4-.3c0-.2-.3-.3-.4-.3-.2 0-.5-.1-.5-.3 0-.2.2-.3.5-.3.2 0 .3.1.4.2-.1-.1-.2-.2-.4-.2s-.4.1-.4.3c0 .2.2.3.4.3s.5.1.5.3-.3.4-.5.4c-.2-.1-.4-.2-.5-.3zM89.7 54.9s-.1.1-.2.1-.2-.1-.2-.2v-1H89h.2v-.4.4h.3-.3v1c0 .1.1.1.2.1.2 0 .2-.1.3 0zM91 53.6V55c0 .3-.3.5-.6.5s-.5-.1-.6-.3c.1.2.3.3.5.3.3 0 .5-.2.5-.4v-.3c-.1.2-.3.3-.5.3-.4 0-.6-.3-.6-.7 0-.3.2-.7.6-.7.2 0 .4.1.5.3l.2-.4zm0 .9V54c-.1-.2-.3-.4-.5-.4-.3 0-.5.3-.5.6s.3.6.6.6c.2 0 .4-.1.5-.3-.2.1-.1 0-.1 0zM91.9 53.7c-.3 0-.4.2-.5.4v.8-1.3.4c.1-.2.3-.4.5-.3zM92.7 53.6c.4 0 .6.3.6.7h-1.2c0 .3.3.6.6.6a.55.55 0 0 1 0 0c-.4 0-.6-.3-.6-.7 0-.3.2-.6.6-.6zm.5.7c0-.3-.2-.6-.6-.6-.3 0-.5.3-.5.6h1.1zM93.6 54.6c.2.2.4.3.6.3.3 0 .6-.1.6-.4 0-.3-.3-.4-.6-.4s-.6-.1-.6-.5c0-.3.3-.5.6-.5s.4.1.5.2c-.1-.2-.3-.2-.5-.2-.3 0-.6.1-.6.4 0 .3.3.4.6.4s.7.1.7.5c0 .3-.4.5-.6.5-.4 0-.6-.1-.7-.3zM95.1 54c0-.5.4-.9.8-.9.5 0 .8.5.8.9 0 .2-.1.5-.3.7l.2.2h-.1l-.1-.2c-.1.1-.3.2-.5.2-.5 0-.8-.4-.8-.9zm1.1.5l.2.2c.2-.2.2-.4.2-.6 0-.4-.3-.8-.8-.8s-.8.4-.8.8.3.8.8.8c.2 0 .4-.1.5-.2l-.1-.2zM97.1 54.9v-1.8 1.8h1.2-1.2z"/></g><g fill="#FFF"><path d="M86.7 57.9v-1.6l-.8 1.3-.8-1.3v1.6-1.8l.8 1.3.8-1.3v1.8zM87 57.2c0-.4.3-.7.6-.7.4 0 .6.3.6.7 0 .4-.3.7-.6.7s-.6-.3-.6-.7zm.7.7c.3 0 .6-.3.6-.6s-.2-.6-.6-.6c-.3 0-.6.3-.6.6s.2.6.6.6zM89.5 57.9v-.7c0-.3 0-.5-.3-.5s-.5.2-.6.4v.8-1.3.3c.1-.2.3-.4.6-.4.4 0 .4.3.4.6v.8zM91 56.6v1.3c0 .3-.3.5-.6.5s-.5-.1-.6-.3c.1.2.3.3.5.3.3 0 .5-.2.5-.4v-.3c-.1.2-.3.3-.5.3-.4 0-.6-.3-.6-.7 0-.3.2-.7.6-.7.2 0 .4.1.5.3l.2-.3zm-.1.9V57c-.1-.2-.3-.4-.5-.4-.3 0-.5.3-.5.6s.3.6.6.6c.2 0 .4-.1.5-.3h-.1zM91.3 57.2c0-.4.3-.7.6-.7.4 0 .6.3.6.7 0 .4-.3.7-.6.7-.4 0-.6-.3-.6-.7zm.6.7c.3 0 .6-.3.6-.6s-.2-.6-.6-.6c-.3 0-.6.3-.6.6.1.3.3.6.6.6zM92.8 57.9v-1.8h.6c.6 0 .8.4.8.9s-.3.9-.8.9h-.6zm.6-1.7h-.5v1.7h.5c.5 0 .8-.4.8-.8 0-.6-.3-.9-.8-.9zM95.4 57.9h-.8v-1.8h.8c.2 0 .4.2.4.4s-.1.3-.3.4c.2.1.3.2.3.4 0 .4-.2.6-.4.6zm-.8-1.7v.8h.7c.2 0 .4-.2.4-.4s-.1-.4-.4-.4h-.7zm.8.8h-.8v.8h.8c.2 0 .4-.2.4-.4-.1-.2-.2-.4-.4-.4z"/></g></svg>