<?xml version="1.0" encoding="utf-8"?>
<!-- Generator: Adobe Illustrator 18.1.1, SVG Export Plug-In . SVG Version: 6.00 Build 0)  -->
<svg version="1.1" id="Layer_1" xmlns="http://www.w3.org/2000/svg" xmlns:xlink="http://www.w3.org/1999/xlink" x="0px" y="0px"
	 viewBox="0 41.6 100 16.9" enable-background="new 0 41.6 100 16.9" xml:space="preserve">
<g enable-background="new    ">
	<path fill="#FFFFFF" d="M43.4,44c0.2,0.2,0.5,0.3,0.8,0.3c0.4,0,0.8-0.1,0.8-0.6c0-0.5-0.5-0.5-0.8-0.5c-0.4,0-0.8-0.1-0.8-0.6
		c0-0.5,0.4-0.6,0.8-0.6c0.4,0,0.6,0.1,0.7,0.3l-0.1,0c-0.1-0.2-0.4-0.3-0.7-0.3c-0.4,0-0.7,0.1-0.7,0.5c0,0.5,0.4,0.6,0.8,0.6
		c0.4,0,0.9,0.1,0.9,0.6c0,0.5-0.5,0.6-0.9,0.6C43.9,44.4,43.6,44.2,43.4,44L43.4,44z"/>
	<path fill="#FFFFFF" d="M45.5,44.4v-2.3h0.1v1.5l1.6-1.5h0.1l-1.1,1.1l1,1.3h-0.1l-1-1.3l-0.6,0.5L45.5,44.4L45.5,44.4z"/>
	<path fill="#FFFFFF" d="M47.7,44.4v-2.3h0.1L47.7,44.4L47.7,44.4z"/>
	<path fill="#FFFFFF" d="M48.2,44.4V42h0.1L48.2,44.4l1.5-0.1v0.1H48.2z"/>
	<path fill="#FFFFFF" d="M50,44.4V42h0.1L50,44.4l1.5-0.1v0.1H50z"/>
	<path fill="#FFFFFF" d="M51.8,44c0.2,0.2,0.5,0.3,0.8,0.3c0.4,0,0.8-0.1,0.8-0.6c0-0.5-0.5-0.5-0.8-0.5c-0.4,0-0.8-0.1-0.8-0.6
		c0-0.5,0.4-0.6,0.8-0.6c0.4,0,0.6,0.1,0.7,0.3l-0.1,0c-0.1-0.2-0.4-0.3-0.7-0.3c-0.4,0-0.7,0.1-0.7,0.5c0,0.5,0.4,0.6,0.8,0.6
		c0.4,0,0.9,0.1,0.9,0.6c0,0.5-0.5,0.6-0.9,0.6C52.2,44.4,52,44.2,51.8,44L51.8,44z"/>
	<path fill="#FFFFFF" d="M55.4,44.3L55.4,44.3l-1.5,0.1V42h1.5v0.1H54v1h1.3v0.1H54v1.1H55.4z"/>
	<path fill="#FFFFFF" d="M57.3,42.1h-0.9v2.3h-0.1v-2.3h-0.9V42L57.3,42.1L57.3,42.1z"/>
</g>
<g enable-background="new    ">
	<path fill="#FFFFFF" d="M1.5,47.7v1.8h0v-0.9H0.2v0.9h0v-1.8h0v0.8h1.2L1.5,47.7L1.5,47.7z"/>
	<path fill="#FFFFFF" d="M3.1,47.7H2.4v1.7h0v-1.7H1.7v0L3.1,47.7L3.1,47.7z"/>
	<path fill="#FFFFFF" d="M4.9,49.4v-1.6l-0.8,1.3h0l-0.8-1.3v1.6h0v-1.8h0L4.2,49L5,47.7h0L4.9,49.4L4.9,49.4z"/>
	<path fill="#FFFFFF" d="M5.4,49.4v-1.8h0L5.4,49.4l1.2,0v0H5.4z"/>
</g>
<g enable-background="new    ">
	<path fill="#FFFFFF" d="M0.9,50.6c0.4,0,0.6,0.2,0.7,0.4l0,0C1.4,50.8,1.2,50.7,0.9,50.6c-0.5,0-0.7,0.5-0.7,0.9
		c0,0.4,0.3,0.8,0.8,0.8c0.2,0,0.6-0.2,0.6-0.4l0,0c-0.1,0.3-0.4,0.4-0.7,0.4c-0.5,0-0.8-0.5-0.8-0.9C0.1,51.1,0.4,50.6,0.9,50.6z"
		/>
	<path fill="#FFFFFF" d="M1.9,52.1c0.2,0.2,0.4,0.3,0.6,0.3c0.3,0,0.6-0.1,0.6-0.4c0-0.3-0.3-0.4-0.6-0.4c-0.3,0-0.6-0.1-0.6-0.5
		c0-0.3,0.3-0.5,0.6-0.5c0.3,0,0.4,0.1,0.5,0.2l0,0c-0.1-0.2-0.3-0.2-0.5-0.2c-0.3,0-0.6,0.1-0.6,0.4c0,0.3,0.3,0.4,0.6,0.4
		c0.3,0,0.7,0.1,0.7,0.5c0,0.3-0.4,0.5-0.6,0.5C2.2,52.4,2,52.3,1.9,52.1L1.9,52.1z"/>
	<path fill="#FFFFFF" d="M3.5,52.1c0.2,0.2,0.4,0.3,0.6,0.3c0.3,0,0.6-0.1,0.6-0.4c0-0.3-0.3-0.4-0.6-0.4c-0.3,0-0.6-0.1-0.6-0.5
		c0-0.3,0.3-0.5,0.6-0.5c0.3,0,0.4,0.1,0.5,0.2l0,0c-0.1-0.2-0.3-0.2-0.5-0.2c-0.3,0-0.6,0.1-0.6,0.4c0,0.3,0.3,0.4,0.6,0.4
		c0.3,0,0.7,0.1,0.7,0.5c0,0.3-0.4,0.5-0.6,0.5C3.8,52.4,3.6,52.3,3.5,52.1L3.5,52.1z"/>
	<path fill="#FFFFFF" d="M4.9,52.4L4.9,52.4c0.1,0.2,0.3,0.3,0.5,0.3c0.2,0,0.5-0.1,0.5-0.4c0-0.3-0.2-0.5-0.5-0.5v0
		c0.2,0,0.5,0,0.5-0.3c0-0.2-0.2-0.4-0.4-0.4c-0.2,0-0.4,0.1-0.4,0.3l0,0C5,51.1,5.2,51,5.5,51C5.7,51,6,51.2,6,51.4
		c0,0.2-0.1,0.3-0.3,0.4c0.2,0,0.3,0.3,0.3,0.5c0,0.3-0.3,0.5-0.5,0.5c-0.1,0-0.2,0-0.3-0.1C5.1,52.6,5,52.5,4.9,52.4z"/>
</g>
<g enable-background="new    ">
	<path fill="#FFFFFF" d="M0,55.2c0.1,0.1,0.2,0.1,0.4,0.1c0.4,0,0.5-0.3,0.5-0.8v-0.9h0v0.9c0,0.5-0.1,0.9-0.5,0.9
		C0.2,55.4,0.1,55.3,0,55.2L0,55.2z"/>
	<path fill="#FFFFFF" d="M2.3,55.4C2.2,55.4,2.2,55.3,2.3,55.4l-0.1-0.2c-0.1,0.2-0.3,0.2-0.5,0.2c-0.2,0-0.4-0.2-0.4-0.4
		c0-0.3,0.3-0.4,0.5-0.4c0.2,0,0.4,0,0.4,0.1v-0.1c0-0.3-0.2-0.4-0.4-0.4c-0.1,0-0.3,0.1-0.4,0.2l0,0c0.1-0.1,0.3-0.2,0.4-0.2
		c0.3,0,0.5,0.2,0.5,0.5L2.3,55.4C2.2,55.3,2.2,55.3,2.3,55.4L2.3,55.4z M2.2,55v-0.3c-0.1-0.1-0.3-0.1-0.4-0.1
		c-0.2,0-0.5,0.1-0.5,0.3c0,0.2,0.2,0.3,0.4,0.3c0.2,0,0.4-0.1,0.5-0.2C2.2,55.1,2.2,55,2.2,55z"/>
	<path fill="#FFFFFF" d="M3.1,55.4l-0.6-1.3h0.1L3.1,55.4l0.5-1.3h0.1L3.1,55.4L3.1,55.4z"/>
	<path fill="#FFFFFF" d="M4.9,55.4C4.8,55.4,4.8,55.3,4.9,55.4l-0.1-0.2c-0.1,0.2-0.3,0.2-0.5,0.2c-0.2,0-0.4-0.2-0.4-0.4
		c0-0.3,0.3-0.4,0.5-0.4c0.2,0,0.4,0,0.4,0.1v-0.1c0-0.3-0.2-0.4-0.4-0.4c-0.1,0-0.3,0.1-0.4,0.2l0,0c0.1-0.1,0.3-0.2,0.4-0.2
		c0.3,0,0.5,0.2,0.5,0.5L4.9,55.4C4.9,55.3,4.9,55.3,4.9,55.4L4.9,55.4z M4.8,55v-0.3c-0.1-0.1-0.3-0.1-0.4-0.1
		c-0.2,0-0.5,0.1-0.5,0.3c0,0.2,0.2,0.3,0.4,0.3c0.2,0,0.4-0.1,0.5-0.2C4.8,55.1,4.8,55,4.8,55z"/>
	<path fill="#FFFFFF" d="M5.2,55.1c0.1,0.1,0.3,0.2,0.5,0.2c0.2,0,0.4-0.1,0.4-0.3c0-0.2-0.3-0.3-0.4-0.3c-0.2,0-0.5-0.1-0.5-0.3
		c0-0.2,0.2-0.3,0.5-0.3c0.2,0,0.3,0.1,0.4,0.2l0,0c-0.1-0.1-0.2-0.2-0.4-0.2c-0.2,0-0.4,0.1-0.4,0.3c0,0.2,0.2,0.3,0.4,0.3
		c0.2,0,0.5,0.1,0.5,0.3s-0.3,0.4-0.5,0.4C5.5,55.4,5.3,55.3,5.2,55.1L5.2,55.1z"/>
	<path fill="#FFFFFF" d="M7,54.1c0.3,0,0.4,0.1,0.5,0.3l0,0C7.4,54.2,7.2,54.1,7,54.1c-0.3,0-0.5,0.4-0.5,0.7c0,0.3,0.3,0.6,0.6,0.6
		c0.2,0,0.4-0.1,0.5-0.3l0,0c-0.1,0.2-0.3,0.3-0.5,0.3c-0.4,0-0.6-0.3-0.6-0.7C6.4,54.4,6.6,54.1,7,54.1z"/>
	<path fill="#FFFFFF" d="M8.4,54.1c-0.3,0-0.4,0.2-0.5,0.4v0.8h0v-1.3h0v0.3C8,54.2,8.2,54.1,8.4,54.1L8.4,54.1z"/>
	<path fill="#FFFFFF" d="M8.6,53.7v-0.2h0L8.6,53.7L8.6,53.7z M8.6,55.4v-1.3h0L8.6,55.4L8.6,55.4z"/>
	<path fill="#FFFFFF" d="M9.6,55.4c-0.2,0-0.4-0.1-0.5-0.3v0.8h0v-1.8h0v0.3c0.1-0.2,0.3-0.3,0.5-0.3c0.4,0,0.6,0.3,0.6,0.7
		C10.2,55.1,9.9,55.4,9.6,55.4z M9.6,54.1c-0.2,0-0.5,0.2-0.5,0.4V55c0.1,0.2,0.3,0.4,0.5,0.4c0.3,0,0.5-0.3,0.5-0.6
		C10.1,54.4,9.9,54.1,9.6,54.1z"/>
	<path fill="#FFFFFF" d="M10.9,55.3c0,0-0.1,0.1-0.2,0.1c-0.1,0-0.2-0.1-0.2-0.2v-1h-0.2v0h0.2v-0.4h0v0.4h0.3v0h-0.3v1
		c0,0.1,0.1,0.1,0.2,0.1C10.8,55.3,10.9,55.3,10.9,55.3L10.9,55.3z"/>
</g>
<g enable-background="new    ">
	<path fill="#FFFFFF" d="M44.3,49.4l0.8-1.8h0l0.8,1.8h-0.1l-0.3-0.6h-0.9L44.3,49.4L44.3,49.4z M45,47.7l-0.4,1h0.9L45,47.7z"/>
	<path fill="#FFFFFF" d="M47.1,49.4L47.1,49.4l0-0.7c0-0.3,0-0.5-0.3-0.5c-0.3,0-0.5,0.2-0.6,0.4v0.8h0v-1.3h0v0.3
		c0.1-0.2,0.3-0.4,0.6-0.4c0.4,0,0.4,0.3,0.4,0.6V49.4z"/>
	<path fill="#FFFFFF" d="M48.5,48.1v1.3c0,0.3-0.3,0.5-0.6,0.5c-0.3,0-0.5-0.1-0.6-0.3l0,0c0.1,0.2,0.3,0.3,0.5,0.3
		c0.3,0,0.5-0.2,0.5-0.4v-0.3c-0.1,0.2-0.3,0.3-0.5,0.3c-0.4,0-0.6-0.3-0.6-0.7c0-0.3,0.2-0.7,0.6-0.7c0.2,0,0.4,0.1,0.5,0.3
		L48.5,48.1L48.5,48.1z M48.5,49v-0.5c-0.1-0.2-0.3-0.4-0.5-0.4c-0.3,0-0.5,0.3-0.5,0.6c0,0.3,0.3,0.6,0.6,0.6
		c0.2,0,0.4-0.1,0.5-0.3C48.5,49.1,48.5,49,48.5,49z"/>
	<path fill="#FFFFFF" d="M50,49.4C49.9,49.4,49.9,49.4,50,49.4l-0.1-0.3c-0.1,0.2-0.3,0.4-0.6,0.4c-0.4,0-0.4-0.3-0.4-0.6v-0.7h0
		v0.7c0,0.3,0.1,0.5,0.4,0.5c0.3,0,0.5-0.2,0.6-0.4v-0.8h0L50,49.4C49.9,49.3,49.9,49.4,50,49.4L50,49.4z"/>
	<path fill="#FFFFFF" d="M50.4,47.6L50.4,47.6l0,1.6c0,0.1,0.1,0.2,0.1,0.2c0.1,0,0.1,0,0.2,0l0,0c0,0-0.1,0-0.2,0
		c-0.1,0-0.2-0.1-0.2-0.2V47.6z"/>
	<path fill="#FFFFFF" d="M51.9,49.4C51.9,49.4,51.8,49.4,51.9,49.4l-0.1-0.2c-0.1,0.2-0.3,0.2-0.5,0.2c-0.2,0-0.4-0.2-0.4-0.4
		c0-0.3,0.3-0.4,0.5-0.4c0.2,0,0.4,0,0.4,0.1v-0.1c0-0.3-0.2-0.4-0.4-0.4c-0.1,0-0.3,0.1-0.4,0.2l0,0c0.1-0.1,0.3-0.2,0.4-0.2
		c0.3,0,0.5,0.2,0.5,0.5L51.9,49.4C51.9,49.3,51.9,49.4,51.9,49.4L51.9,49.4z M51.8,49.1v-0.3c-0.1-0.1-0.3-0.1-0.4-0.1
		c-0.2,0-0.5,0.1-0.5,0.3c0,0.2,0.2,0.3,0.4,0.3c0.2,0,0.4-0.1,0.5-0.2C51.8,49.1,51.8,49.1,51.8,49.1z"/>
	<path fill="#FFFFFF" d="M52.8,48.2c-0.3,0-0.4,0.2-0.5,0.4v0.8h0v-1.3h0v0.3C52.4,48.2,52.6,48.1,52.8,48.2L52.8,48.2z"/>
	<path fill="#FFFFFF" d="M52.9,49.3c0.1,0.1,0.2,0.1,0.4,0.1c0.4,0,0.5-0.3,0.5-0.8v-0.9h0v0.9c0,0.5-0.1,0.9-0.5,0.9
		C53.1,49.4,53,49.4,52.9,49.3L52.9,49.3z"/>
	<path fill="#FFFFFF" d="M54.1,49.1c0.2,0.2,0.4,0.3,0.6,0.3c0.3,0,0.6-0.1,0.6-0.4c0-0.3-0.3-0.4-0.6-0.4c-0.3,0-0.6-0.1-0.6-0.5
		c0-0.3,0.3-0.5,0.6-0.5c0.3,0,0.4,0.1,0.5,0.2l0,0c-0.1-0.2-0.3-0.2-0.5-0.2c-0.3,0-0.6,0.1-0.6,0.4c0,0.3,0.3,0.4,0.6,0.4
		c0.3,0,0.7,0.1,0.7,0.5c0,0.3-0.4,0.5-0.6,0.5C54.4,49.4,54.2,49.3,54.1,49.1L54.1,49.1z"/>
</g>
<g enable-background="new    ">
	<path fill="#FFFFFF" d="M44.1,52.7L44.1,52.7c0.1,0,0.2,0,0.2,0c0.1,0,0.3-0.1,0.3-0.3v-1.4h0v1.4c0,0.2-0.2,0.3-0.3,0.3
		C44.2,52.8,44.2,52.8,44.1,52.7z M44.6,50.8v-0.2h0L44.6,50.8L44.6,50.8z"/>
	<path fill="#FFFFFF" d="M44.9,51.5c0-0.5,0.4-0.9,0.8-0.9c0.5,0,0.8,0.5,0.8,0.9c0,0.2-0.1,0.5-0.3,0.7l0.2,0.2h-0.1l-0.1-0.2
		c-0.1,0.1-0.3,0.2-0.5,0.2C45.3,52.4,44.9,52,44.9,51.5z M46,51.9L46,51.9l0.2,0.2c0.2-0.2,0.2-0.4,0.2-0.6c0-0.4-0.3-0.8-0.8-0.8
		c-0.5,0-0.8,0.4-0.8,0.8c0,0.4,0.3,0.8,0.8,0.8c0.2,0,0.4-0.1,0.5-0.2L46,51.9z"/>
	<path fill="#FFFFFF" d="M48,52.4C47.9,52.4,47.9,52.3,48,52.4l-0.1-0.3c-0.1,0.2-0.3,0.4-0.6,0.4c-0.4,0-0.4-0.3-0.4-0.6v-0.7h0
		v0.7c0,0.3,0.1,0.5,0.4,0.5c0.3,0,0.5-0.2,0.6-0.4v-0.8h0L48,52.4C47.9,52.3,47.9,52.3,48,52.4L48,52.4z"/>
	<path fill="#FFFFFF" d="M48.8,51.1c0.4,0,0.6,0.3,0.6,0.7v0h-1.2c0,0.3,0.3,0.6,0.6,0.6c0.2,0,0.4-0.1,0.5-0.3l0,0
		c-0.1,0.2-0.3,0.3-0.5,0.3c-0.4,0-0.6-0.3-0.6-0.7C48.2,51.4,48.5,51.1,48.8,51.1z M49.4,51.7c0-0.3-0.2-0.6-0.6-0.6
		c-0.3,0-0.5,0.3-0.5,0.6H49.4z"/>
	<path fill="#FFFFFF" d="M50.3,51.1c-0.3,0-0.4,0.2-0.5,0.4v0.8h0v-1.3h0v0.3C49.9,51.2,50.1,51.1,50.3,51.1L50.3,51.1z"/>
	<path fill="#FFFFFF" d="M51.6,51.1l-0.8,1.7l0,0c0,0-0.1,0.1-0.2,0.1v0c0.1,0,0.1,0,0.1,0c0,0,0,0,0.2-0.5l-0.6-1.3h0.1l0.6,1.2
		L51.6,51.1L51.6,51.1z"/>
</g>
<g enable-background="new    ">
	<path fill="#FFFFFF" d="M45.4,55.4C45.4,55.4,45.4,55.3,45.4,55.4l-0.1-0.3c-0.1,0.2-0.3,0.3-0.5,0.3c-0.4,0-0.6-0.3-0.6-0.7
		c0-0.4,0.3-0.7,0.6-0.7c0.2,0,0.4,0.1,0.5,0.3v-0.8h0L45.4,55.4C45.4,55.3,45.4,55.3,45.4,55.4L45.4,55.4z M45.4,54.5
		c-0.1-0.2-0.3-0.4-0.5-0.4c-0.3,0-0.5,0.3-0.5,0.6c0,0.3,0.3,0.6,0.6,0.6c0.2,0,0.5-0.2,0.5-0.4V54.5z"/>
	<path fill="#FFFFFF" d="M45.7,55.4L45.7,55.4c0.1,0.2,0.3,0.3,0.5,0.3c0.2,0,0.5-0.1,0.5-0.4c0-0.3-0.2-0.5-0.5-0.5v0
		c0.2,0,0.5,0,0.5-0.3c0-0.2-0.2-0.4-0.4-0.4c-0.2,0-0.4,0.1-0.4,0.3l0,0c0.1-0.2,0.3-0.3,0.5-0.3c0.3,0,0.5,0.2,0.5,0.5
		c0,0.2-0.1,0.3-0.3,0.4c0.2,0,0.3,0.3,0.3,0.5c0,0.3-0.3,0.5-0.5,0.5c-0.1,0-0.2,0-0.3-0.1C45.9,55.6,45.8,55.5,45.7,55.4z"/>
	<path fill="#FFFFFF" d="M47.1,55.4v-0.2h0L47.1,55.4L47.1,55.4z"/>
	<path fill="#FFFFFF" d="M47.2,55.7L47.2,55.7c0.1,0,0.2,0,0.2,0c0.1,0,0.3-0.1,0.3-0.3v-1.4h0v1.4c0,0.2-0.2,0.3-0.3,0.3
		C47.3,55.8,47.3,55.8,47.2,55.7z M47.7,53.7v-0.2h0L47.7,53.7L47.7,53.7z"/>
	<path fill="#FFFFFF" d="M48.1,55.1c0.1,0.1,0.3,0.2,0.5,0.2c0.2,0,0.4-0.1,0.4-0.3c0-0.2-0.3-0.3-0.4-0.3c-0.2,0-0.5-0.1-0.5-0.3
		c0-0.2,0.2-0.3,0.5-0.3c0.2,0,0.3,0.1,0.4,0.2l0,0c-0.1-0.1-0.2-0.2-0.4-0.2c-0.2,0-0.4,0.1-0.4,0.3c0,0.2,0.2,0.3,0.4,0.3
		c0.2,0,0.5,0.1,0.5,0.3s-0.3,0.4-0.5,0.4C48.3,55.4,48.1,55.3,48.1,55.1L48.1,55.1z"/>
</g>
<g enable-background="new    ">
	<path fill="#FFFFFF" d="M85,49v-1.8h0.7c0.3,0,0.5,0.3,0.5,0.5c0,0.3-0.2,0.5-0.4,0.5l0.4,0.7h-0.1l-0.4-0.7h-0.7L85,49L85,49z
		 M85.1,48.2h0.7c0.3,0,0.4-0.2,0.4-0.5c0-0.2-0.2-0.5-0.4-0.5h-0.7V48.2z"/>
	<path fill="#FFFFFF" d="M87.6,49C87.6,49,87.5,48.9,87.6,49l-0.1-0.3C87.4,48.8,87.2,49,87,49c-0.4,0-0.4-0.3-0.4-0.6v-0.7h0v0.7
		c0,0.3,0.1,0.5,0.4,0.5c0.3,0,0.5-0.2,0.6-0.4v-0.8h0L87.6,49C87.6,48.9,87.6,48.9,87.6,49L87.6,49z"/>
	<path fill="#FFFFFF" d="M88.5,49c-0.2,0-0.4-0.1-0.5-0.3V49h0v-1.8h0V48c0.1-0.2,0.3-0.3,0.5-0.3c0.4,0,0.6,0.3,0.6,0.7
		C89.1,48.7,88.9,49,88.5,49z M88.6,47.7c-0.2,0-0.4,0.2-0.5,0.4v0.5c0,0.2,0.3,0.4,0.5,0.4c0.3,0,0.6-0.3,0.6-0.6
		C89.1,48,88.9,47.7,88.6,47.7z"/>
	<path fill="#FFFFFF" d="M90.5,47.7l-0.8,1.7l0,0c0,0-0.1,0.1-0.2,0.1v0c0.1,0,0.1,0,0.1,0c0,0,0,0,0.2-0.5l-0.6-1.3h0.1l0.6,1.2
		L90.5,47.7L90.5,47.7z"/>
</g>
<g enable-background="new    ">
	<path fill="#FFFFFF" d="M85,51.9v-1.8h0.7c0.3,0,0.5,0.3,0.5,0.5c0,0.3-0.2,0.5-0.4,0.5l0.4,0.7h-0.1l-0.4-0.7h-0.7L85,51.9
		L85,51.9z M85.1,51.2h0.7c0.3,0,0.4-0.2,0.4-0.5c0-0.2-0.2-0.5-0.4-0.5h-0.7V51.2z"/>
	<path fill="#FFFFFF" d="M87.6,51.9C87.6,51.9,87.5,51.9,87.6,51.9l-0.1-0.3C87.4,51.8,87.2,52,87,52c-0.4,0-0.4-0.3-0.4-0.6v-0.7h0
		v0.7c0,0.3,0.1,0.5,0.4,0.5c0.3,0,0.5-0.2,0.6-0.4v-0.8h0L87.6,51.9C87.6,51.9,87.6,51.9,87.6,51.9L87.6,51.9z"/>
	<path fill="#FFFFFF" d="M88.5,52c-0.2,0-0.4-0.1-0.5-0.3v0.3h0v-1.8h0V51c0.1-0.2,0.3-0.3,0.5-0.3c0.4,0,0.6,0.3,0.6,0.7
		C89.1,51.7,88.9,52,88.5,52z M88.6,50.7c-0.2,0-0.4,0.2-0.5,0.4v0.5c0,0.2,0.3,0.4,0.5,0.4c0.3,0,0.6-0.3,0.6-0.6
		C89.1,51,88.9,50.7,88.6,50.7z"/>
	<path fill="#FFFFFF" d="M90.5,50.7l-0.8,1.7l0,0c0,0-0.1,0.1-0.2,0.1v0c0.1,0,0.1,0,0.1,0c0,0,0,0,0.2-0.5l-0.6-1.3h0.1l0.6,1.2
		L90.5,50.7L90.5,50.7z"/>
	<path fill="#FFFFFF" d="M91.4,51.3c0-0.4,0.3-0.7,0.6-0.7c0.4,0,0.6,0.3,0.6,0.7c0,0.4-0.3,0.7-0.6,0.7
		C91.7,52,91.4,51.6,91.4,51.3z M92,51.9c0.3,0,0.6-0.3,0.6-0.6c0-0.3-0.2-0.6-0.6-0.6c-0.3,0-0.6,0.3-0.6,0.6
		C91.5,51.6,91.7,51.9,92,51.9z"/>
	<path fill="#FFFFFF" d="M93.9,51.9L93.9,51.9l0-0.7c0-0.3,0-0.5-0.3-0.5c-0.3,0-0.5,0.2-0.6,0.4v0.8h0v-1.3h0V51
		c0.1-0.2,0.3-0.4,0.6-0.4c0.4,0,0.4,0.3,0.4,0.6V51.9z"/>
	<path fill="#FFFFFF" d="M95.1,51.9v-1.8h0.7c0.3,0,0.5,0.3,0.5,0.5c0,0.3-0.2,0.5-0.4,0.5l0.4,0.7h-0.1l-0.4-0.7h-0.7L95.1,51.9
		L95.1,51.9z M95.2,51.2h0.7c0.3,0,0.4-0.2,0.4-0.5c0-0.2-0.2-0.5-0.4-0.5h-0.7V51.2z"/>
	<path fill="#FFFFFF" d="M97.7,51.9C97.6,51.9,97.6,51.9,97.7,51.9l-0.1-0.2C97.4,51.9,97.2,52,97,52c-0.2,0-0.4-0.2-0.4-0.4
		c0-0.3,0.3-0.4,0.5-0.4c0.2,0,0.4,0,0.4,0.1v-0.1c0-0.3-0.2-0.4-0.4-0.4c-0.1,0-0.3,0.1-0.4,0.2l0,0c0.1-0.1,0.3-0.2,0.4-0.2
		c0.3,0,0.5,0.2,0.5,0.5L97.7,51.9C97.6,51.9,97.6,51.9,97.7,51.9L97.7,51.9z M97.6,51.6v-0.3c-0.1-0.1-0.3-0.1-0.4-0.1
		c-0.2,0-0.5,0.1-0.5,0.3c0,0.2,0.2,0.3,0.4,0.3c0.2,0,0.4-0.1,0.5-0.2C97.6,51.7,97.6,51.6,97.6,51.6z"/>
	<path fill="#FFFFFF" d="M98,50.3v-0.2h0L98,50.3L98,50.3z M98,51.9v-1.3h0L98,51.9L98,51.9z"/>
	<path fill="#FFFFFF" d="M98.4,50.1L98.4,50.1l0,1.6c0,0.1,0.1,0.2,0.1,0.2c0.1,0,0.1,0,0.2,0l0,0c0,0-0.1,0-0.2,0
		c-0.1,0-0.2-0.1-0.2-0.2V50.1z"/>
	<path fill="#FFFFFF" d="M98.9,51.7c0.1,0.1,0.3,0.2,0.5,0.2c0.2,0,0.4-0.1,0.4-0.3c0-0.2-0.3-0.3-0.4-0.3c-0.2,0-0.5-0.1-0.5-0.3
		c0-0.2,0.2-0.3,0.5-0.3c0.2,0,0.3,0.1,0.4,0.2l0,0c-0.1-0.1-0.2-0.2-0.4-0.2c-0.2,0-0.4,0.1-0.4,0.3c0,0.2,0.2,0.3,0.4,0.3
		c0.2,0,0.5,0.1,0.5,0.3S99.6,52,99.4,52C99.2,52,99,51.9,98.9,51.7L98.9,51.7z"/>
</g>
<g enable-background="new    ">
	<path fill="#FFFFFF" d="M85,54.9v-1.8h0.7c0.3,0,0.5,0.3,0.5,0.5c0,0.3-0.2,0.5-0.5,0.5h-0.7L85,54.9L85,54.9z M85.1,54.2h0.7
		c0.3,0,0.4-0.2,0.4-0.5c0-0.2-0.2-0.5-0.4-0.5h-0.7V54.2z"/>
	<path fill="#FFFFFF" d="M86.4,54.3c0-0.4,0.3-0.7,0.6-0.7c0.4,0,0.6,0.3,0.6,0.7c0,0.4-0.3,0.7-0.6,0.7
		C86.6,54.9,86.4,54.6,86.4,54.3z M87,54.9c0.3,0,0.6-0.3,0.6-0.6c0-0.3-0.2-0.6-0.6-0.6c-0.3,0-0.6,0.3-0.6,0.6
		C86.5,54.6,86.7,54.9,87,54.9z"/>
	<path fill="#FFFFFF" d="M87.9,54.7c0.1,0.1,0.3,0.2,0.5,0.2c0.2,0,0.4-0.1,0.4-0.3c0-0.2-0.3-0.3-0.4-0.3c-0.2,0-0.5-0.1-0.5-0.3
		c0-0.2,0.2-0.3,0.5-0.3c0.2,0,0.3,0.1,0.4,0.2l0,0c-0.1-0.1-0.2-0.2-0.4-0.2c-0.2,0-0.4,0.1-0.4,0.3c0,0.2,0.2,0.3,0.4,0.3
		c0.2,0,0.5,0.1,0.5,0.3s-0.3,0.4-0.5,0.4C88.2,54.9,88,54.8,87.9,54.7L87.9,54.7z"/>
	<path fill="#FFFFFF" d="M89.7,54.9c0,0-0.1,0.1-0.2,0.1c-0.1,0-0.2-0.1-0.2-0.2v-1H89v0h0.2v-0.4h0v0.4h0.3v0h-0.3v1
		c0,0.1,0.1,0.1,0.2,0.1C89.6,54.9,89.6,54.8,89.7,54.9L89.7,54.9z"/>
	<path fill="#FFFFFF" d="M91,53.6V55c0,0.3-0.3,0.5-0.6,0.5c-0.3,0-0.5-0.1-0.6-0.3l0,0c0.1,0.2,0.3,0.3,0.5,0.3
		c0.3,0,0.5-0.2,0.5-0.4v-0.3c-0.1,0.2-0.3,0.3-0.5,0.3c-0.4,0-0.6-0.3-0.6-0.7c0-0.3,0.2-0.7,0.6-0.7c0.2,0,0.4,0.1,0.5,0.3
		L91,53.6L91,53.6z M91,54.5V54c-0.1-0.2-0.3-0.4-0.5-0.4c-0.3,0-0.5,0.3-0.5,0.6c0,0.3,0.3,0.6,0.6,0.6c0.2,0,0.4-0.1,0.5-0.3
		C90.9,54.6,91,54.5,91,54.5z"/>
	<path fill="#FFFFFF" d="M91.9,53.7c-0.3,0-0.4,0.2-0.5,0.4v0.8h0v-1.3h0V54C91.5,53.8,91.7,53.6,91.9,53.7L91.9,53.7z"/>
	<path fill="#FFFFFF" d="M92.7,53.6c0.4,0,0.6,0.3,0.6,0.7v0h-1.2c0,0.3,0.3,0.6,0.6,0.6c0.2,0,0.4-0.1,0.5-0.3l0,0
		c-0.1,0.2-0.3,0.3-0.5,0.3c-0.4,0-0.6-0.3-0.6-0.7C92.1,53.9,92.3,53.6,92.7,53.6z M93.2,54.3c0-0.3-0.2-0.6-0.6-0.6
		c-0.3,0-0.5,0.3-0.5,0.6H93.2z"/>
	<path fill="#FFFFFF" d="M93.6,54.6c0.2,0.2,0.4,0.3,0.6,0.3c0.3,0,0.6-0.1,0.6-0.4c0-0.3-0.3-0.4-0.6-0.4c-0.3,0-0.6-0.1-0.6-0.5
		c0-0.3,0.3-0.5,0.6-0.5c0.3,0,0.4,0.1,0.5,0.2l0,0c-0.1-0.2-0.3-0.2-0.5-0.2c-0.3,0-0.6,0.1-0.6,0.4c0,0.3,0.3,0.4,0.6,0.4
		c0.3,0,0.7,0.1,0.7,0.5c0,0.3-0.4,0.5-0.6,0.5C93.9,54.9,93.7,54.8,93.6,54.6L93.6,54.6z"/>
	<path fill="#FFFFFF" d="M95.1,54c0-0.5,0.4-0.9,0.8-0.9c0.5,0,0.8,0.5,0.8,0.9c0,0.2-0.1,0.5-0.3,0.7l0.2,0.2h-0.1l-0.1-0.2
		c-0.1,0.1-0.3,0.2-0.5,0.2C95.4,54.9,95.1,54.5,95.1,54z M96.2,54.5L96.2,54.5l0.2,0.2c0.2-0.2,0.2-0.4,0.2-0.6
		c0-0.4-0.3-0.8-0.8-0.8c-0.5,0-0.8,0.4-0.8,0.8c0,0.4,0.3,0.8,0.8,0.8c0.2,0,0.4-0.1,0.5-0.2L96.2,54.5z"/>
	<path fill="#FFFFFF" d="M97.1,54.9v-1.8h0L97.1,54.9l1.2,0v0H97.1z"/>
</g>
<g enable-background="new    ">
	<path fill="#FFFFFF" d="M86.7,57.9v-1.6l-0.8,1.3h0l-0.8-1.3v1.6h0v-1.8h0l0.8,1.3l0.8-1.3h0L86.7,57.9L86.7,57.9z"/>
	<path fill="#FFFFFF" d="M87,57.2c0-0.4,0.3-0.7,0.6-0.7c0.4,0,0.6,0.3,0.6,0.7c0,0.4-0.3,0.7-0.6,0.7C87.3,57.9,87,57.6,87,57.2z
		 M87.7,57.9c0.3,0,0.6-0.3,0.6-0.6c0-0.3-0.2-0.6-0.6-0.6c-0.3,0-0.6,0.3-0.6,0.6C87.1,57.6,87.3,57.9,87.7,57.9z"/>
	<path fill="#FFFFFF" d="M89.5,57.9L89.5,57.9l0-0.7c0-0.3,0-0.5-0.3-0.5c-0.3,0-0.5,0.2-0.6,0.4v0.8h0v-1.3h0v0.3
		c0.1-0.2,0.3-0.4,0.6-0.4c0.4,0,0.4,0.3,0.4,0.6V57.9z"/>
	<path fill="#FFFFFF" d="M91,56.6v1.3c0,0.3-0.3,0.5-0.6,0.5c-0.3,0-0.5-0.1-0.6-0.3l0,0c0.1,0.2,0.3,0.3,0.5,0.3
		c0.3,0,0.5-0.2,0.5-0.4v-0.3c-0.1,0.2-0.3,0.3-0.5,0.3c-0.4,0-0.6-0.3-0.6-0.7c0-0.3,0.2-0.7,0.6-0.7c0.2,0,0.4,0.1,0.5,0.3
		L91,56.6L91,56.6z M90.9,57.5V57c-0.1-0.2-0.3-0.4-0.5-0.4c-0.3,0-0.5,0.3-0.5,0.6c0,0.3,0.3,0.6,0.6,0.6c0.2,0,0.4-0.1,0.5-0.3
		C90.9,57.5,90.9,57.5,90.9,57.5z"/>
	<path fill="#FFFFFF" d="M91.3,57.2c0-0.4,0.3-0.7,0.6-0.7c0.4,0,0.6,0.3,0.6,0.7c0,0.4-0.3,0.7-0.6,0.7
		C91.5,57.9,91.3,57.6,91.3,57.2z M91.9,57.9c0.3,0,0.6-0.3,0.6-0.6c0-0.3-0.2-0.6-0.6-0.6c-0.3,0-0.6,0.3-0.6,0.6
		C91.4,57.6,91.6,57.9,91.9,57.9z"/>
	<path fill="#FFFFFF" d="M92.8,57.9v-1.8h0.6c0.6,0,0.8,0.4,0.8,0.9c0,0.5-0.3,0.9-0.8,0.9H92.8z M93.4,56.2h-0.5v1.7h0.5
		c0.5,0,0.8-0.4,0.8-0.8C94.2,56.5,93.9,56.2,93.4,56.2z"/>
	<path fill="#FFFFFF" d="M95.4,57.9h-0.8v-1.8h0.8c0.2,0,0.4,0.2,0.4,0.4c0,0.2-0.1,0.3-0.3,0.4c0.2,0.1,0.3,0.2,0.3,0.4
		C95.8,57.7,95.6,57.9,95.4,57.9z M94.6,56.2V57h0.7c0.2,0,0.4-0.2,0.4-0.4c0-0.2-0.1-0.4-0.4-0.4H94.6z M95.4,57h-0.8v0.8h0.8
		c0.2,0,0.4-0.2,0.4-0.4C95.7,57.2,95.6,57,95.4,57z"/>
</g>
</svg>
