<?xml version="1.0" encoding="utf-8"?>
<!-- Generator: Adobe Illustrator 18.1.1, SVG Export Plug-In . SVG Version: 6.00 Build 0)  -->
<svg version="1.1" id="Layer_1" xmlns="http://www.w3.org/2000/svg" xmlns:xlink="http://www.w3.org/1999/xlink" x="0px" y="0px"
	 viewBox="0 46.1 99.9 7.9" enable-background="new 0 46.1 99.9 7.9" xml:space="preserve">
<g enable-background="new    ">
	<path fill="#333333" d="M0.9,52.3v-4.7h2.4v0.3H1.2v1.7h1.9v0.3H1.2v2.4H0.9z"/>
</g>
<g enable-background="new    ">
	<path fill="#333333" d="M4.6,52.3v-4.7c0.4,0,0.8-0.1,1.1-0.1c0.4,0,0.8,0.1,1.1,0.3c0.3,0.2,0.4,0.6,0.4,1c0,0.3-0.1,0.6-0.2,0.8
		c-0.2,0.2-0.4,0.4-0.6,0.6c0.6,0.8,0.9,1.2,1.1,1.4c0.3,0.3,0.6,0.5,0.9,0.5l0,0.2c-0.3,0-0.5,0-0.7-0.1s-0.3-0.2-0.5-0.4
		c-0.2-0.2-0.5-0.7-1.1-1.5c-0.4,0-0.8,0-1.2,0v1.9H4.6z M5.9,50.1c0.2,0,0.4-0.1,0.6-0.4s0.3-0.5,0.3-0.9s-0.1-0.6-0.3-0.8
		S6,47.8,5.6,47.8c-0.2,0-0.4,0-0.7,0v2.2C5.3,50.1,5.6,50.1,5.9,50.1z"/>
</g>
<g enable-background="new    ">
	<path fill="#333333" d="M11,52.4c-0.7,0-1.2-0.2-1.7-0.7c-0.5-0.5-0.7-1-0.7-1.7s0.2-1.3,0.7-1.7s1-0.7,1.7-0.7s1.2,0.2,1.7,0.7
		s0.7,1.1,0.7,1.7s-0.2,1.3-0.7,1.7C12.2,52.2,11.6,52.4,11,52.4z M11,47.8c-0.6,0-1.1,0.2-1.5,0.6c-0.4,0.4-0.6,0.9-0.6,1.5
		c0,0.6,0.2,1.1,0.6,1.5c0.4,0.4,0.9,0.6,1.5,0.6c0.6,0,1.1-0.2,1.5-0.6c0.4-0.4,0.6-0.9,0.6-1.5c0-0.6-0.2-1.1-0.6-1.5
		C12,48,11.5,47.8,11,47.8z"/>
	<path fill="#333333" d="M14.8,52.3v-4.8H15l3.1,3.6c0.1,0.1,0.2,0.3,0.3,0.4c0.1,0.1,0.1,0.2,0.1,0.2c0-0.1,0-0.3,0-0.7v-3.4h0.3
		v4.8h-0.2l-3.2-3.6l-0.4-0.5c0,0.1,0,0.3,0,0.7v3.4H14.8z"/>
</g>
<g enable-background="new    ">
	<path fill="#333333" d="M21.5,47.9h-1.6v-0.3h3.5v0.3h-1.6v4.4h-0.3V47.9z"/>
</g>
<g enable-background="new    ">
	<path fill="#333333" d="M23.7,49.7h2.6V50h-2.6V49.7z"/>
	<path fill="#333333" d="M27.6,52.3v-4.7h2.2v0.3H28v1.7h1.7v0.3H28V52h1.9v0.3H27.6z"/>
	<path fill="#333333" d="M31.3,52.3v-4.8h0.2l3.1,3.6c0.1,0.1,0.2,0.3,0.3,0.4c0.1,0.1,0.1,0.2,0.1,0.2c0-0.1,0-0.3,0-0.7v-3.4h0.3
		v4.8h-0.2L32,48.7l-0.4-0.5c0,0.1,0,0.3,0,0.7v3.4H31.3z"/>
	<path fill="#333333" d="M38.4,47.5c0.7,0,1.3,0.2,1.8,0.7c0.5,0.5,0.7,1.1,0.7,1.8c0,0.8-0.2,1.4-0.7,1.7c-0.5,0.4-1,0.6-1.7,0.6
		c-0.5,0-1,0-1.5-0.1v-4.7C37.5,47.6,37.9,47.5,38.4,47.5z M38.6,52.1c0.6,0,1.1-0.2,1.5-0.5s0.6-0.8,0.6-1.5c0-0.7-0.2-1.2-0.6-1.6
		c-0.4-0.4-1-0.6-1.6-0.6c-0.4,0-0.8,0-1,0V52C37.7,52.1,38.1,52.1,38.6,52.1z"/>
</g>
<g enable-background="new    ">
	<path fill="#660000" d="M46.3,51.2l1.4-3.5h0.2l1.2,3.5l0.2,0.6c0-0.1,0.1-0.3,0.2-0.6l1.2-3.6H51l-1.6,4.8h-0.2
		c-0.8-2.3-1.2-3.5-1.3-3.6c0-0.1-0.1-0.3-0.1-0.4c0,0.1-0.1,0.3-0.2,0.5l-1.4,3.5H46l-1.7-4.8h0.4l1.2,3.6c0.1,0.2,0.1,0.4,0.2,0.6
		C46.1,51.7,46.2,51.5,46.3,51.2z"/>
	<path fill="#660000" d="M51.9,52.3v-4.7h2.2v0.3h-1.9v1.7H54v0.3h-1.7V52h2v0.3H51.9z"/>
	<path fill="#660000" d="M55.6,47.6c0.3,0,0.7,0,1.1,0s0.7,0.1,0.9,0.3c0.3,0.2,0.4,0.4,0.4,0.8c0,0.3-0.1,0.5-0.2,0.7
		c-0.1,0.2-0.3,0.4-0.5,0.5c0.3,0.1,0.6,0.3,0.8,0.5c0.2,0.2,0.3,0.5,0.3,0.8c0,0.4-0.1,0.7-0.4,0.9c-0.3,0.2-0.6,0.3-1.1,0.3
		c-0.5,0-0.9,0-1.3-0.1V47.6z M57.6,48.6c0-0.2-0.1-0.4-0.3-0.6c-0.2-0.1-0.4-0.2-0.7-0.2s-0.5,0-0.7,0v1.8c0.4,0,0.8,0,1,0
		c0.2-0.1,0.4-0.3,0.5-0.4C57.6,49,57.6,48.8,57.6,48.6z M56.2,49.9l-0.3,0V52c0.2,0,0.5,0,1,0c0.3,0,0.6-0.1,0.8-0.3
		s0.3-0.4,0.3-0.7s-0.1-0.5-0.3-0.7c-0.2-0.2-0.5-0.3-0.8-0.4C56.7,50,56.5,49.9,56.2,49.9z"/>
	<path fill="#660000" d="M63.8,47.5c0.7,0,1.3,0.2,1.8,0.7c0.5,0.5,0.7,1.1,0.7,1.8c0,0.8-0.2,1.4-0.7,1.7c-0.5,0.4-1,0.6-1.7,0.6
		c-0.5,0-1,0-1.5-0.1v-4.7C62.8,47.6,63.2,47.5,63.8,47.5z M63.9,52.1c0.6,0,1.1-0.2,1.5-0.5c0.4-0.3,0.6-0.8,0.6-1.5
		c0-0.7-0.2-1.2-0.6-1.6c-0.4-0.4-1-0.6-1.6-0.6c-0.4,0-0.8,0-1,0V52C63,52.1,63.4,52.1,63.9,52.1z"/>
	<path fill="#660000" d="M67.8,52.3v-4.7H70v0.3h-1.9v1.7h1.7v0.3h-1.7V52h2v0.3H67.8z"/>
	<path fill="#660000" d="M73,51.3l1.6-3.7h0.4l-2,4.8h-0.2l-2-4.8H71l1.8,4.2C72.8,51.7,72.9,51.6,73,51.3z"/>
	<path fill="#660000" d="M75.9,52.3v-4.7h2.2v0.3h-1.9v1.7h1.7v0.3h-1.7V52h2v0.3H75.9z"/>
</g>
<g enable-background="new    ">
	<path fill="#660000" d="M79.6,52.3v-4.7h0.3V52h2.2v0.3H79.6z"/>
</g>
<g enable-background="new    ">
	<path fill="#660000" d="M84.8,52.4c-0.7,0-1.2-0.2-1.7-0.7c-0.5-0.5-0.7-1-0.7-1.7s0.2-1.3,0.7-1.7c0.5-0.5,1-0.7,1.7-0.7
		c0.7,0,1.2,0.2,1.7,0.7c0.5,0.5,0.7,1.1,0.7,1.7s-0.2,1.3-0.7,1.7C86,52.2,85.5,52.4,84.8,52.4z M84.8,47.8c-0.6,0-1.1,0.2-1.5,0.6
		c-0.4,0.4-0.6,0.9-0.6,1.5c0,0.6,0.2,1.1,0.6,1.5c0.4,0.4,0.9,0.6,1.5,0.6s1.1-0.2,1.5-0.6s0.6-0.9,0.6-1.5c0-0.6-0.2-1.1-0.6-1.5
		C85.9,48,85.4,47.8,84.8,47.8z"/>
	<path fill="#660000" d="M88.6,52.3v-4.7c0.4,0,0.8-0.1,1.2-0.1c0.4,0,0.8,0.1,1,0.3c0.3,0.2,0.4,0.5,0.4,1c0,0.4-0.2,0.8-0.6,1.1
		s-0.8,0.4-1.4,0.4c0,0-0.1,0-0.1,0v-0.2c0,0,0,0,0.1,0c0.4,0,0.8-0.1,1.1-0.3c0.3-0.2,0.5-0.5,0.5-0.9c0-0.4-0.1-0.6-0.3-0.8
		c-0.2-0.2-0.5-0.2-0.9-0.2c-0.2,0-0.4,0-0.7,0v4.4H88.6z"/>
	<path fill="#660000" d="M92.5,52.3v-4.7h2.2v0.3h-1.9v1.7h1.7v0.3h-1.7V52h2v0.3H92.5z"/>
	<path fill="#660000" d="M96.1,52.3v-4.7c0.4,0,0.8-0.1,1.1-0.1c0.4,0,0.8,0.1,1.1,0.3c0.3,0.2,0.4,0.6,0.4,1c0,0.3-0.1,0.6-0.2,0.8
		c-0.2,0.2-0.4,0.4-0.6,0.6c0.6,0.8,0.9,1.2,1.1,1.4c0.3,0.3,0.6,0.5,0.9,0.5l0,0.2c-0.3,0-0.5,0-0.7-0.1c-0.2-0.1-0.3-0.2-0.5-0.4
		c-0.2-0.2-0.5-0.7-1.1-1.5c-0.4,0-0.8,0-1.2,0v1.9H96.1z M97.4,50.1c0.2,0,0.4-0.1,0.6-0.4c0.2-0.3,0.3-0.5,0.3-0.9
		s-0.1-0.6-0.3-0.8c-0.2-0.2-0.5-0.3-0.9-0.3c-0.2,0-0.4,0-0.7,0v2.2C96.8,50.1,97.1,50.1,97.4,50.1z"/>
</g>
</svg>
