<?xml version="1.0" encoding="utf-8"?>
<!-- Generator: Adobe Illustrator 18.1.1, SVG Export Plug-In . SVG Version: 6.00 Build 0)  -->
<svg version="1.1" id="Layer_1" xmlns="http://www.w3.org/2000/svg" xmlns:xlink="http://www.w3.org/1999/xlink" x="0px" y="0px"
	 viewBox="0 92.4 99.4 14.3" enable-background="new 0 92.4 99.4 14.3" xml:space="preserve">
<g enable-background="new    ">
	<path fill="#1F1F1F" d="M2.9,101.3c0,0.4-0.1,0.7-0.4,1c-0.3,0.3-0.7,0.5-1.2,0.5c-0.4,0-0.7-0.1-0.9-0.3s-0.3-0.4-0.3-0.6
		c0-0.1,0-0.2,0.1-0.3c0.1-0.1,0.1-0.1,0.2-0.1c0.2,0,0.3,0.1,0.3,0.3c0,0.1,0,0.1,0,0.2c0,0,0,0.1,0,0.1c0,0.1,0.1,0.2,0.2,0.2
		c0.1,0.1,0.3,0.1,0.4,0.1c0.3,0,0.5-0.1,0.7-0.3c0.2-0.2,0.3-0.4,0.3-0.7c0-0.3-0.2-0.7-0.5-1.2c-0.4-0.6-0.5-1.1-0.5-1.4
		c0-0.4,0.1-0.7,0.4-1c0.3-0.3,0.6-0.4,1-0.4c0.3,0,0.5,0.1,0.7,0.2c0.2,0.1,0.3,0.3,0.3,0.5c0,0.2-0.1,0.3-0.3,0.3
		c-0.1,0-0.2-0.1-0.3-0.3C3.2,98,3,97.8,2.8,97.8c-0.2,0-0.4,0.1-0.6,0.2c-0.2,0.1-0.2,0.3-0.2,0.5c0,0.3,0.1,0.6,0.4,1.1
		c0.2,0.4,0.4,0.8,0.5,1S2.9,101,2.9,101.3z"/>
	<path fill="#1F1F1F" d="M8.9,97.7h0.7l-1.1,3.5c-0.2,0.5-0.2,0.8-0.2,0.9c0,0.1,0,0.1,0.1,0.2c0,0,0.1,0.1,0.2,0.1
		c0.3,0,0.6-0.3,0.9-0.9h0.2c-0.2,0.4-0.4,0.7-0.7,1s-0.5,0.4-0.8,0.4c-0.2,0-0.3-0.1-0.4-0.2c-0.1-0.1-0.1-0.3-0.1-0.5
		c0-0.2,0-0.4,0.1-0.6c-0.2,0.3-0.4,0.6-0.8,0.9c-0.3,0.3-0.7,0.4-0.9,0.4c-0.3,0-0.5-0.1-0.7-0.4s-0.3-0.6-0.3-0.9
		c0-0.5,0.2-1.1,0.5-1.7c0.3-0.6,0.7-1.1,1.2-1.5s0.9-0.6,1.3-0.6c0.2,0,0.4,0,0.5,0.1c0.1,0.1,0.2,0.2,0.2,0.4L8.9,97.7z
		 M5.8,101.6c0,0.3,0,0.5,0.1,0.6c0.1,0.1,0.2,0.2,0.4,0.2c0.3,0,0.6-0.2,0.9-0.6c0.4-0.4,0.7-1,0.9-1.8c0.3-0.8,0.4-1.3,0.4-1.6
		c0-0.2,0-0.3-0.1-0.4c-0.1-0.1-0.2-0.2-0.4-0.2c-0.5,0-1,0.5-1.5,1.4C6,100.2,5.8,101,5.8,101.6z"/>
	<path fill="#1F1F1F" d="M11.3,99.2H11c0.2-0.4,0.4-0.8,0.6-1.1s0.5-0.5,0.7-0.5c0.2,0,0.3,0.1,0.4,0.2c0.1,0.1,0.1,0.3,0.1,0.6
		c0,0.3-0.1,0.8-0.3,1.5c0,0,0.1-0.2,0.2-0.4c0.3-0.7,0.5-1.1,0.8-1.4c0.2-0.3,0.4-0.4,0.7-0.4c0.1,0,0.2,0,0.3,0.1
		c0.1,0.1,0.1,0.2,0.1,0.3c0,0.1,0,0.2-0.1,0.3c-0.1,0.1-0.2,0.1-0.2,0.1c-0.1,0-0.2-0.1-0.3-0.2c0-0.1-0.1-0.1-0.1-0.1
		c-0.2,0-0.5,0.5-0.9,1.4c-0.4,0.9-0.7,1.8-1,2.7l-0.1,0.4h-0.7l0.9-3.1c0.2-0.6,0.3-1,0.3-1.2c0-0.1,0-0.2,0-0.3
		c0-0.1-0.1-0.1-0.1-0.1c-0.1,0-0.3,0.1-0.5,0.4S11.4,98.9,11.3,99.2z"/>
	<path fill="#1F1F1F" d="M19.3,97.7H20l-1.1,3.5c-0.2,0.5-0.2,0.8-0.2,0.9c0,0.1,0,0.1,0.1,0.2c0,0,0.1,0.1,0.2,0.1
		c0.3,0,0.6-0.3,0.9-0.9h0.2c-0.2,0.4-0.4,0.7-0.7,1s-0.5,0.4-0.8,0.4c-0.2,0-0.3-0.1-0.4-0.2c-0.1-0.1-0.1-0.3-0.1-0.5
		c0-0.2,0-0.4,0.1-0.6c-0.2,0.3-0.4,0.6-0.8,0.9c-0.3,0.3-0.7,0.4-0.9,0.4c-0.3,0-0.5-0.1-0.7-0.4s-0.3-0.6-0.3-0.9
		c0-0.5,0.2-1.1,0.5-1.7c0.3-0.6,0.7-1.1,1.2-1.5s0.9-0.6,1.3-0.6c0.2,0,0.4,0,0.5,0.1c0.1,0.1,0.2,0.2,0.2,0.4L19.3,97.7z
		 M16.2,101.6c0,0.3,0,0.5,0.1,0.6c0.1,0.1,0.2,0.2,0.4,0.2c0.3,0,0.6-0.2,0.9-0.6c0.4-0.4,0.7-1,0.9-1.8c0.3-0.8,0.4-1.3,0.4-1.6
		c0-0.2,0-0.3-0.1-0.4c-0.1-0.1-0.2-0.2-0.4-0.2c-0.5,0-1,0.5-1.5,1.4C16.4,100.2,16.2,101,16.2,101.6z"/>
	<path fill="#1F1F1F" d="M21.9,102.7h-0.7l2.1-6.8c0.1-0.4,0.2-0.6,0.2-0.7c0-0.1,0-0.2-0.1-0.2c-0.1,0-0.2-0.1-0.4-0.1h-0.2
		l0.1-0.2c0.6,0,1.1-0.1,1.4-0.2h0.1l-1.3,4.4c0.7-0.9,1.4-1.3,1.9-1.3c0.3,0,0.5,0.1,0.6,0.2s0.2,0.3,0.2,0.5
		c0,0.2-0.1,0.6-0.3,1.3l-0.5,1.5c-0.2,0.6-0.3,0.9-0.3,1c0,0.1,0,0.2,0.1,0.2c0,0.1,0.1,0.1,0.2,0.1c0.1,0,0.3-0.1,0.5-0.3
		c0.2-0.2,0.3-0.4,0.5-0.6h0.3c-0.2,0.4-0.4,0.7-0.7,1c-0.3,0.2-0.5,0.4-0.8,0.4c-0.2,0-0.3-0.1-0.5-0.2c-0.1-0.1-0.2-0.3-0.2-0.5
		c0-0.2,0.1-0.7,0.3-1.3l0.5-1.4c0.2-0.6,0.3-1,0.3-1.2c0-0.1,0-0.2-0.1-0.2c-0.1,0-0.1-0.1-0.2-0.1c-0.2,0-0.4,0.1-0.6,0.2
		c-0.2,0.1-0.5,0.4-0.8,0.7c-0.3,0.3-0.5,0.7-0.6,1c-0.1,0.3-0.3,0.8-0.5,1.4L21.9,102.7z"/>
	<path fill="#1F1F1F" d="M35.5,96.9l-0.7,2.4c-0.4,1.3-0.6,2-0.6,2.2c0,0.1,0,0.2,0.1,0.3s0.2,0.1,0.3,0.1c0.3,0,0.7-0.2,1.1-0.5
		s0.7-0.8,1-1.4c0.3-0.6,0.4-1.3,0.4-2c0-1-0.4-1.9-1.1-2.6c-0.7-0.7-1.6-1-2.8-1c-0.9,0-1.8,0.2-2.5,0.7c-0.8,0.5-1.4,1.2-1.8,2.1
		c-0.5,0.9-0.7,1.8-0.7,2.9c0,1.4,0.4,2.5,1.3,3.4c0.9,0.9,2,1.3,3.3,1.3c0.8,0,1.5-0.2,2.2-0.5c0.7-0.3,1.2-0.7,1.6-1.2
		s0.7-1,1-1.6H38c-0.3,1.1-1,2-1.9,2.6s-2,1-3.2,1c-1.5,0-2.7-0.5-3.7-1.5s-1.5-2.2-1.5-3.7c0-1.6,0.5-3,1.6-4.1s2.4-1.7,4-1.7
		c1.3,0,2.3,0.4,3,1.1c0.8,0.8,1.1,1.7,1.1,2.9c0,1.1-0.3,2.1-0.9,2.9c-0.6,0.8-1.4,1.3-2.3,1.3c-0.3,0-0.5-0.1-0.7-0.2
		c-0.2-0.1-0.2-0.3-0.2-0.6c0-0.2,0-0.5,0.1-0.9c-0.9,1.1-1.7,1.7-2.3,1.7c-0.3,0-0.6-0.1-0.8-0.4s-0.3-0.6-0.3-1
		c0-0.5,0.2-1.1,0.5-1.8s0.8-1.2,1.3-1.7c0.5-0.4,1-0.7,1.4-0.7c0.3,0,0.5,0.1,0.7,0.2c0.2,0.1,0.3,0.3,0.3,0.6l0.2-0.7L35.5,96.9z
		 M33.4,97.1c-0.5,0-1,0.5-1.6,1.4c-0.5,0.9-0.8,1.7-0.8,2.3c0,0.2,0.1,0.4,0.2,0.6c0.1,0.2,0.3,0.3,0.5,0.3c0.4,0,0.8-0.2,1.2-0.7
		s0.8-1,0.9-1.6c0.2-0.6,0.3-1,0.3-1.4c0-0.2-0.1-0.5-0.2-0.6S33.7,97.1,33.4,97.1z"/>
	<path fill="#1F1F1F" d="M42.2,101.3c0,0.4-0.1,0.7-0.4,1c-0.3,0.3-0.7,0.5-1.2,0.5c-0.4,0-0.7-0.1-0.9-0.3s-0.3-0.4-0.3-0.6
		c0-0.1,0-0.2,0.1-0.3c0.1-0.1,0.1-0.1,0.2-0.1c0.2,0,0.3,0.1,0.3,0.3c0,0.1,0,0.1,0,0.2c0,0,0,0.1,0,0.1c0,0.1,0.1,0.2,0.2,0.2
		c0.1,0.1,0.3,0.1,0.4,0.1c0.3,0,0.5-0.1,0.7-0.3c0.2-0.2,0.3-0.4,0.3-0.7c0-0.3-0.2-0.7-0.5-1.2c-0.4-0.6-0.5-1.1-0.5-1.4
		c0-0.4,0.1-0.7,0.4-1c0.3-0.3,0.6-0.4,1-0.4c0.3,0,0.5,0.1,0.7,0.2c0.2,0.1,0.3,0.3,0.3,0.5c0,0.2-0.1,0.3-0.3,0.3
		c-0.1,0-0.2-0.1-0.3-0.3c-0.1-0.3-0.2-0.4-0.5-0.4c-0.2,0-0.4,0.1-0.6,0.2c-0.2,0.1-0.2,0.3-0.2,0.5c0,0.3,0.1,0.6,0.4,1.1
		c0.2,0.4,0.4,0.8,0.5,1S42.2,101,42.2,101.3z"/>
	<path fill="#1F1F1F" d="M48.1,97.7h0.7l-1.1,3.5c-0.2,0.5-0.2,0.8-0.2,0.9c0,0.1,0,0.1,0.1,0.2c0,0,0.1,0.1,0.2,0.1
		c0.3,0,0.6-0.3,0.9-0.9H49c-0.2,0.4-0.4,0.7-0.7,1s-0.5,0.4-0.8,0.4c-0.2,0-0.3-0.1-0.4-0.2c-0.1-0.1-0.1-0.3-0.1-0.5
		c0-0.2,0-0.4,0.1-0.6c-0.2,0.3-0.4,0.6-0.8,0.9c-0.3,0.3-0.7,0.4-0.9,0.4c-0.3,0-0.5-0.1-0.7-0.4s-0.3-0.6-0.3-0.9
		c0-0.5,0.2-1.1,0.5-1.7c0.3-0.6,0.7-1.1,1.2-1.5s0.9-0.6,1.3-0.6c0.2,0,0.4,0,0.5,0.1c0.1,0.1,0.2,0.2,0.2,0.4L48.1,97.7z
		 M45,101.6c0,0.3,0,0.5,0.1,0.6c0.1,0.1,0.2,0.2,0.4,0.2c0.3,0,0.6-0.2,0.9-0.6c0.4-0.4,0.7-1,0.9-1.8c0.3-0.8,0.4-1.3,0.4-1.6
		c0-0.2,0-0.3-0.1-0.4c-0.1-0.1-0.2-0.2-0.4-0.2c-0.5,0-1,0.5-1.5,1.4C45.3,100.2,45,101,45,101.6z"/>
	<path fill="#1F1F1F" d="M50.6,99.2h-0.3c0.2-0.4,0.4-0.8,0.6-1.1c0.2-0.3,0.5-0.5,0.7-0.5c0.2,0,0.3,0.1,0.4,0.2
		c0.1,0.1,0.1,0.3,0.1,0.6c0,0.3-0.1,0.8-0.3,1.5c0,0,0.1-0.2,0.2-0.4c0.3-0.7,0.5-1.1,0.8-1.4c0.2-0.3,0.4-0.4,0.7-0.4
		c0.1,0,0.2,0,0.3,0.1C54,97.8,54,97.9,54,98c0,0.1,0,0.2-0.1,0.3c-0.1,0.1-0.2,0.1-0.2,0.1c-0.1,0-0.2-0.1-0.3-0.2
		c0-0.1-0.1-0.1-0.1-0.1c-0.2,0-0.5,0.5-0.9,1.4c-0.4,0.9-0.7,1.8-1,2.7l-0.1,0.4h-0.7l0.9-3.1c0.2-0.6,0.3-1,0.3-1.2
		c0-0.1,0-0.2,0-0.3c0-0.1-0.1-0.1-0.1-0.1c-0.1,0-0.3,0.1-0.5,0.4C50.8,98.7,50.7,98.9,50.6,99.2z"/>
	<path fill="#1F1F1F" d="M58.5,97.7h0.7l-1.1,3.5c-0.2,0.5-0.2,0.8-0.2,0.9c0,0.1,0,0.1,0.1,0.2c0,0,0.1,0.1,0.2,0.1
		c0.3,0,0.6-0.3,0.9-0.9h0.2c-0.2,0.4-0.4,0.7-0.7,1s-0.5,0.4-0.8,0.4c-0.2,0-0.3-0.1-0.4-0.2c-0.1-0.1-0.1-0.3-0.1-0.5
		c0-0.2,0-0.4,0.1-0.6c-0.2,0.3-0.4,0.6-0.8,0.9c-0.3,0.3-0.7,0.4-1,0.4c-0.3,0-0.5-0.1-0.7-0.4s-0.3-0.6-0.3-0.9
		c0-0.5,0.2-1.1,0.5-1.7s0.7-1.1,1.2-1.5s0.9-0.6,1.3-0.6c0.2,0,0.4,0,0.5,0.1c0.1,0.1,0.2,0.2,0.2,0.4L58.5,97.7z M55.4,101.6
		c0,0.3,0,0.5,0.1,0.6c0.1,0.1,0.2,0.2,0.4,0.2c0.3,0,0.6-0.2,0.9-0.6c0.4-0.4,0.7-1,0.9-1.8s0.4-1.3,0.4-1.6c0-0.2,0-0.3-0.1-0.4
		s-0.2-0.2-0.4-0.2c-0.5,0-1,0.5-1.5,1.4C55.7,100.2,55.4,101,55.4,101.6z"/>
	<path fill="#1F1F1F" d="M61.2,102.7h-0.7l2.1-6.8c0.1-0.4,0.2-0.6,0.2-0.7c0-0.1,0-0.2-0.1-0.2c-0.1,0-0.2-0.1-0.4-0.1H62l0.1-0.2
		c0.6,0,1.1-0.1,1.4-0.2h0.1l-1.3,4.4c0.7-0.9,1.4-1.3,1.9-1.3c0.3,0,0.5,0.1,0.6,0.2C65,97.8,65,98,65,98.2c0,0.2-0.1,0.6-0.3,1.3
		l-0.5,1.5c-0.2,0.6-0.3,0.9-0.3,1c0,0.1,0,0.2,0.1,0.2c0,0.1,0.1,0.1,0.2,0.1c0.1,0,0.3-0.1,0.5-0.3c0.2-0.2,0.3-0.4,0.5-0.6h0.3
		c-0.2,0.4-0.4,0.7-0.7,1s-0.5,0.4-0.8,0.4c-0.2,0-0.3-0.1-0.5-0.2c-0.1-0.1-0.2-0.3-0.2-0.5c0-0.2,0.1-0.7,0.3-1.3l0.5-1.4
		c0.2-0.6,0.3-1,0.3-1.2c0-0.1,0-0.2-0.1-0.2c-0.1,0-0.1-0.1-0.2-0.1c-0.2,0-0.4,0.1-0.6,0.2c-0.2,0.1-0.5,0.4-0.8,0.7
		c-0.3,0.3-0.5,0.7-0.6,1c-0.1,0.3-0.3,0.8-0.5,1.4L61.2,102.7z"/>
	<path fill="#1F1F1F" d="M69.5,100.9h0.2c-0.2,0.6-0.5,1-0.8,1.3c-0.3,0.3-0.7,0.5-1.1,0.5c-0.3,0-0.6-0.1-0.8-0.4s-0.3-0.6-0.3-1
		c0-0.5,0.1-1.1,0.4-1.7c0.3-0.6,0.6-1.1,1.1-1.5c0.5-0.4,0.9-0.6,1.3-0.6c0.2,0,0.4,0.1,0.5,0.2c0.1,0.1,0.2,0.3,0.2,0.5
		c0,0.3-0.1,0.4-0.3,0.4c-0.2,0-0.3-0.2-0.4-0.5c0-0.2-0.1-0.3-0.3-0.3c-0.2,0-0.5,0.2-0.8,0.6c-0.3,0.4-0.5,1-0.8,1.6
		s-0.3,1.2-0.3,1.6c0,0.2,0.1,0.4,0.2,0.5c0.1,0.1,0.3,0.2,0.4,0.2c0.2,0,0.5-0.1,0.8-0.4S69.4,101.4,69.5,100.9z"/>
	<path fill="#1F1F1F" d="M71.9,102.7h-0.7l2.1-6.8c0.1-0.4,0.2-0.6,0.2-0.7c0-0.1,0-0.2-0.1-0.2c-0.1,0-0.2-0.1-0.4-0.1h-0.2
		l0.1-0.2c0.6,0,1.1-0.1,1.4-0.2h0.1l-1.3,4.4c0.7-0.9,1.4-1.3,1.9-1.3c0.3,0,0.5,0.1,0.6,0.2c0.1,0.1,0.2,0.3,0.2,0.5
		c0,0.2-0.1,0.6-0.3,1.3L75,101c-0.2,0.6-0.3,0.9-0.3,1c0,0.1,0,0.2,0.1,0.2c0,0.1,0.1,0.1,0.2,0.1c0.1,0,0.3-0.1,0.5-0.3
		c0.2-0.2,0.3-0.4,0.5-0.6h0.3c-0.2,0.4-0.4,0.7-0.7,1s-0.5,0.4-0.8,0.4c-0.2,0-0.3-0.1-0.5-0.2c-0.1-0.1-0.2-0.3-0.2-0.5
		c0-0.2,0.1-0.7,0.3-1.3l0.5-1.4c0.2-0.6,0.3-1,0.3-1.2c0-0.1,0-0.2-0.1-0.2c-0.1,0-0.1-0.1-0.2-0.1c-0.2,0-0.4,0.1-0.6,0.2
		c-0.2,0.1-0.5,0.4-0.8,0.7c-0.3,0.3-0.5,0.7-0.6,1c-0.1,0.3-0.3,0.8-0.5,1.4L71.9,102.7z"/>
	<path fill="#1F1F1F" d="M77.6,101c0-0.5,0.1-1,0.3-1.5c0.2-0.6,0.5-1,0.9-1.4c0.4-0.3,0.8-0.5,1.2-0.5c0.4,0,0.6,0.1,0.9,0.4
		c0.2,0.3,0.3,0.7,0.3,1.2c0,0.6-0.1,1.2-0.4,1.8c-0.3,0.6-0.6,1-1,1.3c-0.4,0.3-0.8,0.4-1.1,0.4c-0.3,0-0.6-0.1-0.9-0.4
		C77.7,102.1,77.6,101.6,77.6,101z M78.2,101.7c0,0.2,0.1,0.4,0.2,0.5c0.1,0.1,0.3,0.2,0.5,0.2c0.5,0,1-0.5,1.3-1.5
		c0.3-1,0.5-1.8,0.5-2.3c0-0.3-0.1-0.5-0.2-0.6c-0.1-0.1-0.3-0.2-0.5-0.2c-0.5,0-0.9,0.5-1.3,1.4C78.4,100.2,78.2,101,78.2,101.7z"
		/>
	<path fill="#1F1F1F" d="M82.4,102.1c0-0.2,0.1-0.3,0.2-0.4c0.1-0.1,0.3-0.2,0.4-0.2c0.2,0,0.3,0.1,0.4,0.2s0.2,0.3,0.2,0.4
		c0,0.2-0.1,0.3-0.2,0.4s-0.3,0.2-0.4,0.2c-0.2,0-0.3-0.1-0.4-0.2C82.5,102.4,82.4,102.3,82.4,102.1z"/>
	<path fill="#1F1F1F" d="M93.3,101.5h0.3c-0.2,0.4-0.4,0.7-0.7,0.9s-0.5,0.4-0.8,0.4c-0.2,0-0.3-0.1-0.5-0.2
		c-0.1-0.1-0.2-0.3-0.2-0.5c0-0.2,0.1-0.6,0.3-1.1l0.6-1.6c0.2-0.5,0.2-0.8,0.2-0.9c0-0.1,0-0.2-0.1-0.3C92.4,98,92.3,98,92.2,98
		c-0.3,0-0.7,0.3-1.2,0.8c-0.5,0.6-0.9,1.7-1.4,3.3l-0.2,0.5h-0.7l1-3.2c0.2-0.6,0.2-0.9,0.2-1.1c0-0.1,0-0.2-0.1-0.3
		c0-0.1-0.1-0.1-0.2-0.1c-0.3,0-0.6,0.3-1.1,0.9s-0.9,1.6-1.4,3.2l-0.2,0.6h-0.7l1.1-3.6c0.1-0.5,0.2-0.8,0.2-0.9c0-0.1,0-0.1,0-0.1
		s-0.1,0-0.1,0c-0.1,0-0.2,0.1-0.4,0.2c-0.2,0.2-0.3,0.4-0.5,0.7h-0.3c0.2-0.4,0.4-0.7,0.7-1c0.3-0.3,0.5-0.4,0.7-0.4
		c0.2,0,0.3,0.1,0.4,0.2s0.1,0.2,0.1,0.4c0,0.3-0.1,0.8-0.4,1.5c0.3-0.6,0.6-1,1-1.4s0.8-0.6,1.1-0.6c0.2,0,0.4,0.1,0.5,0.2
		c0.1,0.1,0.2,0.3,0.2,0.6c0,0.3-0.1,0.7-0.2,1.2c0.3-0.7,0.7-1.2,1.1-1.5c0.4-0.3,0.7-0.5,1-0.5c0.2,0,0.4,0.1,0.6,0.2
		c0.2,0.2,0.2,0.4,0.2,0.6c0,0.2,0,0.3,0,0.4c0,0.1-0.1,0.4-0.3,0.9l-0.5,1.3c-0.2,0.5-0.3,0.9-0.3,1c0,0.1,0,0.2,0.1,0.2
		c0,0,0.1,0.1,0.2,0.1c0.1,0,0.3-0.1,0.5-0.2C93,102,93.1,101.8,93.3,101.5z"/>
	<path fill="#1F1F1F" d="M97.7,101.1H98c-0.5,1.1-1.1,1.7-1.9,1.7c-0.3,0-0.6-0.1-0.8-0.3c-0.2-0.2-0.3-0.5-0.3-0.9
		c0-0.5,0.1-1,0.4-1.7c0.3-0.6,0.6-1.1,1.1-1.6c0.5-0.4,0.9-0.7,1.3-0.7c0.2,0,0.4,0.1,0.5,0.2c0.1,0.1,0.2,0.3,0.2,0.5
		c0,0.4-0.2,0.8-0.6,1.2s-1.1,0.8-1.9,1.1c-0.1,0.3-0.2,0.7-0.2,1c0,0.3,0,0.4,0.1,0.6c0.1,0.1,0.2,0.2,0.4,0.2
		C96.8,102.4,97.3,102,97.7,101.1z M96,100.4c0.5-0.2,1-0.5,1.4-0.9s0.6-0.8,0.6-1.1c0-0.1,0-0.3-0.1-0.3c-0.1-0.1-0.2-0.1-0.3-0.1
		c-0.2,0-0.5,0.2-0.8,0.7C96.4,99,96.1,99.6,96,100.4z"/>
</g>
</svg>
