<?xml version="1.0" encoding="utf-8"?>
<!-- Generator: Adobe Illustrator 18.1.1, SVG Export Plug-In . SVG Version: 6.00 Build 0)  -->
<svg version="1.1" id="Layer_1" xmlns="http://www.w3.org/2000/svg" xmlns:xlink="http://www.w3.org/1999/xlink" x="0px" y="0px"
	 viewBox="1.3 78.6 97.8 10.9" enable-background="new 1.3 78.6 97.8 10.9" xml:space="preserve">
<g enable-background="new    ">
	<path fill="#660000" d="M5.1,88.9c0.3,0,0.5,0,0.8-0.1c0.2-0.1,0.5-0.2,0.7-0.3C6.7,88.3,6.8,88.2,7,88c0.1-0.2,0.2-0.4,0.2-0.7
		S7.1,86.7,7,86.5c-0.2-0.2-0.4-0.5-0.6-0.7c-0.2-0.2-0.7-0.4-1-0.6c-0.3-0.2-0.7-0.4-1-0.5c-0.3-0.1-0.7-0.4-1-0.6
		c-0.3-0.2-0.6-0.4-0.9-0.7c-0.3-0.2-0.5-0.5-0.6-0.8c-0.2-0.3-0.2-0.6-0.2-1c0-0.4,0.1-0.8,0.2-1.1s0.4-0.6,0.6-0.9
		C2.7,79.3,3,79.2,3.4,79c0.4-0.2,0.9-0.2,1.4-0.2c1,0,1.7,0.2,2.3,0.6c0.6,0.4,1,1,1.2,1.8l-0.9,0.4C7.3,81.3,7.2,81,7,80.7
		c-0.2-0.3-0.3-0.5-0.5-0.6c-0.2-0.2-0.5-0.3-0.8-0.4c-0.3-0.1-0.6-0.2-1-0.2c-0.3,0-0.6,0-0.8,0.1c-0.2,0.1-0.4,0.2-0.6,0.4
		C3.2,80.1,3,80.3,3,80.5c-0.1,0.2-0.1,0.4-0.1,0.6c0,0.3,0.1,0.5,0.2,0.7c0.2,0.2,0.4,0.4,0.7,0.6c0.3,0.2,0.6,0.4,0.9,0.6
		c0.3,0.2,0.7,0.3,1,0.5c0.4,0.2,0.7,0.4,1.1,0.6c0.3,0.2,0.7,0.4,0.9,0.7c0.2,0.3,0.5,0.5,0.7,0.8s0.2,0.6,0.2,1s-0.1,0.8-0.2,1.1
		c-0.2,0.4-0.4,0.7-0.7,0.9c-0.3,0.3-0.7,0.5-1.2,0.6c-0.5,0.2-1,0.2-1.6,0.2c-0.5,0-0.9-0.1-1.3-0.2s-0.7-0.3-1-0.5
		c-0.3-0.2-0.5-0.5-0.8-0.8c-0.2-0.3-0.4-0.6-0.5-1l0.9-0.4c0.2,0.7,0.6,1.2,1.1,1.6C3.8,88.7,4.4,88.9,5.1,88.9z"/>
	<path fill="#660000" d="M15.7,78.8l4.8,10.5h-1.7l-1.6-3.4h-4.4l-1.6,3.4h-0.9l4.9-10.5H15.7z M13.1,85.2h3.8l-1.9-4L13.1,85.2z"/>
	<path fill="#660000" d="M22.9,79h3.5c0.6,0,1.2,0.1,1.6,0.2s0.9,0.3,1.2,0.6c0.3,0.2,0.5,0.5,0.7,0.8c0.2,0.3,0.2,0.7,0.2,1.1
		c0,0.3-0.1,0.6-0.2,0.9c-0.1,0.3-0.3,0.5-0.5,0.7c-0.2,0.2-0.5,0.4-0.8,0.6c-0.3,0.2-0.6,0.3-1,0.4l3.7,5h-2l-3.6-4.8h-1.2v4.8
		h-1.7V79H22.9z M24.6,84h1c0.4,0,0.7-0.1,1.1-0.2c0.3-0.1,0.6-0.2,0.9-0.4c0.2-0.2,0.4-0.4,0.6-0.7c0.1-0.3,0.2-0.6,0.2-0.9
		s-0.1-0.6-0.2-0.8c-0.1-0.3-0.3-0.5-0.4-0.7c-0.2-0.2-0.4-0.3-0.7-0.4c-0.3-0.1-0.6-0.2-0.9-0.2h-1.5V84H24.6z"/>
	<path fill="#660000" d="M37.8,78.8l4.8,10.5h-1.7l-1.6-3.4h-4.4l-1.6,3.4h-0.9l4.9-10.5H37.8z M35.2,85.2H39l-1.9-4L35.2,85.2z"/>
	<path fill="#660000" d="M46.6,84.4v4.9h-1.7V79h1.7v4.7h5.2V79h1.7v10.2h-1.7v-4.9h-5.2V84.4z"/>
</g>
<g enable-background="new    ">
	<path fill="#333333" d="M64.7,84.2c0,0.7,0.1,1.4,0.3,1.9c0.2,0.5,0.5,1,0.9,1.4c0.4,0.4,0.8,0.7,1.3,0.9c0.5,0.2,1.1,0.3,1.7,0.3
		c0.4,0,0.7-0.1,1-0.2c0.3-0.1,0.6-0.3,0.9-0.5c0.3-0.2,0.5-0.5,0.8-0.8c0.2-0.3,0.4-0.6,0.6-0.9l0.7,0.5c-0.2,0.3-0.5,0.7-0.7,1
		c-0.2,0.3-0.6,0.6-1,0.8c-0.4,0.2-0.8,0.4-1.3,0.6c-0.5,0.1-1,0.2-1.6,0.2c-0.8,0-1.6-0.1-2.3-0.4s-1.3-0.7-1.8-1.2
		c-0.5-0.5-0.9-1-1.1-1.7c-0.2-0.7-0.4-1.3-0.4-2.1s0.1-1.4,0.4-2.1c0.3-0.7,0.7-1.2,1.2-1.7c0.5-0.5,1.1-0.9,1.8-1.2
		s1.5-0.4,2.3-0.4c0.5,0,1,0.1,1.5,0.2s0.9,0.3,1.3,0.6c0.4,0.3,0.7,0.5,1,0.8s0.5,0.6,0.8,1L72.2,82c-0.4-0.8-0.9-1.4-1.4-1.8
		c-0.5-0.4-1.1-0.6-1.8-0.6c-0.6,0-1.1,0.1-1.7,0.3c-0.5,0.2-1,0.5-1.3,0.9c-0.3,0.4-0.7,0.9-0.9,1.5C64.8,82.8,64.7,83.5,64.7,84.2
		z"/>
	<path fill="#333333" d="M77.8,84.4v4.9h-1.7V79h1.7v4.7H83V79h1.7v10.2H83v-4.9h-5.2V84.4z"/>
	<path fill="#333333" d="M93.5,89.6c-0.5,0-1-0.1-1.5-0.2c-0.5-0.1-0.9-0.3-1.4-0.5c-0.4-0.2-0.8-0.5-1.1-0.8
		c-0.3-0.3-0.6-0.7-0.9-1.1c-0.2-0.4-0.4-0.8-0.6-1.3c-0.1-0.5-0.2-0.9-0.2-1.4s0.1-1,0.2-1.4c0.1-0.5,0.3-0.9,0.6-1.3
		c0.3-0.4,0.5-0.8,0.9-1.1c0.3-0.3,0.7-0.6,1.1-0.8c0.4-0.2,0.9-0.4,1.4-0.5c0.5-0.1,1-0.2,1.5-0.2c0.8,0,1.5,0.1,2.2,0.4
		s1.3,0.7,1.8,1.1s0.9,1,1.2,1.7c0.3,0.6,0.4,1.3,0.4,2.1c0,0.5-0.1,1-0.2,1.4c-0.1,0.4-0.3,0.9-0.6,1.3c-0.2,0.4-0.5,0.8-0.9,1.1
		c-0.3,0.3-0.7,0.6-1.1,0.8c-0.4,0.2-0.9,0.4-1.4,0.5C94.4,89.5,94,89.6,93.5,89.6z M93.5,89c0.6,0,1.1-0.1,1.5-0.4
		c0.4-0.2,0.8-0.6,1.1-1c0.3-0.4,0.5-1,0.7-1.6c0.2-0.6,0.2-1.3,0.2-2c0-0.7-0.1-1.3-0.2-1.9c-0.2-0.6-0.4-1.1-0.7-1.5
		c-0.3-0.4-0.7-0.8-1.1-1c-0.5-0.2-1-0.4-1.5-0.4c-0.6,0-1.1,0.1-1.6,0.4c-0.5,0.2-0.8,0.6-1.1,1s-0.5,0.9-0.7,1.5
		c-0.2,0.6-0.2,1.2-0.2,1.9c0,0.7,0.1,1.4,0.2,2c0.2,0.6,0.4,1.1,0.7,1.6c0.3,0.4,0.7,0.8,1.1,1C92.4,88.9,92.9,89,93.5,89z"/>
</g>
</svg>
