<?xml version="1.0" encoding="utf-8"?>
<!-- Generator: Adobe Illustrator 18.1.1, SVG Export Plug-In . SVG Version: 6.00 Build 0)  -->
<svg version="1.1" id="Layer_1" xmlns="http://www.w3.org/2000/svg" xmlns:xlink="http://www.w3.org/1999/xlink" x="0px" y="0px"
	 viewBox="-0.3 44 107 12.1" enable-background="new -0.3 44 107 12.1" xml:space="preserve">
<g enable-background="new    ">
	<path fill="#1F1F1F" d="M2.8,51.9c0,0.4-0.2,0.8-0.5,1.1S1.6,53.5,1,53.5c-0.4,0-0.8-0.1-1-0.3s-0.3-0.4-0.3-0.7
		c0-0.1,0-0.3,0.1-0.3S-0.1,52,0,52c0.3,0,0.3,0.1,0.3,0.3c0,0.1,0,0.2,0,0.3c0,0.1,0,0.1,0,0.1c0,0.1,0.1,0.2,0.2,0.3
		C0.7,53,0.8,53,1,53s0.6-0.1,0.8-0.3C2,52.5,2.1,52.3,2.1,52c0-0.3-0.2-0.8-0.5-1.3C1.2,50,1,49.5,1,49.1c0-0.4,0.2-0.8,0.5-1
		c0.3-0.3,0.7-0.4,1.1-0.4c0.3,0,0.6,0.1,0.8,0.3c0.3,0.3,0.5,0.4,0.5,0.7c0,0.3-0.1,0.3-0.3,0.3c-0.2,0-0.3-0.2-0.3-0.4
		c-0.1-0.3-0.3-0.4-0.6-0.4c-0.3,0-0.4,0.1-0.7,0.2c-0.2,0.2-0.3,0.3-0.3,0.5c0,0.3,0.2,0.7,0.4,1.2s0.4,0.8,0.6,1.1
		C2.8,51.4,2.8,51.6,2.8,51.9z"/>
	<path fill="#1F1F1F" d="M9.3,48H10l-1.2,3.8c-0.2,0.6-0.3,0.8-0.3,1c0,0.1,0,0.2,0.1,0.2C8.7,53,8.8,53,8.8,53c0.3,0,0.7-0.3,1-1
		h0.3c-0.2,0.4-0.4,0.8-0.8,1.1s-0.6,0.5-0.8,0.5c-0.2,0-0.3-0.1-0.5-0.3c-0.1-0.2-0.2-0.3-0.2-0.6c0-0.2,0.1-0.4,0.2-0.7
		c-0.2,0.3-0.5,0.7-0.8,1c-0.3,0.3-0.8,0.5-1,0.5c-0.3,0-0.6-0.2-0.8-0.4c-0.2-0.3-0.3-0.6-0.3-1c0-0.6,0.2-1.2,0.5-1.8
		c0.3-0.7,0.8-1.3,1.3-1.7c0.5-0.4,1-0.7,1.4-0.7c0.3,0,0.4,0.1,0.5,0.2c0.2,0.1,0.3,0.3,0.3,0.5L9.3,48z M5.9,52.2
		c0,0.3,0.1,0.5,0.2,0.7c0.1,0.2,0.3,0.3,0.4,0.3c0.3,0,0.6-0.2,1-0.6c0.4-0.4,0.8-1.1,1-1.9c0.3-0.8,0.4-1.4,0.4-1.8
		c0-0.2-0.1-0.3-0.2-0.5c-0.1-0.2-0.3-0.2-0.4-0.2c-0.5,0-1.1,0.5-1.7,1.6C6.2,50.7,5.9,51.6,5.9,52.2z"/>
	<path fill="#1F1F1F" d="M11.9,49.5h-0.3c0.2-0.5,0.4-0.9,0.7-1.3s0.5-0.5,0.8-0.5c0.2,0,0.3,0.1,0.4,0.3c0.1,0.2,0.2,0.3,0.2,0.7
		s-0.1,0.9-0.3,1.6c0-0.1,0.1-0.2,0.3-0.5c0.3-0.8,0.6-1.3,0.8-1.6c0.3-0.3,0.5-0.5,0.8-0.5c0.2,0,0.3,0.1,0.3,0.2
		c0.1,0.1,0.2,0.2,0.2,0.3c0,0.2,0,0.3-0.1,0.3c-0.3,0.2-0.4,0.3-0.5,0.3c-0.1,0-0.3-0.1-0.3-0.3c-0.1-0.1-0.1-0.1-0.2-0.1
		c-0.3,0-0.6,0.5-1,1.6c-0.4,1-0.8,2-1.1,2.9l-0.2,0.5h-0.8l1-3.4c0.2-0.7,0.3-1.1,0.3-1.3c0-0.1,0-0.3-0.1-0.3
		c0-0.1-0.1-0.1-0.2-0.1c-0.2,0-0.3,0.2-0.5,0.4C12.2,49,12,49.3,11.9,49.5z"/>
	<path fill="#1F1F1F" d="M20.6,48h0.8l-1.2,3.8c-0.2,0.6-0.3,0.8-0.3,1c0,0.1,0,0.2,0.1,0.2c0,0.1,0.1,0.1,0.2,0.1
		c0.3,0,0.7-0.3,1-1h0.3c-0.2,0.4-0.4,0.8-0.8,1.1s-0.6,0.5-0.8,0.5c-0.2,0-0.3-0.1-0.5-0.3c-0.1-0.2-0.2-0.3-0.2-0.6
		c0-0.2,0.1-0.4,0.2-0.7c-0.2,0.3-0.5,0.7-0.8,1c-0.3,0.3-0.8,0.5-1,0.5c-0.3,0-0.6-0.2-0.8-0.4c-0.3-0.3-0.3-0.6-0.3-1
		c0-0.6,0.2-1.2,0.5-1.8c0.3-0.7,0.8-1.3,1.3-1.7c0.5-0.4,1-0.7,1.4-0.7c0.3,0,0.4,0.1,0.5,0.2c0.2,0.1,0.3,0.3,0.3,0.5L20.6,48z
		 M17.3,52.2c0,0.3,0.1,0.5,0.2,0.7c0.1,0.2,0.3,0.3,0.4,0.3c0.3,0,0.6-0.2,1-0.6c0.4-0.4,0.8-1.1,1-1.9c0.3-0.8,0.4-1.4,0.4-1.8
		c0-0.2-0.1-0.3-0.2-0.5c-0.1-0.2-0.3-0.2-0.4-0.2c-0.5,0-1.1,0.5-1.7,1.6C17.5,50.7,17.3,51.6,17.3,52.2z"/>
	<path fill="#1F1F1F" d="M23.4,53.4h-0.8l2.3-7.4c0.2-0.4,0.2-0.7,0.2-0.8s0-0.2-0.1-0.3c-0.1-0.1-0.2-0.1-0.4-0.1h-0.2l0.1-0.3
		c0.7,0,1.2-0.1,1.5-0.3h0.2l-1.5,4.8c0.8-0.9,1.5-1.4,2.1-1.4c0.3,0,0.5,0.1,0.7,0.2s0.3,0.3,0.3,0.6c0,0.2-0.2,0.7-0.4,1.4
		l-0.6,1.6c-0.3,0.7-0.3,1-0.3,1.1c0,0.1,0,0.2,0.1,0.3c0.1,0.1,0.1,0.1,0.2,0.1c0.2,0,0.3-0.1,0.5-0.3c0.2-0.2,0.3-0.4,0.5-0.7H28
		c-0.3,0.4-0.5,0.8-0.8,1.1c-0.3,0.3-0.6,0.4-0.8,0.4c-0.2,0-0.3-0.1-0.5-0.3c-0.2-0.2-0.3-0.3-0.3-0.6c0-0.3,0.1-0.8,0.3-1.3
		l0.6-1.5c0.3-0.7,0.4-1.1,0.4-1.3c0-0.1,0-0.2-0.1-0.3c-0.1-0.1-0.2-0.1-0.3-0.1c-0.2,0-0.4,0.1-0.7,0.3c-0.3,0.2-0.5,0.4-0.8,0.8
		c-0.3,0.3-0.5,0.8-0.6,1c-0.2,0.3-0.3,0.8-0.5,1.5L23.4,53.4z"/>
	<path fill="#1F1F1F" d="M38.3,47.1l-0.8,2.6c-0.4,1.3-0.6,2.2-0.6,2.4c0,0.2,0.1,0.3,0.2,0.3c0.1,0.1,0.2,0.2,0.3,0.2
		c0.3,0,0.8-0.2,1.2-0.5s0.8-0.8,1.1-1.6c0.3-0.7,0.4-1.4,0.4-2.2c0-1.2-0.4-2.1-1.2-2.8c-0.8-0.8-1.8-1.1-3-1.1
		c-1,0-1.9,0.3-2.8,0.8c-0.8,0.5-1.5,1.3-2,2.3c-0.5,1-0.8,2-0.8,3.1c0,1.5,0.5,2.8,1.4,3.7c0.9,0.9,2.2,1.4,3.6,1.4
		c0.8,0,1.7-0.2,2.3-0.5c0.8-0.3,1.3-0.8,1.8-1.3s0.8-1.1,1.1-1.8h0.3c-0.3,1.2-1.1,2.1-2.1,2.8c-1,0.8-2.2,1.1-3.4,1.1
		c-1.7,0-3-0.6-4-1.7c-1.1-1.1-1.6-2.4-1.6-4.1c0-1.8,0.6-3.3,1.8-4.5c1.2-1.3,2.7-1.8,4.4-1.8c1.3,0,2.5,0.4,3.3,1.3
		c0.8,0.8,1.3,1.9,1.3,3.2c0,1.2-0.3,2.3-1,3.2c-0.7,0.9-1.5,1.3-2.5,1.3c-0.3,0-0.6-0.1-0.8-0.3C36.1,52.5,36,52.3,36,52
		c0-0.3,0-0.6,0.1-0.9c-1,1.3-1.8,1.8-2.5,1.8c-0.3,0-0.7-0.2-0.8-0.4c-0.3-0.3-0.3-0.7-0.3-1.1c0-0.6,0.2-1.3,0.6-2
		c0.4-0.8,0.8-1.3,1.4-1.8s1.1-0.8,1.6-0.8c0.3,0,0.5,0.1,0.8,0.3c0.2,0.2,0.3,0.3,0.4,0.7l0.3-0.7L38.3,47.1z M36,47.4
		c-0.6,0-1.2,0.5-1.8,1.5c-0.6,1-0.9,1.8-0.9,2.5c0,0.3,0.1,0.5,0.2,0.7c0.2,0.2,0.3,0.3,0.6,0.3c0.4,0,0.8-0.3,1.3-0.8
		c0.5-0.5,0.8-1.1,1-1.8c0.2-0.7,0.3-1.1,0.3-1.5c0-0.3-0.1-0.5-0.3-0.7C36.4,47.5,36.3,47.4,36,47.4z"/>
	<path fill="#1F1F1F" d="M45.5,51.9c0,0.4-0.2,0.8-0.5,1.1c-0.3,0.3-0.8,0.5-1.3,0.5c-0.4,0-0.8-0.1-1-0.3c-0.3-0.2-0.3-0.4-0.3-0.7
		c0-0.1,0-0.3,0.1-0.3s0.2-0.2,0.3-0.2c0.3,0,0.3,0.1,0.3,0.3c0,0.1,0,0.2,0,0.3c0,0.1,0,0.1,0,0.1c0,0.1,0.1,0.2,0.2,0.3
		c0.2,0.1,0.3,0.1,0.5,0.1s0.6-0.1,0.8-0.3c0.3-0.2,0.3-0.4,0.3-0.8c0-0.3-0.2-0.8-0.5-1.3c-0.4-0.7-0.6-1.2-0.6-1.5
		c0-0.4,0.2-0.8,0.5-1c0.3-0.3,0.7-0.4,1.1-0.4c0.3,0,0.6,0.1,0.8,0.3c0.3,0.2,0.3,0.3,0.3,0.5c0,0.3-0.1,0.3-0.3,0.3
		s-0.3-0.2-0.3-0.4c-0.1-0.3-0.3-0.4-0.6-0.4c-0.3,0-0.4,0.1-0.7,0.2c-0.2,0.2-0.3,0.3-0.3,0.5c0,0.3,0.2,0.7,0.4,1.2
		s0.4,0.8,0.6,1.1C45.4,51.4,45.5,51.6,45.5,51.9z"/>
	<path fill="#1F1F1F" d="M52,48h0.8l-1.2,3.8c-0.2,0.6-0.3,0.8-0.3,1c0,0.1,0,0.2,0.1,0.2c0,0.1,0.1,0.1,0.2,0.1c0.3,0,0.7-0.3,1-1
		h0.3c-0.2,0.4-0.4,0.8-0.8,1.1s-0.6,0.5-0.8,0.5c-0.2,0-0.3-0.1-0.5-0.3c-0.1-0.2-0.2-0.3-0.2-0.6c0-0.2,0.1-0.4,0.2-0.7
		c-0.2,0.3-0.5,0.7-0.8,1c-0.3,0.3-0.8,0.5-1,0.5c-0.3,0-0.6-0.2-0.8-0.4s-0.3-0.6-0.3-1c0-0.6,0.2-1.2,0.5-1.8
		c0.3-0.7,0.8-1.3,1.3-1.7c0.5-0.4,1-0.7,1.4-0.7c0.3,0,0.4,0.1,0.5,0.2c0.2,0.1,0.3,0.3,0.3,0.5L52,48z M48.6,52.2
		c0,0.3,0.1,0.5,0.2,0.7c0.1,0.2,0.3,0.3,0.4,0.3c0.3,0,0.6-0.2,1-0.6c0.4-0.4,0.8-1.1,1-1.9c0.3-0.8,0.4-1.4,0.4-1.8
		c0-0.2-0.1-0.3-0.2-0.5c-0.1-0.2-0.3-0.2-0.4-0.2c-0.5,0-1.1,0.5-1.7,1.6C48.9,50.7,48.6,51.6,48.6,52.2z"/>
	<path fill="#1F1F1F" d="M54.6,49.5h-0.3c0.2-0.5,0.4-0.9,0.7-1.3s0.5-0.5,0.8-0.5c0.2,0,0.3,0.1,0.4,0.3c0.1,0.2,0.2,0.3,0.2,0.7
		s-0.1,0.9-0.3,1.6c0-0.1,0.1-0.2,0.3-0.5c0.3-0.8,0.6-1.3,0.8-1.6c0.3-0.3,0.5-0.5,0.8-0.5c0.2,0,0.3,0.1,0.3,0.2
		c0.1,0.1,0.2,0.2,0.2,0.3c0,0.2,0,0.3-0.1,0.3c-0.3,0.2-0.4,0.3-0.5,0.3s-0.3-0.1-0.3-0.3c-0.1-0.1-0.1-0.1-0.2-0.1
		c-0.3,0-0.6,0.5-1,1.6c-0.4,1-0.8,2-1.1,2.9l-0.2,0.5h-0.8l1-3.4c0.2-0.7,0.3-1.1,0.3-1.3c0-0.1,0-0.3-0.1-0.3
		c0-0.1-0.1-0.1-0.2-0.1c-0.2,0-0.3,0.2-0.5,0.4C54.9,49,54.7,49.3,54.6,49.5z"/>
	<path fill="#1F1F1F" d="M63.3,48H64l-1.2,3.8c-0.2,0.6-0.3,0.8-0.3,1c0,0.1,0,0.2,0.1,0.2c0,0.1,0.1,0.1,0.2,0.1c0.3,0,0.7-0.3,1-1
		h0.3c-0.2,0.4-0.4,0.8-0.8,1.1s-0.6,0.5-0.8,0.5c-0.2,0-0.3-0.1-0.5-0.3c-0.1-0.2-0.2-0.3-0.2-0.6c0-0.2,0.1-0.4,0.2-0.7
		c-0.2,0.3-0.5,0.7-0.8,1c-0.3,0.3-0.8,0.5-1,0.5c-0.3,0-0.6-0.2-0.8-0.4c-0.3-0.3-0.3-0.6-0.3-1c0-0.6,0.2-1.2,0.5-1.8
		c0.3-0.7,0.8-1.3,1.3-1.7c0.5-0.4,1-0.7,1.4-0.7c0.3,0,0.4,0.1,0.5,0.2c0.2,0.1,0.3,0.3,0.3,0.5L63.3,48z M59.9,52.2
		c0,0.3,0.1,0.5,0.2,0.7c0.1,0.2,0.3,0.3,0.4,0.3c0.3,0,0.6-0.2,1-0.6c0.4-0.4,0.8-1.1,1-1.9c0.3-0.8,0.4-1.4,0.4-1.8
		c0-0.2-0.1-0.3-0.2-0.5c-0.1-0.2-0.3-0.2-0.4-0.2c-0.5,0-1.1,0.5-1.7,1.6C60.2,50.7,59.9,51.6,59.9,52.2z"/>
	<path fill="#1F1F1F" d="M66.1,53.4h-0.8l2.3-7.4c0.2-0.4,0.2-0.7,0.2-0.8s0-0.2-0.1-0.3c-0.1-0.1-0.2-0.1-0.4-0.1h-0.2l0.1-0.3
		c0.7,0,1.2-0.1,1.5-0.3h0.2l-1.5,4.8c0.8-0.9,1.5-1.4,2.1-1.4c0.3,0,0.5,0.1,0.7,0.2c0.2,0.1,0.3,0.3,0.3,0.6
		c0,0.2-0.2,0.7-0.4,1.4l-0.6,1.6c-0.3,0.7-0.3,1-0.3,1.1c0,0.1,0,0.2,0.1,0.3c0.1,0.1,0.1,0.1,0.2,0.1c0.2,0,0.3-0.1,0.5-0.3
		c0.2-0.2,0.3-0.4,0.5-0.7h0.3c-0.3,0.4-0.5,0.8-0.8,1.1c-0.3,0.3-0.6,0.4-0.8,0.4c-0.2,0-0.3-0.1-0.5-0.3c-0.2-0.2-0.3-0.3-0.3-0.6
		c0-0.3,0.1-0.8,0.3-1.3l0.6-1.5c0.3-0.7,0.4-1.1,0.4-1.3c0-0.1,0-0.2-0.1-0.3c-0.1-0.1-0.2-0.1-0.3-0.1c-0.2,0-0.4,0.1-0.7,0.3
		c-0.3,0.2-0.5,0.4-0.8,0.8c-0.3,0.3-0.5,0.8-0.6,1c-0.2,0.3-0.3,0.8-0.5,1.5L66.1,53.4z"/>
	<path fill="#1F1F1F" d="M75.2,51.5h0.3C75.2,52,75,52.5,74.5,53c-0.4,0.3-0.8,0.6-1.2,0.6c-0.3,0-0.6-0.2-0.8-0.4s-0.3-0.6-0.3-1.1
		c0-0.6,0.2-1.2,0.4-1.8c0.3-0.7,0.7-1.2,1.2-1.7c0.5-0.4,1-0.7,1.3-0.7c0.3,0,0.4,0.1,0.6,0.3c0.2,0.2,0.3,0.3,0.3,0.5
		c0,0.3-0.1,0.4-0.3,0.4s-0.4-0.2-0.4-0.5c0-0.3-0.1-0.4-0.3-0.4c-0.3,0-0.5,0.3-0.8,0.7s-0.6,1-0.8,1.8C73,51.3,73,51.9,73,52.2
		c0,0.3,0.1,0.4,0.2,0.6s0.3,0.3,0.4,0.3c0.3,0,0.5-0.2,0.8-0.4C74.8,52.4,75,52,75.2,51.5z"/>
	<path fill="#1F1F1F" d="M77.8,53.4h-0.8l2.3-7.4c0.2-0.4,0.2-0.7,0.2-0.8s0-0.2-0.1-0.3c-0.1-0.1-0.2-0.1-0.4-0.1h-0.2l0.1-0.3
		c0.7,0,1.2-0.1,1.5-0.3h0.2l-1.5,4.8c0.8-0.9,1.5-1.4,2.1-1.4c0.3,0,0.5,0.1,0.7,0.2c0.2,0.1,0.3,0.3,0.3,0.6
		c0,0.2-0.2,0.7-0.4,1.4l-0.6,1.6c-0.3,0.7-0.3,1-0.3,1.1c0,0.1,0,0.2,0.1,0.3C80.9,53,80.9,53,81,53c0.2,0,0.3-0.1,0.5-0.3
		c0.2-0.2,0.3-0.4,0.5-0.7h0.3c-0.3,0.4-0.5,0.8-0.8,1.1c-0.3,0.3-0.6,0.4-0.8,0.4c-0.2,0-0.3-0.1-0.5-0.3C80.1,53.1,80,53,80,52.7
		c0-0.3,0.1-0.8,0.3-1.3l0.6-1.5c0.3-0.7,0.4-1.1,0.4-1.3c0-0.1,0-0.2-0.1-0.3c-0.1-0.1-0.2-0.1-0.3-0.1c-0.2,0-0.4,0.1-0.7,0.3
		c-0.3,0.2-0.5,0.4-0.8,0.8c-0.3,0.3-0.5,0.8-0.6,1c-0.2,0.3-0.3,0.8-0.5,1.5L77.8,53.4z"/>
	<path fill="#1F1F1F" d="M84,51.6c0-0.5,0.1-1.1,0.3-1.7s0.6-1.1,1-1.5s0.9-0.6,1.3-0.6s0.7,0.2,0.9,0.5c0.3,0.3,0.3,0.8,0.3,1.3
		c0,0.7-0.2,1.3-0.4,1.9c-0.3,0.6-0.6,1.1-1,1.4c-0.4,0.3-0.8,0.5-1.3,0.5c-0.3,0-0.7-0.2-0.9-0.4C84.1,52.7,84,52.3,84,51.6z
		 M84.7,52.3c0,0.3,0.1,0.4,0.2,0.6s0.3,0.3,0.5,0.3c0.6,0,1.1-0.6,1.4-1.7c0.3-1.1,0.6-1.9,0.6-2.5c0-0.3-0.1-0.5-0.2-0.7
		C87.1,48.1,87,48,86.7,48c-0.5,0-1,0.5-1.4,1.5C84.9,50.7,84.7,51.5,84.7,52.3z"/>
	<path fill="#1F1F1F" d="M89.2,52.8c0-0.2,0.1-0.3,0.2-0.5c0.2-0.2,0.3-0.2,0.5-0.2s0.3,0.1,0.5,0.2c0.2,0.2,0.2,0.3,0.2,0.5
		s-0.1,0.3-0.2,0.5c-0.2,0.2-0.3,0.2-0.5,0.2c-0.2,0-0.3-0.1-0.5-0.2C89.3,53.1,89.2,53,89.2,52.8z"/>
	<path fill="#1F1F1F" d="M101.1,52h0.3c-0.2,0.4-0.4,0.8-0.8,1s-0.6,0.4-0.8,0.4c-0.2,0-0.3-0.1-0.5-0.2C99.1,53.1,99,53,99,52.7
		c0-0.3,0.1-0.7,0.3-1.3l0.6-1.8c0.2-0.5,0.3-0.8,0.3-1s0-0.3-0.1-0.3c-0.1-0.1-0.2-0.1-0.3-0.1c-0.3,0-0.8,0.3-1.3,0.9
		s-1,1.8-1.6,3.6l-0.2,0.6H96l1.1-3.4c0.2-0.6,0.3-1,0.3-1.3c0-0.2,0-0.3-0.1-0.3c-0.1-0.1-0.2-0.1-0.3-0.1c-0.3,0-0.7,0.3-1.3,0.9
		c-0.5,0.7-1,1.8-1.5,3.5l-0.2,0.7h-0.8l1.2-3.8c0.2-0.5,0.3-0.8,0.3-0.9s0-0.1,0-0.2l-0.1-0.1c-0.1,0-0.3,0.1-0.4,0.3
		c-0.2,0.2-0.3,0.4-0.6,0.8h-0.3c0.2-0.4,0.4-0.8,0.8-1.1c0.3-0.3,0.6-0.4,0.8-0.4c0.2,0,0.3,0.1,0.4,0.2s0.2,0.3,0.2,0.4
		c0,0.3-0.2,0.8-0.4,1.6c0.3-0.6,0.7-1.2,1.1-1.6s0.8-0.7,1.2-0.7c0.3,0,0.4,0.1,0.6,0.3c0.1,0.2,0.2,0.3,0.2,0.7s-0.1,0.8-0.3,1.3
		c0.3-0.8,0.8-1.3,1.2-1.7c0.4-0.3,0.8-0.5,1.1-0.5c0.3,0,0.4,0.1,0.6,0.3c0.2,0.2,0.3,0.4,0.3,0.7c0,0.2,0,0.3,0,0.4
		s-0.2,0.4-0.3,1l-0.5,1.4c-0.2,0.6-0.3,0.9-0.3,1.1c0,0.1,0,0.2,0.1,0.3c0,0.1,0.1,0.1,0.2,0.1c0.2,0,0.3-0.1,0.5-0.3
		C100.6,52.6,100.9,52.4,101.1,52z"/>
	<path fill="#1F1F1F" d="M105.8,51.6h0.3c-0.6,1.3-1.3,1.8-2.1,1.8c-0.3,0-0.7-0.1-0.8-0.3c-0.3-0.3-0.3-0.6-0.3-1
		c0-0.5,0.2-1.2,0.4-1.8c0.3-0.7,0.7-1.3,1.3-1.8c0.5-0.5,1-0.8,1.3-0.8c0.3,0,0.4,0.1,0.6,0.3c0.1,0.2,0.2,0.3,0.2,0.6
		c0,0.5-0.3,0.9-0.7,1.3c-0.5,0.4-1.2,0.8-2.1,1.3c-0.1,0.3-0.2,0.8-0.2,1.1c0,0.3,0.1,0.5,0.2,0.6c0.1,0.2,0.3,0.2,0.5,0.2
		C104.9,53,105.4,52.6,105.8,51.6z M103.9,50.9c0.6-0.3,1.1-0.6,1.5-1c0.4-0.4,0.7-0.8,0.7-1.2c0-0.2,0-0.3-0.1-0.3
		s-0.2-0.1-0.3-0.1c-0.3,0-0.6,0.3-0.9,0.8C104.4,49.5,104.2,50,103.9,50.9z"/>
</g>
</svg>
