<?xml version="1.0" encoding="utf-8"?>
<!-- Generator: Adobe Illustrator 18.1.1, SVG Export Plug-In . SVG Version: 6.00 Build 0)  -->
<svg version="1.1" id="Layer_1" xmlns="http://www.w3.org/2000/svg" xmlns:xlink="http://www.w3.org/1999/xlink" x="0px" y="0px"
	 viewBox="1.3 44.2 120.5 13.3" enable-background="new 1.3 44.2 120.5 13.3" xml:space="preserve">
<g enable-background="new    ">
	<path fill="#660000" d="M6,56.7c0.3,0,0.6,0,0.9-0.1c0.3-0.1,0.6-0.2,0.8-0.4C8,56,8.1,55.8,8.3,55.5c0.1-0.2,0.2-0.5,0.2-0.8
		c0-0.4-0.1-0.7-0.3-1c-0.2-0.3-0.5-0.6-0.8-0.8c-0.3-0.3-0.7-0.5-1.1-0.7c-0.4-0.2-0.8-0.4-1.3-0.7c-0.4-0.2-0.9-0.5-1.3-0.7
		c-0.4-0.2-0.8-0.5-1.1-0.8c-0.3-0.3-0.6-0.6-0.8-1c-0.2-0.4-0.3-0.8-0.3-1.3s0.1-0.9,0.3-1.3c0.2-0.4,0.4-0.8,0.8-1.1
		s0.8-0.5,1.3-0.7s1.1-0.3,1.8-0.3c1.2,0,2.1,0.3,2.8,0.8c0.7,0.5,1.2,1.2,1.5,2.2l-1.1,0.5c-0.1-0.4-0.3-0.7-0.5-1.1
		C8.3,46.3,8,46,7.7,45.8c-0.3-0.2-0.6-0.4-0.9-0.5c-0.4-0.1-0.8-0.2-1.2-0.2c-0.4,0-0.7,0.1-1,0.2c-0.3,0.1-0.5,0.3-0.7,0.4
		c-0.2,0.2-0.3,0.4-0.4,0.6c-0.1,0.2-0.1,0.5-0.1,0.7c0,0.3,0.1,0.6,0.3,0.9c0.2,0.3,0.5,0.5,0.8,0.8c0.3,0.2,0.7,0.5,1.2,0.7
		c0.4,0.2,0.9,0.5,1.3,0.7c0.4,0.2,0.9,0.5,1.3,0.7c0.4,0.3,0.8,0.5,1.2,0.8s0.6,0.6,0.8,1c0.2,0.4,0.3,0.8,0.3,1.2
		c0,0.5-0.1,1-0.3,1.4c-0.2,0.4-0.5,0.8-0.9,1.2c-0.4,0.3-0.9,0.6-1.4,0.8c-0.6,0.2-1.2,0.3-2,0.3c-0.6,0-1.1-0.1-1.6-0.2
		S3.3,57,2.9,56.7S2.2,56.1,2,55.8c-0.3-0.4-0.5-0.8-0.6-1.3L2.5,54c0.3,0.8,0.7,1.5,1.3,1.9C4.4,56.4,5.1,56.7,6,56.7z"/>
	<path fill="#660000" d="M19,44.2l6,13h-2.2L20.9,53h-5.4l-2,4.2h-1.1l6.1-13H19z M15.9,52.1h4.7l-2.3-5L15.9,52.1z"/>
	<path fill="#660000" d="M27.9,44.5h4.4c0.8,0,1.4,0.1,2,0.2c0.6,0.2,1.1,0.4,1.4,0.7c0.4,0.3,0.7,0.6,0.9,1
		c0.2,0.4,0.3,0.8,0.3,1.3c0,0.4-0.1,0.8-0.2,1.1s-0.4,0.7-0.6,0.9c-0.3,0.3-0.6,0.5-1,0.7c-0.4,0.2-0.8,0.4-1.3,0.5l4.6,6.2h-2.5
		l-4.4-6H30v6h-2.1V44.5z M30,50.6h1.2c0.5,0,0.9-0.1,1.3-0.2c0.4-0.1,0.8-0.3,1.1-0.5c0.3-0.2,0.5-0.5,0.7-0.9
		c0.2-0.3,0.3-0.7,0.3-1.1c0-0.4-0.1-0.7-0.2-1c-0.1-0.3-0.3-0.6-0.6-0.8c-0.2-0.2-0.5-0.4-0.8-0.5c-0.3-0.1-0.7-0.2-1.1-0.2H30
		V50.6z"/>
	<path fill="#660000" d="M46.2,44.2l6,13H50L48.1,53h-5.4l-2,4.2h-1.1l6.1-13H46.2z M43,52.1h4.7l-2.3-5L43,52.1z"/>
	<path fill="#660000" d="M57.2,51.1v6.1H55V44.5h2.1v5.8h6.4v-5.8h2.1v12.7h-2.1v-6.1H57.2z"/>
</g>
<g enable-background="new    ">
	<path fill="#333333" d="M79.4,50.9c0,0.9,0.1,1.7,0.4,2.4c0.3,0.7,0.6,1.3,1.1,1.8c0.5,0.5,1,0.9,1.7,1.1c0.6,0.3,1.3,0.4,2.1,0.4
		c0.4,0,0.9-0.1,1.3-0.3c0.4-0.2,0.8-0.4,1.2-0.7c0.4-0.3,0.7-0.6,1-0.9c0.3-0.3,0.5-0.7,0.7-1.1l0.9,0.6c-0.3,0.4-0.6,0.8-0.9,1.2
		c-0.4,0.4-0.8,0.7-1.2,1c-0.5,0.3-1,0.5-1.6,0.7c-0.6,0.2-1.2,0.3-2,0.3c-1,0-2-0.2-2.9-0.5c-0.9-0.4-1.6-0.8-2.2-1.4
		c-0.6-0.6-1.1-1.3-1.4-2.1c-0.3-0.8-0.5-1.6-0.5-2.5c0-0.9,0.2-1.7,0.5-2.5c0.3-0.8,0.8-1.5,1.4-2.1c0.6-0.6,1.4-1.1,2.2-1.5
		c0.9-0.4,1.8-0.5,2.9-0.5c0.7,0,1.3,0.1,1.9,0.3c0.6,0.2,1.1,0.4,1.6,0.7s0.9,0.6,1.3,1c0.4,0.4,0.7,0.8,0.9,1.2l-0.9,0.6
		c-0.5-1-1.1-1.8-1.8-2.3c-0.7-0.5-1.4-0.7-2.3-0.7c-0.7,0-1.4,0.1-2.1,0.4c-0.6,0.3-1.2,0.6-1.7,1.1c-0.5,0.5-0.8,1.1-1.1,1.8
		C79.5,49.2,79.4,50,79.4,50.9z"/>
	<path fill="#333333" d="M95.6,51.1v6.1h-2.1V44.5h2.1v5.8h6.4v-5.8h2.1v12.7h-2.1v-6.1H95.6z"/>
	<path fill="#333333" d="M114.9,57.5c-0.7,0-1.3-0.1-1.9-0.2c-0.6-0.2-1.2-0.4-1.7-0.7c-0.5-0.3-1-0.6-1.4-1
		c-0.4-0.4-0.8-0.9-1.1-1.4c-0.3-0.5-0.5-1-0.7-1.6c-0.2-0.6-0.2-1.2-0.2-1.8c0-0.6,0.1-1.2,0.2-1.7c0.2-0.6,0.4-1.1,0.7-1.6
		c0.3-0.5,0.7-0.9,1.1-1.3c0.4-0.4,0.9-0.7,1.4-1c0.5-0.3,1.1-0.5,1.7-0.7c0.6-0.2,1.2-0.2,1.9-0.2c1,0,1.9,0.2,2.7,0.5
		c0.8,0.3,1.6,0.8,2.2,1.4c0.6,0.6,1.1,1.3,1.5,2.1c0.4,0.8,0.5,1.6,0.5,2.6c0,0.6-0.1,1.2-0.2,1.8c-0.2,0.6-0.4,1.1-0.7,1.6
		c-0.3,0.5-0.7,1-1.1,1.4c-0.4,0.4-0.9,0.8-1.4,1c-0.5,0.3-1.1,0.5-1.7,0.7S115.5,57.5,114.9,57.5z M114.9,56.9
		c0.7,0,1.4-0.2,1.9-0.5c0.6-0.3,1-0.7,1.4-1.3c0.4-0.5,0.7-1.2,0.9-1.9c0.2-0.7,0.3-1.6,0.3-2.4c0-0.9-0.1-1.7-0.3-2.4
		c-0.2-0.7-0.5-1.3-0.9-1.9c-0.4-0.5-0.9-0.9-1.4-1.2c-0.6-0.3-1.2-0.4-1.9-0.4c-0.7,0-1.4,0.1-2,0.4c-0.6,0.3-1,0.7-1.4,1.2
		c-0.4,0.5-0.7,1.1-0.9,1.9c-0.2,0.7-0.3,1.5-0.3,2.4c0,0.9,0.1,1.7,0.3,2.4c0.2,0.7,0.5,1.4,0.9,1.9c0.4,0.5,0.8,1,1.4,1.3
		C113.5,56.7,114.1,56.9,114.9,56.9z"/>
</g>
</svg>
