<svg xmlns="http://www.w3.org/2000/svg" viewBox="1.3 44.2 120.5 13.3"><g fill="#600"><path d="M6 56.7c.3 0 .6 0 .9-.1.3-.1.6-.2.8-.4.3-.2.4-.4.6-.7.1-.2.2-.5.2-.8 0-.4-.1-.7-.3-1-.2-.3-.5-.6-.8-.8-.3-.3-.7-.5-1.1-.7-.4-.2-.8-.4-1.3-.7-.4-.2-.9-.5-1.3-.7-.4-.2-.8-.5-1.1-.8-.3-.3-.6-.6-.8-1-.2-.4-.3-.8-.3-1.3s.1-.9.3-1.3c.2-.4.4-.8.8-1.1s.8-.5 1.3-.7 1.1-.3 1.8-.3c1.2 0 2.1.3 2.8.8.7.5 1.2 1.2 1.5 2.2l-1.1.5c-.1-.4-.3-.7-.5-1.1-.1-.4-.4-.7-.7-.9-.3-.2-.6-.4-.9-.5-.4-.1-.8-.2-1.2-.2-.4 0-.7.1-1 .2-.3.1-.5.3-.7.4-.2.2-.3.4-.4.6-.1.2-.1.5-.1.7 0 .3.1.6.3.9.2.3.5.5.8.8.3.2.7.5 1.2.7.4.2.9.5 1.3.7.4.2.9.5 1.3.7.4.3.8.5 1.2.8s.6.6.8 1c.2.4.3.8.3 1.2 0 .5-.1 1-.3 1.4-.2.4-.5.8-.9 1.2-.4.3-.9.6-1.4.8-.6.2-1.2.3-2 .3-.6 0-1.1-.1-1.6-.2s-1.1-.3-1.5-.6-.7-.6-.9-.9c-.3-.4-.5-.8-.6-1.3l1.1-.5c.3.8.7 1.5 1.3 1.9.6.5 1.3.8 2.2.8zM19 44.2l6 13h-2.2L20.9 53h-5.4l-2 4.2h-1.1l6.1-13h.5zm-3.1 7.9h4.7l-2.3-5-2.4 5zM27.9 44.5h4.4c.8 0 1.4.1 2 .2.6.2 1.1.4 1.4.7.4.3.7.6.9 1 .2.4.3.8.3 1.3 0 .4-.1.8-.2 1.1s-.4.7-.6.9c-.3.3-.6.5-1 .7-.4.2-.8.4-1.3.5l4.6 6.2h-2.5l-4.4-6H30v6h-2.1V44.5zm2.1 6.1h1.2c.5 0 .9-.1 1.3-.2s.8-.3 1.1-.5c.3-.2.5-.5.7-.9.2-.3.3-.7.3-1.1 0-.4-.1-.7-.2-1-.1-.3-.3-.6-.6-.8-.2-.2-.5-.4-.8-.5-.3-.1-.7-.2-1.1-.2H30v5.2zM46.2 44.2l6 13H50L48.1 53h-5.4l-2 4.2h-1.1l6.1-13h.5zM43 52.1h4.7l-2.3-5-2.4 5zM57.2 51.1v6.1H55V44.5h2.1v5.8h6.4v-5.8h2.1v12.7h-2.1v-6.1h-6.3z"/></g><g fill="#333"><path d="M79.4 50.9c0 .9.1 1.7.4 2.4.3.7.6 1.3 1.1 1.8.5.5 1 .9 1.7 1.1.6.3 1.3.4 2.1.4.4 0 .9-.1 1.3-.3.4-.2.8-.4 1.2-.7.4-.3.7-.6 1-.9.3-.3.5-.7.7-1.1l.9.6-.9 1.2c-.4.4-.8.7-1.2 1-.5.3-1 .5-1.6.7-.6.2-1.2.3-2 .3-1 0-2-.2-2.9-.5-.9-.4-1.6-.8-2.2-1.4-.6-.6-1.1-1.3-1.4-2.1-.3-.8-.5-1.6-.5-2.5 0-.9.2-1.7.5-2.5s.8-1.5 1.4-2.1c.6-.6 1.4-1.1 2.2-1.5.9-.4 1.8-.5 2.9-.5.7 0 1.3.1 1.9.3.6.2 1.1.4 1.6.7s.9.6 1.3 1 .7.8.9 1.2l-.9.6c-.5-1-1.1-1.8-1.8-2.3-.7-.5-1.4-.7-2.3-.7-.7 0-1.4.1-2.1.4-.6.3-1.2.6-1.7 1.1-.5.5-.8 1.1-1.1 1.8-.4.8-.5 1.6-.5 2.5zM95.6 51.1v6.1h-2.1V44.5h2.1v5.8h6.4v-5.8h2.1v12.7H102v-6.1h-6.4zM114.9 57.5c-.7 0-1.3-.1-1.9-.2-.6-.2-1.2-.4-1.7-.7-.5-.3-1-.6-1.4-1-.4-.4-.8-.9-1.1-1.4-.3-.5-.5-1-.7-1.6-.2-.6-.2-1.2-.2-1.8 0-.6.1-1.2.2-1.7.2-.6.4-1.1.7-1.6.3-.5.7-.9 1.1-1.3.4-.4.9-.7 1.4-1 .5-.3 1.1-.5 1.7-.7.6-.2 1.2-.2 1.9-.2 1 0 1.9.2 2.7.5.8.3 1.6.8 2.2 1.4.6.6 1.1 1.3 1.5 2.1.4.8.5 1.6.5 2.6 0 .6-.1 1.2-.2 1.8-.2.6-.4 1.1-.7 1.6-.3.5-.7 1-1.1 1.4-.4.4-.9.8-1.4 1-.5.3-1.1.5-1.7.7s-1.2.1-1.8.1zm0-.6c.7 0 1.4-.2 1.9-.5.6-.3 1-.7 1.4-1.3.4-.5.7-1.2.9-1.9.2-.7.3-1.6.3-2.4 0-.9-.1-1.7-.3-2.4-.2-.7-.5-1.3-.9-1.9-.4-.5-.9-.9-1.4-1.2-.6-.3-1.2-.4-1.9-.4s-1.4.1-2 .4c-.6.3-1 .7-1.4 1.2-.4.5-.7 1.1-.9 1.9-.2.7-.3 1.5-.3 2.4 0 .9.1 1.7.3 2.4.2.7.5 1.4.9 1.9s.8 1 1.4 1.3c.6.3 1.2.5 2 .5z"/></g></svg>