<?xml version="1.0" encoding="utf-8"?>
<!-- Generator: Adobe Illustrator 18.1.1, SVG Export Plug-In . SVG Version: 6.00 Build 0)  -->
<svg version="1.1" id="Layer_1" xmlns="http://www.w3.org/2000/svg" xmlns:xlink="http://www.w3.org/1999/xlink" x="0px" y="0px"
	 viewBox="31.5 5.7 55.7 7.9" enable-background="new 31.5 5.7 55.7 7.9" xml:space="preserve">
<g>
	<path fill="#333333" d="M33.6,10.8l1.4-3.5h0.2l1.2,3.5l0.2,0.6c0-0.1,0.1-0.3,0.2-0.6l1.2-3.6h0.4L36.6,12h-0.2
		c-0.8-2.3-1.2-3.5-1.3-3.6c0-0.1-0.1-0.3-0.1-0.4c0,0.1-0.1,0.3-0.2,0.5L33.4,12h-0.2l-1.7-4.8H32l1.2,3.6c0.1,0.2,0.1,0.4,0.2,0.6
		C33.4,11.4,33.5,11.2,33.6,10.8z"/>
	<path fill="#333333" d="M39.2,12V7.3h2.2v0.3h-1.9v1.7h1.7v0.3h-1.7v2.1h1.9V12H39.2z"/>
	<path fill="#333333" d="M42.9,7.3c0.3,0,0.7,0,1.1,0c0.4,0,0.7,0.1,0.9,0.3s0.4,0.4,0.4,0.8c0,0.3-0.1,0.5-0.2,0.7
		c-0.1,0.2-0.3,0.4-0.5,0.5c0.3,0.1,0.6,0.3,0.8,0.5c0.2,0.2,0.3,0.5,0.3,0.8c0,0.4-0.1,0.7-0.4,0.9C45,11.9,44.6,12,44.1,12
		s-0.9,0-1.3-0.1V7.3z M44.9,8.3c0-0.2-0.1-0.4-0.3-0.6c-0.2-0.1-0.4-0.2-0.7-0.2c-0.3,0-0.5,0-0.7,0v1.8c0.4,0,0.8,0,1,0
		c0.2-0.1,0.4-0.3,0.5-0.4S44.9,8.5,44.9,8.3z M43.5,9.6l-0.3,0v2.1c0.2,0,0.5,0,1,0c0.3,0,0.6-0.1,0.8-0.3c0.2-0.2,0.3-0.4,0.3-0.7
		c0-0.3-0.1-0.5-0.3-0.7c-0.2-0.2-0.5-0.3-0.8-0.4C44,9.6,43.8,9.6,43.5,9.6z"/>
	<path fill="#660000" d="M51,7.2c0.7,0,1.3,0.2,1.8,0.7c0.5,0.5,0.7,1.1,0.7,1.8c0,0.8-0.2,1.4-0.7,1.7c-0.5,0.4-1,0.6-1.7,0.6
		c-0.5,0-1,0-1.5-0.1V7.3C50.1,7.2,50.5,7.2,51,7.2z M51.2,11.8c0.6,0,1.1-0.2,1.5-0.5c0.4-0.3,0.6-0.8,0.6-1.5S53,8.5,52.6,8.1
		c-0.4-0.4-1-0.6-1.6-0.6c-0.4,0-0.8,0-1,0v4.2C50.3,11.7,50.7,11.8,51.2,11.8z"/>
	<path fill="#660000" d="M55.1,12V7.3h2.2v0.3h-1.9v1.7h1.7v0.3h-1.7v2.1h2V12H55.1z"/>
	<path fill="#660000" d="M60.2,11l1.6-3.7h0.4l-2,4.8h-0.2l-2-4.8h0.4l1.8,4.2C60.1,11.4,60.1,11.2,60.2,11z"/>
	<path fill="#660000" d="M63.1,12V7.3h2.2v0.3h-1.9v1.7h1.7v0.3h-1.7v2.1h2V12H63.1z"/>
	<path fill="#660000" d="M66.8,12V7.3h0.3v4.4h2.2V12H66.8z"/>
	<path fill="#660000" d="M72.1,12.1c-0.7,0-1.2-0.2-1.7-0.7c-0.5-0.5-0.7-1.1-0.7-1.7s0.2-1.3,0.7-1.7c0.5-0.5,1-0.7,1.7-0.7
		c0.7,0,1.2,0.2,1.7,0.7c0.5,0.5,0.7,1.1,0.7,1.7s-0.2,1.3-0.7,1.7C73.3,11.8,72.8,12.1,72.1,12.1z M72.1,7.5
		c-0.6,0-1.1,0.2-1.5,0.6C70.2,8.5,70,9,70,9.6c0,0.6,0.2,1.1,0.6,1.5c0.4,0.4,0.9,0.6,1.5,0.6s1.1-0.2,1.5-0.6
		c0.4-0.4,0.6-0.9,0.6-1.5c0-0.6-0.2-1.1-0.6-1.5C73.2,7.7,72.7,7.5,72.1,7.5z"/>
	<path fill="#660000" d="M75.9,12V7.3c0.4,0,0.8-0.1,1.2-0.1c0.4,0,0.8,0.1,1,0.3c0.3,0.2,0.4,0.5,0.4,1c0,0.4-0.2,0.8-0.6,1.1
		S77.1,10,76.6,10c0,0-0.1,0-0.1,0V9.8c0,0,0,0,0.1,0c0.4,0,0.8-0.1,1.1-0.3c0.3-0.2,0.5-0.5,0.5-0.9c0-0.4-0.1-0.6-0.3-0.8
		c-0.2-0.2-0.5-0.2-0.9-0.2c-0.2,0-0.4,0-0.7,0V12H75.9z"/>
	<path fill="#660000" d="M79.8,12V7.3H82v0.3h-1.9v1.7h1.7v0.3h-1.7v2.1h2V12H79.8z"/>
	<path fill="#660000" d="M83.4,12V7.3c0.4,0,0.8-0.1,1.1-0.1c0.4,0,0.8,0.1,1.1,0.3c0.3,0.2,0.4,0.6,0.4,1c0,0.3-0.1,0.6-0.2,0.8
		c-0.2,0.2-0.4,0.4-0.6,0.6c0.6,0.8,0.9,1.2,1.1,1.4c0.3,0.3,0.6,0.5,0.9,0.5l0,0.2c-0.3,0-0.5,0-0.7-0.1c-0.2-0.1-0.3-0.2-0.5-0.4
		s-0.5-0.7-1.1-1.5c-0.4,0-0.8,0-1.2,0V12H83.4z M84.7,9.8c0.2,0,0.4-0.1,0.6-0.4c0.2-0.3,0.3-0.5,0.3-0.9S85.6,8,85.3,7.8
		c-0.2-0.2-0.5-0.3-0.9-0.3c-0.2,0-0.4,0-0.7,0v2.2C84.1,9.8,84.4,9.8,84.7,9.8z"/>
</g>
</svg>
