<?xml version="1.0" encoding="utf-8"?>
<!-- Generator: Adobe Illustrator 18.1.1, SVG Export Plug-In . SVG Version: 6.00 Build 0)  -->
<svg version="1.1" id="Layer_1" xmlns="http://www.w3.org/2000/svg" xmlns:xlink="http://www.w3.org/1999/xlink" x="0px" y="0px"
	 viewBox="0.9 52.2 188.1 9.3" enable-background="new 0.9 52.2 188.1 9.3" xml:space="preserve">
<g enable-background="new    ">
	<path fill="#333333" d="M0.9,61.4v-9h4.6v0.6h-4v3.3h3.6v0.5H1.5v4.6H0.9z"/>
</g>
<g enable-background="new    ">
	<path fill="#333333" d="M7.9,61.4v-9c0.8-0.1,1.5-0.1,2-0.1c0.9,0,1.6,0.2,2.1,0.7c0.6,0.4,0.8,1.1,0.8,1.9c0,0.5-0.2,1-0.5,1.5
		c-0.3,0.5-0.7,0.8-1.1,1.1c1.1,1.5,1.8,2.3,2,2.6c0.5,0.5,1.1,0.9,1.7,0.9l0,0.4c-0.5,0-0.9-0.1-1.3-0.2c-0.3-0.1-0.6-0.4-1-0.7
		c-0.3-0.3-1-1.3-2.1-2.8c-0.7,0-1.5,0-2.2-0.1v3.7H7.9z M10.4,57.2c0.4,0,0.7-0.2,1.2-0.7c0.4-0.5,0.6-1,0.6-1.7s-0.2-1.1-0.7-1.5
		c-0.4-0.3-1-0.5-1.7-0.5c-0.4,0-0.8,0-1.3,0.1v4.2C9.2,57.2,9.8,57.2,10.4,57.2z"/>
</g>
<g enable-background="new    ">
	<path fill="#333333" d="M20,61.5c-1.3,0-2.4-0.4-3.2-1.3c-0.9-0.9-1.3-2-1.3-3.3s0.4-2.4,1.3-3.3c0.9-0.9,1.9-1.3,3.2-1.3
		s2.4,0.4,3.2,1.3c0.9,0.9,1.3,2,1.3,3.3s-0.4,2.4-1.3,3.3C22.4,61,21.3,61.5,20,61.5z M20,52.8c-1.1,0-2,0.4-2.8,1.2
		c-0.7,0.8-1.1,1.8-1.1,2.9c0,1.1,0.4,2.1,1.1,2.9c0.7,0.8,1.7,1.2,2.8,1.2c1.1,0,2-0.4,2.8-1.2c0.7-0.8,1.1-1.7,1.1-2.9
		c0-1.1-0.4-2.1-1.1-2.9C22.1,53.2,21.1,52.8,20,52.8z"/>
	<path fill="#333333" d="M27.3,61.4v-9.1h0.3l5.9,6.8c0.2,0.2,0.4,0.5,0.6,0.7c0.2,0.2,0.3,0.4,0.3,0.4c0-0.2,0-0.7,0-1.3v-6.5H35
		v9.1h-0.3l-6-6.9l-0.8-0.9c0,0.2,0,0.6,0,1.3v6.5H27.3z"/>
</g>
<g enable-background="new    ">
	<path fill="#333333" d="M40.1,52.9H37v-0.6h6.7v0.6h-3.1v8.4h-0.6V52.9z"/>
</g>
<g enable-background="new    ">
	<path fill="#333333" d="M44.2,56.3h4.9v0.6h-4.9V56.3z"/>
	<path fill="#333333" d="M51.7,61.4v-9h4.2v0.6h-3.6v3.3h3.2v0.5h-3.2v4.1H56v0.6H51.7z"/>
	<path fill="#333333" d="M58.6,61.4v-9.1h0.3l5.9,6.8c0.2,0.2,0.4,0.5,0.6,0.7c0.2,0.2,0.3,0.4,0.3,0.4c0-0.2,0-0.7,0-1.3v-6.5h0.6
		v9.1H66l-6-6.9l-0.8-0.9c0,0.2,0,0.6,0,1.3v6.5H58.6z"/>
	<path fill="#333333" d="M72.2,52.3c1.4,0,2.5,0.4,3.5,1.3c0.9,0.9,1.4,2,1.4,3.5c0,1.5-0.4,2.6-1.3,3.3c-0.9,0.7-2,1.1-3.3,1.1
		c-0.9,0-1.9,0-2.9-0.1v-9C70.4,52.3,71.2,52.3,72.2,52.3z M72.5,60.9c1.2,0,2.1-0.3,2.9-1c0.7-0.6,1.1-1.6,1.1-2.9
		c0-1.3-0.4-2.3-1.2-3.1c-0.8-0.8-1.8-1.1-3-1.1c-0.8,0-1.5,0-1.9,0.1v7.9C70.8,60.8,71.6,60.9,72.5,60.9z"/>
</g>
<g enable-background="new    ">
	<path fill="#660000" d="M87.2,59.2l2.6-6.6h0.4l2.3,6.7l0.3,1.1c0-0.2,0.1-0.5,0.3-1.1l2.3-6.9h0.7l-3.1,9.1h-0.4
		c-1.5-4.4-2.3-6.7-2.4-6.9c-0.1-0.3-0.2-0.5-0.2-0.7c0,0.2-0.2,0.5-0.4,1l-2.6,6.7h-0.4l-3.2-9.1h0.7l2.3,6.8
		c0.1,0.4,0.2,0.8,0.4,1.2C86.8,60.2,86.9,59.8,87.2,59.2z"/>
	<path fill="#660000" d="M97.9,61.4v-9h4.2v0.6h-3.6v3.3h3.2v0.5h-3.2v4.1h3.7v0.6H97.9z"/>
	<path fill="#660000" d="M104.8,52.4c0.7-0.1,1.3-0.1,2-0.1c0.7,0,1.3,0.2,1.8,0.5c0.5,0.3,0.7,0.8,0.7,1.5c0,0.5-0.1,0.9-0.4,1.3
		c-0.3,0.4-0.6,0.7-0.9,0.9c0.6,0.2,1.1,0.5,1.5,0.9c0.4,0.5,0.6,1,0.6,1.5c0,0.8-0.3,1.4-0.8,1.8c-0.5,0.4-1.2,0.6-2.1,0.6
		c-0.9,0-1.7,0-2.4-0.1V52.4z M108.7,54.2c0-0.5-0.2-0.8-0.6-1c-0.4-0.2-0.8-0.4-1.4-0.4s-1,0-1.4,0v3.4c0.8,0,1.4,0,1.9,0.1
		c0.4-0.2,0.7-0.5,1-0.9C108.6,55.1,108.7,54.7,108.7,54.2z M106,56.8l-0.6,0v4c0.4,0,1,0.1,1.9,0.1c0.6,0,1.1-0.2,1.5-0.5
		s0.6-0.8,0.6-1.3c0-0.5-0.2-1-0.6-1.3c-0.4-0.4-0.9-0.7-1.5-0.8C107,56.8,106.5,56.8,106,56.8z"/>
	<path fill="#660000" d="M120.3,52.3c1.4,0,2.5,0.4,3.5,1.3c0.9,0.9,1.4,2,1.4,3.5c0,1.5-0.4,2.6-1.3,3.3c-0.9,0.7-2,1.1-3.3,1.1
		c-0.9,0-1.9,0-2.9-0.1v-9C118.5,52.3,119.3,52.3,120.3,52.3z M120.6,60.9c1.2,0,2.1-0.3,2.9-1c0.7-0.6,1.1-1.6,1.1-2.9
		c0-1.3-0.4-2.3-1.2-3.1c-0.8-0.8-1.8-1.1-3-1.1c-0.8,0-1.5,0-1.9,0.1v7.9C118.9,60.8,119.7,60.9,120.6,60.9z"/>
	<path fill="#660000" d="M128,61.4v-9h4.2v0.6h-3.6v3.3h3.2v0.5h-3.2v4.1h3.7v0.6H128z"/>
	<path fill="#660000" d="M137.8,59.5l3-7.1h0.7l-3.9,9.1h-0.4l-3.9-9.1h0.7l3.4,8C137.5,60.2,137.6,59.9,137.8,59.5z"/>
	<path fill="#660000" d="M143.3,61.4v-9h4.2v0.6h-3.6v3.3h3.2v0.5h-3.2v4.1h3.7v0.6H143.3z"/>
</g>
<g enable-background="new    ">
	<path fill="#660000" d="M150.4,61.4v-9h0.6v8.4h4.1v0.6H150.4z"/>
</g>
<g enable-background="new    ">
	<path fill="#660000" d="M160.3,61.5c-1.3,0-2.4-0.4-3.2-1.3c-0.9-0.9-1.3-2-1.3-3.3s0.4-2.4,1.3-3.3c0.9-0.9,1.9-1.3,3.2-1.3
		c1.3,0,2.4,0.4,3.2,1.3c0.9,0.9,1.3,2,1.3,3.3s-0.4,2.4-1.3,3.3C162.7,61,161.6,61.5,160.3,61.5z M160.3,52.8c-1.1,0-2,0.4-2.8,1.2
		c-0.7,0.8-1.1,1.8-1.1,2.9c0,1.1,0.4,2.1,1.1,2.9c0.7,0.8,1.7,1.2,2.8,1.2c1.1,0,2-0.4,2.8-1.2c0.7-0.8,1.1-1.7,1.1-2.9
		c0-1.1-0.4-2.1-1.1-2.9C162.3,53.2,161.4,52.8,160.3,52.8z"/>
	<path fill="#660000" d="M167.6,61.4v-8.9c0.7-0.1,1.4-0.1,2.2-0.1c0.8,0,1.4,0.2,2,0.6c0.5,0.4,0.8,1,0.8,1.9c0,0.8-0.4,1.5-1.1,2
		c-0.7,0.5-1.6,0.8-2.6,0.8c0,0-0.1,0-0.2,0v-0.4c0,0,0.1,0,0.1,0c0.8,0,1.5-0.2,2.2-0.7c0.6-0.4,0.9-1,0.9-1.7
		c0-0.7-0.2-1.2-0.6-1.5c-0.4-0.3-1-0.5-1.7-0.5c-0.4,0-0.8,0-1.3,0.1v8.4H167.6z"/>
	<path fill="#660000" d="M174.9,61.4v-9h4.2v0.6h-3.6v3.3h3.2v0.5h-3.2v4.1h3.7v0.6H174.9z"/>
	<path fill="#660000" d="M181.8,61.4v-9c0.8-0.1,1.5-0.1,2-0.1c0.9,0,1.6,0.2,2.1,0.7c0.6,0.4,0.8,1.1,0.8,1.9c0,0.5-0.2,1-0.5,1.5
		c-0.3,0.5-0.7,0.8-1.1,1.1c1.1,1.5,1.8,2.3,2,2.6c0.5,0.5,1.1,0.9,1.7,0.9l0,0.4c-0.5,0-0.9-0.1-1.3-0.2c-0.3-0.1-0.6-0.4-1-0.7
		c-0.3-0.3-1-1.3-2.1-2.8c-0.7,0-1.5,0-2.2-0.1v3.7H181.8z M184.3,57.2c0.4,0,0.7-0.2,1.2-0.7c0.4-0.5,0.6-1,0.6-1.7
		s-0.2-1.1-0.7-1.5c-0.4-0.3-1-0.5-1.7-0.5c-0.4,0-0.8,0-1.3,0.1v4.2C183.1,57.2,183.7,57.2,184.3,57.2z"/>
</g>
</svg>
