<svg xmlns="http://www.w3.org/2000/svg" viewBox="31.5 5.7 55.7 7.9"><path fill="#333" d="M33.6 10.8L35 7.3h.2l1.2 3.5.2.6c0-.1.1-.3.2-.6L38 7.2h.4L36.6 12h-.2c-.8-2.3-1.2-3.5-1.3-3.6 0-.1-.1-.3-.1-.4 0 .1-.1.3-.2.5L33.4 12h-.2l-1.7-4.8h.5l1.2 3.6c.1.2.1.4.2.6 0 0 .1-.2.2-.6zM39.2 12V7.3h2.2v.3h-1.9v1.7h1.7v.3h-1.7v2.1h1.9v.3h-2.2zM42.9 7.3H44c.4 0 .7.1.9.3s.4.4.4.8c0 .3-.1.5-.2.7-.1.2-.3.4-.5.5.3.1.6.3.8.5.2.2.3.5.3.8 0 .4-.1.7-.4.9-.3.1-.7.2-1.2.2s-.9 0-1.3-.1V7.3zm2 1c0-.2-.1-.4-.3-.6-.2-.1-.4-.2-.7-.2h-.7v1.8h1c.2-.1.4-.3.5-.4s.2-.4.2-.6zm-1.4 1.3h-.3v2.1h1c.3 0 .6-.1.8-.3.2-.2.3-.4.3-.7 0-.3-.1-.5-.3-.7-.2-.2-.5-.3-.8-.4h-.7z"/><path fill="#600" d="M51 7.2c.7 0 1.3.2 1.8.7.5.5.7 1.1.7 1.8 0 .8-.2 1.4-.7 1.7-.5.4-1 .6-1.7.6-.5 0-1 0-1.5-.1V7.3c.5-.1.9-.1 1.4-.1zm.2 4.6c.6 0 1.1-.2 1.5-.5.4-.3.6-.8.6-1.5s-.3-1.3-.7-1.7c-.4-.4-1-.6-1.6-.6h-1v4.2c.3 0 .7.1 1.2.1zM55.1 12V7.3h2.2v.3h-1.9v1.7h1.7v.3h-1.7v2.1h2v.3h-2.3zM60.2 11l1.6-3.7h.4l-2 4.8H60l-2-4.8h.4l1.8 4.2c-.1-.1-.1-.3 0-.5zM63.1 12V7.3h2.2v.3h-1.9v1.7h1.7v.3h-1.7v2.1h2v.3h-2.3zM66.8 12V7.3h.3v4.4h2.2v.3h-2.5zM72.1 12.1c-.7 0-1.2-.2-1.7-.7-.5-.5-.7-1.1-.7-1.7s.2-1.3.7-1.7c.5-.5 1-.7 1.7-.7s1.2.2 1.7.7c.5.5.7 1.1.7 1.7s-.2 1.3-.7 1.7c-.5.4-1 .7-1.7.7zm0-4.6c-.6 0-1.1.2-1.5.6-.4.4-.6.9-.6 1.5s.2 1.1.6 1.5c.4.4.9.6 1.5.6s1.1-.2 1.5-.6c.4-.4.6-.9.6-1.5s-.2-1.1-.6-1.5c-.4-.4-.9-.6-1.5-.6zM75.9 12V7.3c.4 0 .8-.1 1.2-.1.4 0 .8.1 1 .3.3.2.4.5.4 1 0 .4-.2.8-.6 1.1s-.8.4-1.3.4h-.1v-.2h.1c.4 0 .8-.1 1.1-.3.3-.2.5-.5.5-.9s-.1-.6-.3-.8c-.2-.2-.5-.2-.9-.2h-.7V12h-.4zM79.8 12V7.3H82v.3h-1.9v1.7h1.7v.3h-1.7v2.1h2v.3h-2.3zM83.4 12V7.3c.4 0 .8-.1 1.1-.1.4 0 .8.1 1.1.3.3.2.4.6.4 1 0 .3-.1.6-.2.8l-.6.6c.6.8.9 1.2 1.1 1.4.3.3.6.5.9.5v.2c-.3 0-.5 0-.7-.1-.2-.1-.3-.2-.5-.4s-.5-.7-1.1-1.5h-1.2v2h-.3zm1.3-2.2c.2 0 .4-.1.6-.4.2-.3.3-.5.3-.9s0-.5-.3-.7c-.2-.2-.5-.3-.9-.3h-.7v2.2c.4.1.7.1 1 .1z"/></svg>